<svg width="44" height="44" viewBox="0 0 44 44" fill="none" xmlns="http://www.w3.org/2000/svg">
<path fill-rule="evenodd" clip-rule="evenodd" d="M37 26.4079C37 27.1567 36.5261 27.5094 35.6957 27.5094H34.0739V26.7606H35.6957C35.8095 26.7727 35.9242 26.7467 36.0217 26.6865C36.0527 26.6574 36.0775 26.6224 36.0947 26.5835C36.1118 26.5446 36.121 26.5027 36.1217 26.4602C36.1193 26.3681 36.0838 26.28 36.0217 26.212C35.9766 26.1749 35.9245 26.1474 35.8684 26.1309C35.8124 26.1145 35.7536 26.1095 35.6957 26.1162C34.9217 26.0901 33.9565 26.1424 33.9565 25.0409C33.9565 24.5403 34.2826 23.9917 35.1565 23.9917H36.8304V24.7405H35.2609C35.1498 24.7252 35.0367 24.7418 34.9348 24.7884C34.895 24.8221 34.8631 24.8642 34.8414 24.9115C34.8196 24.9589 34.8084 25.0105 34.8087 25.0627C34.8101 25.1166 34.8274 25.1689 34.8583 25.213C34.8892 25.2571 34.9325 25.2912 34.9826 25.3108C35.0888 25.3409 35.1984 25.357 35.3087 25.3587H35.7435C36.0908 25.3271 36.4375 25.4247 36.7174 25.633C36.8914 25.8424 36.9799 26.1098 36.9652 26.3818L37 26.4079ZM33.4783 25.6591C33.1984 25.4508 32.8516 25.3532 32.5043 25.3848H32.0696C31.9592 25.3832 31.8496 25.3671 31.7435 25.337C31.693 25.3178 31.6495 25.2839 31.6184 25.2396C31.5874 25.1954 31.5704 25.1429 31.5696 25.0888C31.5636 25.0359 31.5722 24.9824 31.5944 24.9341C31.6166 24.8857 31.6516 24.8444 31.6957 24.8145C31.7976 24.768 31.9107 24.7513 32.0217 24.7667H33.5696V24.0091H31.8957C30.9957 24.0091 30.6957 24.5577 30.6957 25.0583C30.6957 26.1598 31.6696 26.1075 32.4348 26.1337C32.5405 26.1207 32.6472 26.147 32.7348 26.2077C32.7968 26.2757 32.8323 26.3637 32.8348 26.4558C32.8341 26.4983 32.8249 26.5403 32.8077 26.5792C32.7905 26.618 32.7657 26.6531 32.7348 26.6822C32.636 26.7392 32.5224 26.765 32.4087 26.7562H30.787V27.5094H32.4087C33.2783 27.5094 33.713 27.1611 33.713 26.4079C33.7277 26.136 33.6392 25.8685 33.4652 25.6591H33.4783ZM30.2826 26.7867H28.3043V26.0858H30.2261V25.3848H28.3043V24.7318H30.2783V24.0091H27.4826V27.4919H30.2783V26.7823L30.2826 26.7867ZM26.587 24.1746C26.265 24.0311 25.9121 23.9712 25.5609 24.0004H23.6348V27.4832H24.5043V26.2338H25.4043C25.5092 26.2166 25.6164 26.2209 25.7195 26.2464C25.8226 26.2718 25.9195 26.3179 26.0043 26.3818C26.1215 26.5955 26.1658 26.8416 26.1304 27.0827V27.5181H26.9565V26.8346C26.9786 26.6107 26.9347 26.3852 26.8304 26.1859C26.7158 26.0477 26.5653 25.9438 26.3957 25.8855C26.5795 25.8121 26.7362 25.6836 26.8444 25.5176C26.9526 25.3517 27.0069 25.1563 27 24.9582C27.0144 24.8001 26.9806 24.6414 26.9029 24.503C26.8253 24.3647 26.7075 24.2532 26.5652 24.1833L26.587 24.1746ZM21.8391 24.0004H19.1739L18.0913 25.1585L17.0652 24.0091H13.6957V27.4919H17L18.0739 26.3426L19.1 27.4919H20.7391V26.3339H21.7826C22.5087 26.3339 23.2304 26.1337 23.2304 25.1585C23.2304 24.1833 22.4826 24.0091 21.8304 24.0091L21.8391 24.0004ZM25.9087 25.4502C25.7798 25.4922 25.6439 25.5085 25.5087 25.498L24.4826 25.5242V24.7318H25.5087C25.6465 24.7149 25.7861 24.7408 25.9087 24.8058C25.9637 24.8336 26.0094 24.8768 26.0402 24.9301C26.0711 24.9835 26.0858 25.0447 26.0826 25.1062C26.0826 25.1738 26.0669 25.2405 26.0367 25.3009C26.0065 25.3614 25.9627 25.414 25.9087 25.4545V25.4502ZM21.8391 25.6243H20.7391V24.7318H21.8391C21.9014 24.7224 21.9651 24.7266 22.0256 24.7442C22.0861 24.7618 22.1421 24.7923 22.1897 24.8337C22.2372 24.8751 22.2752 24.9264 22.301 24.984C22.3268 25.0416 22.3398 25.1041 22.3391 25.1672C22.3459 25.2335 22.3374 25.3004 22.3143 25.3629C22.2912 25.4254 22.254 25.4818 22.2057 25.5276C22.1574 25.5735 22.0992 25.6076 22.0357 25.6274C21.9721 25.6471 21.9049 25.6521 21.8391 25.6417V25.6243ZM18.6174 25.7505L19.9217 24.3748V27.2003L18.6174 25.7505ZM16.5957 26.778H14.5174V26.0858H16.3652V25.3848H14.5174V24.7318H16.6174L17.5435 25.7593L16.5957 26.7867V26.778ZM34.6826 21.4754H33.4783L31.9043 18.8633V21.4754H30.2043L29.8783 20.7005H28.1391L27.813 21.4754H26.8348C26.3908 21.4973 25.9544 21.3547 25.6087 21.0749C25.2998 20.7126 25.1438 20.2442 25.1739 19.7688C25.1481 19.5219 25.1734 19.2723 25.2482 19.0356C25.323 18.7989 25.4457 18.5802 25.6087 18.3931C25.7829 18.2435 25.9856 18.1309 26.2046 18.062C26.4236 17.9932 26.6543 17.9696 26.8826 17.9926H27.6826V18.7153H26.9087C26.7928 18.7035 26.6758 18.7152 26.5645 18.7496C26.4532 18.784 26.35 18.8404 26.2609 18.9155C26.0866 19.1441 26.0058 19.4305 26.0348 19.7166C26.0103 20.0104 26.0904 20.3034 26.2609 20.5438C26.4238 20.6714 26.6285 20.7334 26.8348 20.7179H27.2087L28.4087 17.9665H29.6565L31.0565 21.2664V17.9795H32.3609L33.8348 20.4044V17.9795H34.7043V21.4623L34.6826 21.4754ZM24.7652 17.9926H23.8957V21.4754H24.7652V17.9926ZM22.9913 18.1406C22.676 18.0069 22.3318 17.956 21.9913 17.9926H20.0435V21.4754H20.8696V20.2042H21.7826C22.0025 20.1716 22.2266 20.2245 22.4087 20.3522C22.5242 20.557 22.5685 20.7943 22.5348 21.027V21.4623H23.4043V20.7832C23.4311 20.5633 23.3787 20.341 23.2565 20.1563C23.1493 20.0253 23.0121 19.9222 22.8565 19.8559C23.037 19.7783 23.1905 19.6487 23.2973 19.4836C23.4041 19.3185 23.4595 19.1253 23.4565 18.9286C23.4651 18.7679 23.429 18.608 23.3522 18.4665C23.2755 18.3251 23.1611 18.2078 23.0217 18.1276L22.9913 18.1406ZM19.4696 20.7527H17.5174V20.0562H19.4391V19.3291H17.5174V18.7153H19.4652V17.9795H16.6652V21.4623H19.4609V20.7571L19.4696 20.7527ZM16.0435 17.9795H14.6696L13.6435 20.3566L12.5435 17.9795H11.1957V21.2838L9.77391 17.9839H8.52174L7.02174 21.4667H7.92174L8.24783 20.6918H9.98696L10.313 21.4667H12.013V18.7153L13.2391 21.4667H13.9565L15.1913 18.7153V21.4667H16.0609V17.9839L16.0435 17.9795ZM29.5826 19.956L29.0087 18.5803L28.4348 19.956H29.5826ZM22.3391 19.4075C22.2046 19.4743 22.0534 19.5001 21.9043 19.4815H20.887V18.7153H21.913C22.0597 18.7021 22.2075 18.7183 22.3478 18.7632C22.3981 18.8006 22.438 18.8502 22.4639 18.9073C22.4897 18.9644 22.5007 19.0272 22.4957 19.0897C22.5034 19.1525 22.4937 19.2161 22.4676 19.2737C22.4415 19.3314 22.4001 19.3806 22.3478 19.4162L22.3391 19.4075ZM8.54783 19.956L9.12174 18.5803L9.69565 19.956H8.54783ZM36.8087 7H7V19.586L8.02609 17.2612H10.2L10.4783 17.8446V17.2786H13.0435L13.6174 18.5281L14.1652 17.2786H22.287C22.625 17.2583 22.9597 17.3552 23.2348 17.5529V17.2786H25.4565V17.5529C25.8941 17.3493 26.3746 17.2551 26.8565 17.2786H30.0783L30.3826 17.8446V17.2786H32.7565L33.087 17.8446V17.2786H35.4087V22.1981H33.087L32.6522 21.4493V22.1981H29.7304L29.4043 21.397H28.6565L28.3304 22.1981H26.8087C26.3422 22.2046 25.8806 22.1017 25.4609 21.8977V22.1981H21.8391V21.0575C21.8391 20.9094 21.813 20.8833 21.713 20.8833H21.587V22.1894H14.5957V21.5581L14.3435 22.1981H12.8696L12.6217 21.5973V22.1981H9.79565L9.49565 21.397H8.77391L8.44783 22.1981H7V37H36.8V27.9839C36.4113 28.1433 35.9938 28.2203 35.5739 28.2103H33.4V27.9099C33.0645 28.1238 32.6712 28.2287 32.2739 28.2103H25.4348V27.0827C25.4348 26.9347 25.4087 26.9347 25.287 26.9347H25.1609V28.2103H22.913V26.9042C22.5391 27.0472 22.1384 27.1066 21.7391 27.0784H21.487V28.2277H18.7391L18.0913 27.4789L17.3652 28.2277H12.9435V23.3082H17.4348L18.0826 24.057L18.7826 23.3082H21.8261C22.2398 23.2761 22.6524 23.3817 23 23.6086V23.3082H25.6957C26.0989 23.298 26.4968 23.4021 26.8435 23.6086V23.3082H30.913V23.6086C31.2127 23.398 31.5734 23.2924 31.9391 23.3082H34.213V23.6086C34.523 23.4027 34.889 23.2978 35.2609 23.3082H36.8087V7Z" fill="#016FD0"/>
</svg>
