<svg width="60" height="26" viewBox="0 0 60 26" fill="none" xmlns="http://www.w3.org/2000/svg">
<path d="M11.3397 3.28222C12.0461 2.39866 12.5255 1.21231 12.399 0C11.365 0.0514184 10.1031 0.682212 9.37252 1.56646C8.71655 2.32368 8.13596 3.55971 8.28732 4.7212C9.44812 4.82188 10.6078 4.14098 11.3397 3.28222Z" fill="white"/>
<path d="M12.3859 4.94789C10.7001 4.84747 9.26684 5.90464 8.4618 5.90464C7.65632 5.90464 6.42355 4.99849 5.09021 5.02291C3.35477 5.0484 1.74449 6.02963 0.863836 7.59024C-0.947527 10.7122 0.385818 15.3432 2.14727 17.8859C3.00268 19.1439 4.03358 20.529 5.39196 20.4792C6.67539 20.4288 7.17845 19.6482 8.73852 19.6482C10.2974 19.6482 10.7506 20.4792 12.1092 20.454C13.5181 20.4288 14.3989 19.1955 15.2543 17.9363C16.2356 16.5023 16.6373 15.1176 16.6626 15.0416C16.6373 15.0165 13.9458 13.9839 13.9209 10.8879C13.8955 8.29554 16.034 7.06247 16.1346 6.986C14.927 5.19988 13.0401 4.99849 12.3859 4.94789Z" fill="white"/>
<path d="M27.0642 1.4397C30.7281 1.4397 33.2795 3.96531 33.2795 7.6424C33.2795 11.3326 30.6757 13.8713 26.9723 13.8713H22.9156V20.3227H19.9846V1.4397H27.0642V1.4397ZM22.9156 11.4111H26.2787C28.8305 11.4111 30.2829 10.0373 30.2829 7.65552C30.2829 5.27404 28.8305 3.91306 26.2918 3.91306H22.9156V11.4111Z" fill="white"/>
<path d="M34.0453 16.41C34.0453 14.0021 35.8904 12.5234 39.1621 12.3402L42.9306 12.1178V11.058C42.9306 9.52684 41.8967 8.61085 40.1697 8.61085C38.5336 8.61085 37.5129 9.39584 37.2645 10.6261H34.595C34.752 8.1396 36.8718 6.30762 40.2742 6.30762C43.6111 6.30762 45.7439 8.07423 45.7439 10.8353V20.3226H43.0351V18.0588H42.97C42.1718 19.5899 40.4312 20.5581 38.6255 20.5581C35.9298 20.5581 34.0453 18.8831 34.0453 16.41ZM42.9306 15.1669V14.0808L39.5412 14.2901C37.8531 14.4079 36.898 15.1538 36.898 16.3315C36.898 17.5353 37.8925 18.3205 39.4105 18.3205C41.3864 18.3205 42.9306 16.9595 42.9306 15.1669Z" fill="white"/>
<path d="M48.3013 25.3869V23.0968C48.5103 23.149 48.9813 23.149 49.217 23.149C50.5255 23.149 51.2323 22.5995 51.6639 21.1863C51.6639 21.16 51.9128 20.3488 51.9128 20.3357L46.9403 6.55615H50.002L53.4832 17.7578H53.5352L57.0165 6.55615H59.9999L54.8437 21.0422C53.6665 24.3793 52.3055 25.4522 49.4528 25.4522C49.217 25.4522 48.5103 25.426 48.3013 25.3869Z" fill="white"/>
</svg>
