<svg width="44" height="44" viewBox="0 0 44 44" fill="none" xmlns="http://www.w3.org/2000/svg">
<mask id="mask0_16_690" style="mask-type:luminance" maskUnits="userSpaceOnUse" x="9" y="9" width="27" height="27">
<path d="M35.5965 24.0347L31.5979 20.0361H32.9126C32.9867 20.0361 33.0579 20.0067 33.1103 19.9542C33.1627 19.9018 33.1922 19.8307 33.1922 19.7565V14.4433C33.1922 14.4066 33.185 14.3702 33.1709 14.3363C33.1569 14.3023 33.1363 14.2715 33.1103 14.2455C33.0843 14.2196 33.0535 14.199 33.0196 14.1849C32.9856 14.1709 32.9493 14.1636 32.9126 14.1636H27.2586L28.1876 13.2347C28.24 13.1823 28.2694 13.1112 28.2694 13.037C28.2694 12.9629 28.24 12.8918 28.1876 12.8393L24.4301 9.08185C24.3776 9.02944 24.3065 9 24.2324 9C24.1582 9 24.0871 9.02944 24.0347 9.08185L20.0361 13.0868V11.7658C20.037 11.7282 20.0303 11.6909 20.0164 11.656C20.0026 11.6211 19.9818 11.5894 19.9554 11.5627C19.929 11.536 19.8975 11.5149 19.8628 11.5006C19.8281 11.4864 19.7908 11.4793 19.7533 11.4797H14.4433C14.3691 11.4797 14.298 11.5092 14.2455 11.5616C14.1931 11.6141 14.1636 11.6852 14.1636 11.7593V17.4165L13.2347 16.4876C13.1823 16.4352 13.1112 16.4057 13.037 16.4057C12.9629 16.4057 12.8918 16.4352 12.8393 16.4876L9.08185 20.2483C9.02944 20.3007 9 20.3718 9 20.446C9 20.5201 9.02944 20.5912 9.08185 20.6436L13.0836 24.6583H11.7658C11.6916 24.6583 11.6205 24.6877 11.568 24.7402C11.5156 24.7926 11.4861 24.8638 11.4861 24.9379V30.2351C11.4861 30.3092 11.5156 30.3804 11.568 30.4328C11.6205 30.4852 11.6916 30.5147 11.7658 30.5147H17.4229L16.494 31.4436C16.4416 31.4961 16.4121 31.5672 16.4121 31.6413C16.4121 31.7154 16.4416 31.7865 16.494 31.839L20.2515 35.5868C20.3039 35.6393 20.375 35.6687 20.4492 35.6687C20.5233 35.6687 20.5944 35.6393 20.6468 35.5868L26.2943 29.9458L24.6422 31.5979V32.9126C24.6422 32.9867 24.6717 33.0579 24.7241 33.1103C24.7766 33.1627 24.8477 33.1922 24.9218 33.1922H30.2351C30.3092 33.1922 30.3804 33.1627 30.4328 33.1103C30.4852 33.0579 30.5147 32.9867 30.5147 32.9126V27.2586L31.4468 28.194C31.4993 28.2464 31.5704 28.2758 31.6445 28.2758C31.7187 28.2758 31.7898 28.2464 31.8422 28.194L35.5997 24.4365C35.6264 24.4102 35.6476 24.3788 35.6619 24.3442C35.6763 24.3096 35.6835 24.2724 35.6832 24.2349C35.6829 24.1974 35.6751 24.1604 35.6602 24.126C35.6453 24.0916 35.6236 24.0606 35.5965 24.0347ZM14.7615 26.3168C14.8337 26.3607 14.919 26.3778 15.0026 26.3651C14.9614 26.3759 14.9182 26.3772 14.8764 26.3689C14.8347 26.3605 14.7953 26.3427 14.7615 26.3168ZM30.2351 24.6583H24.9218C24.8477 24.6583 24.7766 24.6877 24.7241 24.7402C24.6717 24.7926 24.6422 24.8638 24.6422 24.9379V27.4933L26.2943 29.5697L22.5368 25.7929C22.4844 25.7405 22.4133 25.7111 22.3392 25.7111C22.265 25.7111 22.1939 25.7405 22.1415 25.7929L20.3351 27.5993L20.0361 30.2351V24.9218C20.032 24.8499 20.0003 24.7824 19.9476 24.7333C19.8949 24.6842 19.8253 24.6573 19.7533 24.6583H17.2043L15.1279 26.3104L18.8854 22.5368C18.9378 22.4844 18.9673 22.4133 18.9673 22.3392C18.9673 22.265 18.9378 22.1939 18.8854 22.1415L17.079 20.3351L14.4433 20.0329H19.7533C19.8274 20.0329 19.8986 20.0035 19.951 19.951C20.0035 19.8986 20.0329 19.8274 20.0329 19.7533V17.2043L18.3808 15.1279L19.0461 15.7933L20.0329 16.7801L22.1415 18.8726C22.1939 18.925 22.265 18.9544 22.3392 18.9544C22.4133 18.9544 22.4844 18.925 22.5368 18.8726L24.3433 17.0661L24.6422 14.4304V19.7565C24.6422 19.7932 24.6494 19.8296 24.6635 19.8635C24.6775 19.8974 24.6981 19.9283 24.7241 19.9542C24.7501 19.9802 24.7809 20.0008 24.8148 20.0148C24.8488 20.0289 24.8851 20.0361 24.9218 20.0361H27.4676L29.544 18.384L27.8918 20.0361L25.7961 22.1415C25.7437 22.1939 25.7143 22.265 25.7143 22.3392C25.7143 22.4133 25.7437 22.4844 25.7961 22.5368L27.5993 24.3368L30.2351 24.6358V24.6583Z" fill="white"/>
</mask>
<g mask="url(#mask0_16_690)">
<path d="M21.759 39.235C30.8889 39.235 38.2901 31.8338 38.2901 22.7039C38.2901 13.5741 30.8889 6.17285 21.759 6.17285C12.6291 6.17285 5.22792 13.5741 5.22792 22.7039C5.22792 31.8338 12.6291 39.235 21.759 39.235Z" fill="url(#paint0_radial_16_690)"/>
<g style="mix-blend-mode:multiply">
<path fill-rule="evenodd" clip-rule="evenodd" d="M23.8997 34.1115L23.0254 33.2147L26.2944 29.9458L23.8997 34.1115Z" fill="#57839E"/>
</g>
<g style="mix-blend-mode:multiply">
<path fill-rule="evenodd" clip-rule="evenodd" d="M31.7715 29.6502L30.5211 29.6309V25.0088L31.7715 29.6502Z" fill="#57839E"/>
</g>
<g style="mix-blend-mode:multiply">
<path fill-rule="evenodd" clip-rule="evenodd" d="M34.1244 20.7851L33.2244 21.6561L29.9555 18.3872L34.1244 20.7851Z" fill="#57839E"/>
</g>
<g style="mix-blend-mode:multiply">
<path fill-rule="evenodd" clip-rule="evenodd" d="M29.6211 12.897L29.6018 14.1473H24.9797L29.6211 12.897Z" fill="#57839E"/>
</g>
<g style="mix-blend-mode:multiply">
<path fill-rule="evenodd" clip-rule="evenodd" d="M20.7401 10.6216L21.6112 11.5216L18.3422 14.7905L20.7401 10.6216Z" fill="#57839E"/>
</g>
<g style="mix-blend-mode:multiply">
<path fill-rule="evenodd" clip-rule="evenodd" d="M12.9326 14.9673L14.1861 14.9866V19.6055L12.9326 14.9673Z" fill="#57839E"/>
</g>
<g style="mix-blend-mode:multiply">
<path fill-rule="evenodd" clip-rule="evenodd" d="M10.4833 23.8066L11.3833 22.9355L14.649 26.2013L10.4833 23.8066Z" fill="#57839E"/>
</g>
<g style="mix-blend-mode:multiply">
<path fill-rule="evenodd" clip-rule="evenodd" d="M14.7615 31.7619L14.7808 30.5083H19.4029L14.7615 31.7619Z" fill="#57839E"/>
</g>
</g>
<defs>
<radialGradient id="paint0_radial_16_690" cx="0" cy="0" r="1" gradientUnits="userSpaceOnUse" gradientTransform="translate(21.759 22.7039) scale(16.5311)">
<stop offset="0.46" stop-color="#19A8EF"/>
<stop offset="0.75" stop-color="#0B6CBA"/>
<stop offset="0.95" stop-color="#004094"/>
</radialGradient>
</defs>
</svg>
