<svg width="44" height="44" viewBox="0 0 44 44" fill="none" xmlns="http://www.w3.org/2000/svg">
<path d="M14.0355 10.2132C7.53843 10.2132 2.24849 15.5032 2.24849 21.9647C2.24849 28.4263 7.53843 33.7517 14.0355 33.7517H29.8698C36.3668 33.7517 41.6568 28.4618 41.6568 21.9647C41.6568 15.4677 36.3668 10.1777 29.8698 10.1777L14.0355 10.2132Z" fill="white"/>
<path d="M29.8698 34H14.0355C7.39645 34 2 28.6391 2 22C2 15.3964 7.39645 10 14 10H29.8343C36.4379 10 41.8343 15.3964 41.8343 22C41.9053 28.6035 36.5089 34 29.8698 34ZM14.0355 10.213C7.53846 10.213 2.24852 15.503 2.24852 21.9645C2.24852 28.426 7.53846 33.7515 14.0355 33.7515H29.8698C36.3669 33.7515 41.6568 28.4615 41.6568 21.9645C41.6568 15.4675 36.3669 10.1775 29.8698 10.1775L14.0355 10.213Z" fill="black"/>
<path d="M32.6391 21.2902L37.929 27.5387C39.0296 25.9766 39.6687 24.0594 39.6687 22.0002C39.6687 19.8345 38.9586 17.8109 37.7515 16.1777L32.6391 21.2902Z" fill="#E31F28"/>
<path d="M17.7276 15.645C21.6684 15.645 24.6152 16.639 24.9347 19.9763L29.0531 15.645H37.2897C35.4791 13.5503 32.8164 12.2012 29.8696 12.2012H14.0353C11.0531 12.2012 8.39034 13.5503 6.61519 15.645H17.7276Z" fill="#E31F28"/>
<path d="M11.2308 19.8345L9.81068 23.7043H15.4912C17.1598 23.7043 17.6923 22.9942 18.0474 21.6806C18.4379 20.367 17.4793 19.8345 16.3432 19.8345H11.2308Z" fill="#E31F28"/>
<path d="M29.0887 28.0712L24.7219 22.5327C23.9053 26.3315 21.2426 28.0712 16.2722 28.0712H6.36683C8.14198 30.3079 10.9112 31.7635 14.0355 31.7635H29.8698C32.9585 31.7635 35.7278 30.3079 37.5029 28.0712H29.0887Z" fill="#E31F28"/>
</svg>
