<svg width="44" height="44" viewBox="0 0 44 44" fill="none" xmlns="http://www.w3.org/2000/svg">
<path d="M38.8067 32.5011C38.7992 33.0985 38.5548 33.6684 38.1274 34.0858C37.6999 34.5032 37.1243 34.7339 36.5269 34.7272H7.47303C6.87563 34.7339 6.30001 34.5032 5.87256 34.0858C5.44511 33.6684 5.20079 33.0985 5.19324 32.5011V12.4196C5.20079 11.8222 5.44511 11.2523 5.87256 10.8349C6.30001 10.4175 6.87563 10.1868 7.47303 10.1935H36.5305C37.1279 10.1868 37.7035 10.4175 38.131 10.8349C38.5584 11.2523 38.8027 11.8222 38.8103 12.4196V32.5011H38.8067Z" fill="white"/>
<path d="M5.38653 12.4195V32.501C5.39407 33.0471 5.61803 33.5679 6.00924 33.949C6.40045 34.3302 6.92692 34.5405 7.47305 34.5338H36.5305C37.0767 34.5405 37.6031 34.3302 37.9943 33.949C38.3855 33.5679 38.6095 33.0471 38.6171 32.501V12.4195C38.6095 11.8734 38.3855 11.3526 37.9943 10.9714C37.6031 10.5903 37.0767 10.38 36.5305 10.3867H7.47305C6.92692 10.38 6.40045 10.5903 6.00924 10.9714C5.61803 11.3526 5.39407 11.8734 5.38653 12.4195ZM7.47305 34.9203C6.82441 34.927 6.19963 34.676 5.73593 34.2224C5.27224 33.7687 5.00755 33.1496 5 32.501V12.4195C5.00755 11.7709 5.27224 11.1517 5.73593 10.6981C6.19963 10.2445 6.82441 9.99345 7.47305 10.0001H36.5305C37.1786 9.9944 37.8024 10.2459 38.2653 10.6994C38.7282 11.1529 38.9924 11.7715 39 12.4195V32.501C38.9924 33.1496 38.7278 33.7687 38.2641 34.2224C37.8004 34.676 37.1756 34.927 36.5269 34.9203H7.47305Z" fill="#004A97"/>
<path d="M8.6291 28.9185C8.6291 29.3909 8.96552 29.4446 9.26615 29.4446C10.5868 29.4446 11.0234 28.4461 11.0234 27.537C11.0418 27.2784 11.0053 27.0187 10.9164 26.7752C10.8274 26.5316 10.6879 26.3096 10.5071 26.1238C10.3263 25.9379 10.1083 25.7923 9.86725 25.6967C9.62625 25.601 9.36774 25.5573 9.10868 25.5686C8.85815 25.5686 8.75079 25.5686 8.63268 25.5936V28.9221L8.6291 28.9185ZM8.02784 26.0553C8.02784 25.5042 7.74152 25.54 7.46594 25.5364V25.3682C7.70573 25.3682 7.9491 25.3682 8.18173 25.3682C8.41436 25.3682 8.78657 25.3682 9.25542 25.3682C10.8409 25.3682 11.7034 26.4418 11.7034 27.5155C11.7034 28.1204 11.3455 29.645 9.19815 29.645C8.88678 29.645 8.59689 29.645 8.31057 29.645C8.02426 29.645 7.76657 29.645 7.49099 29.645V29.4804C7.84889 29.4446 8.03499 29.4303 8.05289 29.0151V26.0482L8.02784 26.0553Z" fill="#231F20"/>
<path d="M12.566 25.9016C12.4862 25.9016 12.4098 25.8699 12.3534 25.8135C12.297 25.7571 12.2653 25.6807 12.2653 25.6009C12.2653 25.5212 12.297 25.4447 12.3534 25.3883C12.4098 25.332 12.4862 25.3003 12.566 25.3003C12.6445 25.3003 12.7199 25.331 12.776 25.3858C12.8322 25.4406 12.8647 25.5153 12.8666 25.5938C12.8666 25.6738 12.835 25.7507 12.7788 25.8076C12.7225 25.8646 12.646 25.897 12.566 25.898M11.911 29.4769H12.0255C12.1973 29.4769 12.319 29.4769 12.319 29.2729V27.6194C12.3281 27.5212 12.3006 27.4231 12.2418 27.3438C12.1831 27.2646 12.0971 27.2098 12.0005 27.19V27.0933C12.2868 27.0074 12.6304 26.8929 12.6554 26.8715C12.6888 26.8508 12.7271 26.8396 12.7664 26.8392C12.795 26.8392 12.8093 26.875 12.8093 26.9251V29.2729C12.8093 29.4769 12.9453 29.4769 13.1171 29.4769H13.2316V29.6344C13.0241 29.6344 12.8093 29.6344 12.591 29.6344C12.3727 29.6344 12.1508 29.6344 11.9253 29.6344V29.4805L11.911 29.4769Z" fill="#231F20"/>
<path d="M13.8006 27.6552C13.8006 27.4297 13.7326 27.3689 13.4427 27.2508V27.1362C13.7172 27.0525 13.9872 26.9545 14.2516 26.8428C14.2695 26.8428 14.2873 26.8428 14.2873 26.9036V27.3009C14.584 27.0325 14.962 26.8712 15.361 26.8428C15.88 26.8428 16.0768 27.2221 16.0768 27.6981V29.2765C16.0768 29.4805 16.2128 29.4805 16.3846 29.4805H16.4526V29.6379C16.2379 29.6379 16.0231 29.6379 15.8048 29.6379C15.5865 29.6379 15.3646 29.6379 15.1427 29.6379V29.4805H15.2537C15.4255 29.4805 15.5471 29.4805 15.5471 29.2765V27.6946C15.5522 27.6213 15.5408 27.5479 15.5137 27.4796C15.4867 27.4114 15.4446 27.3501 15.3907 27.3003C15.3367 27.2505 15.2723 27.2134 15.2021 27.1918C15.132 27.1703 15.0578 27.1647 14.9852 27.1756C14.7265 27.2145 14.481 27.3152 14.2695 27.4691V29.28C14.2695 29.484 14.4055 29.484 14.5772 29.484H14.6882V29.6415C14.4735 29.6415 14.2587 29.6415 14.0404 29.6415C13.8221 29.6415 13.6002 29.6415 13.3783 29.6415V29.4805H13.4892C13.661 29.4805 13.7827 29.4805 13.7827 29.2765V27.6552H13.8006Z" fill="#231F20"/>
<path d="M18.0166 27.7622C18.0387 27.7676 18.0618 27.7676 18.0838 27.7621C18.1059 27.7566 18.1263 27.7458 18.1432 27.7307C18.1601 27.7155 18.1731 27.6964 18.181 27.6751C18.1889 27.6538 18.1914 27.6308 18.1884 27.6083C18.1945 27.5354 18.1851 27.4621 18.1609 27.393C18.1366 27.324 18.098 27.2609 18.0477 27.2079C17.9973 27.1548 17.9363 27.113 17.8687 27.0852C17.801 27.0574 17.7283 27.0441 17.6552 27.0464C17.467 27.0518 17.2881 27.129 17.155 27.2621C17.0219 27.3951 16.9448 27.5741 16.9394 27.7622H18.0131H18.0166ZM16.943 27.959C16.9287 28.0779 16.9287 28.1981 16.943 28.3169C16.9787 28.8967 17.3545 29.3906 17.8413 29.3906C17.9995 29.3819 18.1543 29.3413 18.2964 29.2712C18.4384 29.2011 18.5649 29.1029 18.668 28.9826L18.7539 29.0685C18.635 29.2663 18.4701 29.4324 18.2732 29.5526C18.0762 29.6729 17.8532 29.7438 17.623 29.7593C16.6495 29.7593 16.4526 28.818 16.4526 28.4243C16.4526 27.2254 17.2615 26.871 17.6874 26.871C17.819 26.8628 17.951 26.8814 18.0753 26.9257C18.1995 26.97 18.3135 27.0391 18.4102 27.1288C18.507 27.2185 18.5844 27.327 18.638 27.4475C18.6915 27.5681 18.72 27.6983 18.7217 27.8302C18.7246 27.8671 18.7246 27.9042 18.7217 27.9412L18.668 27.9769H16.9501L16.943 27.959Z" fill="#231F20"/>
<path d="M18.8541 29.4804H19.0188C19.1905 29.4804 19.3122 29.4804 19.3122 29.2764V27.5585C19.2915 27.4867 19.2503 27.4225 19.1938 27.3735C19.1373 27.3246 19.0678 27.2932 18.9937 27.283V27.1899C19.4411 27.0002 19.6844 26.832 19.7417 26.832C19.799 26.832 19.7954 26.8499 19.7954 26.9107V27.4619C19.9493 27.2221 20.207 26.832 20.5792 26.832C20.6244 26.8286 20.6697 26.8344 20.7126 26.8492C20.7554 26.8639 20.7948 26.8872 20.8283 26.9177C20.8618 26.9482 20.8887 26.9852 20.9074 27.0265C20.9261 27.0677 20.9362 27.1124 20.9371 27.1577C20.939 27.197 20.9331 27.2363 20.9197 27.2733C20.9063 27.3103 20.8857 27.3443 20.859 27.3733C20.8324 27.4022 20.8003 27.4256 20.7645 27.4421C20.7288 27.4585 20.6901 27.4677 20.6508 27.4691C20.4611 27.4691 20.4611 27.3223 20.2463 27.3223C20.1233 27.3394 20.0105 27.4002 19.9284 27.4934C19.8463 27.5867 19.8004 27.7063 19.799 27.8305V29.2621C19.799 29.4661 19.9207 29.4661 20.0924 29.4661H20.4503V29.6236C20.1139 29.6236 19.8562 29.6236 19.595 29.6236C19.3337 29.6236 19.0868 29.6236 18.8792 29.6236V29.4804H18.8541Z" fill="#231F20"/>
<path d="M21.209 28.7896C21.2196 28.9902 21.3047 29.1796 21.4478 29.3207C21.5908 29.4617 21.7813 29.5442 21.9821 29.552C22.0438 29.5607 22.1067 29.556 22.1665 29.5382C22.2263 29.5204 22.2815 29.4899 22.3284 29.4488C22.3753 29.4077 22.4128 29.3569 22.4383 29.3C22.4637 29.243 22.4766 29.1813 22.476 29.1189C22.476 28.4031 21.141 28.6286 21.141 27.6444C21.1479 27.5292 21.1784 27.4166 21.2307 27.3137C21.2829 27.2108 21.3558 27.1198 21.4448 27.0463C21.5338 26.9727 21.6369 26.9183 21.7478 26.8864C21.8587 26.8544 21.975 26.8457 22.0894 26.8606C22.3326 26.8667 22.5712 26.9278 22.7873 27.0395L22.8303 27.6623H22.6907C22.6894 27.5775 22.6709 27.4939 22.6364 27.4165C22.6018 27.3391 22.5519 27.2695 22.4897 27.2119C22.4274 27.1544 22.3542 27.1101 22.2743 27.0817C22.1944 27.0533 22.1096 27.0414 22.025 27.0467C21.9669 27.0403 21.9081 27.0458 21.8521 27.0629C21.7962 27.0801 21.7444 27.1084 21.6998 27.1463C21.6553 27.1841 21.6189 27.2307 21.593 27.2831C21.567 27.3356 21.5521 27.3927 21.549 27.4511C21.549 28.1669 22.9806 27.945 22.9806 28.9077C22.9806 29.3122 22.6549 29.7416 21.9284 29.7416C21.6671 29.7339 21.4116 29.6626 21.184 29.5341L21.1052 28.8362L21.209 28.7896Z" fill="#231F20"/>
<path d="M28.4922 26.4741H28.3383C28.2202 25.7583 27.7155 25.472 27.0284 25.472C26.3412 25.472 25.3033 25.9444 25.3033 27.4047C25.3033 28.6394 26.1837 29.527 27.125 29.527C27.4251 29.5264 27.715 29.4174 27.9412 29.2202C28.1674 29.0229 28.3148 28.7506 28.3562 28.4533L28.4957 28.4891L28.3562 29.3838C27.9321 29.5835 27.4718 29.6943 27.0033 29.7095C25.5717 29.7095 24.6663 28.7861 24.6663 27.4082C24.6932 26.8174 24.9516 26.2609 25.3856 25.8591C25.8196 25.4573 26.3943 25.2424 26.9854 25.2609C27.4775 25.2887 27.9613 25.3988 28.417 25.5865L28.4922 26.4741Z" fill="#231F20"/>
<path d="M28.7105 29.4802H28.825C28.9968 29.4802 29.1185 29.4802 29.1185 29.2762V25.869C29.1185 25.4718 29.0254 25.4574 28.7928 25.393V25.2928C29.0102 25.2232 29.2209 25.1346 29.4227 25.028C29.4641 25.0003 29.5085 24.9775 29.5551 24.96C29.5909 24.96 29.6052 24.9958 29.6052 25.0459V29.2762C29.6052 29.4802 29.7412 29.4802 29.9094 29.4802H30.0132V29.6376C29.8056 29.6376 29.5909 29.6376 29.3726 29.6376C29.1543 29.6376 28.9324 29.6376 28.7069 29.6376V29.4802H28.7105Z" fill="#231F20"/>
<path d="M32.6402 29.3012C32.6402 29.4122 32.7082 29.4158 32.812 29.4158H33.0589V29.5518C32.7612 29.5935 32.467 29.6569 32.1785 29.7414L32.1463 29.7235V29.2153C31.8648 29.5145 31.4821 29.6982 31.0726 29.7307C30.9799 29.7331 30.8877 29.7158 30.8021 29.6801C30.7166 29.6444 30.6395 29.591 30.576 29.5234C30.5124 29.4559 30.4639 29.3756 30.4335 29.288C30.4032 29.2004 30.3917 29.1073 30.3998 29.0149V27.4366C30.3998 27.2755 30.3747 27.1252 30.0419 27.0787V26.9785C30.2638 26.9785 30.7577 26.9355 30.8292 26.9355C30.9008 26.9355 30.8972 26.9785 30.8972 27.1145V28.6928C30.8972 28.8753 30.8972 29.4086 31.4305 29.4086C31.7083 29.3682 31.967 29.2432 32.1713 29.0507V27.4044C32.1713 27.2827 31.8779 27.2147 31.6596 27.1539V27.0214C32.2107 26.9857 32.5543 26.9355 32.6151 26.9355C32.676 26.9355 32.6652 26.9785 32.6652 27.0465V29.3012H32.6402Z" fill="#231F20"/>
<path d="M33.8571 28.9469C33.8658 29.1104 33.9352 29.2649 34.0517 29.38C34.1682 29.4951 34.3234 29.5628 34.487 29.5696C35.1419 29.5696 35.4175 28.9254 35.4175 28.3814C35.4175 27.7193 34.9165 27.1718 34.4405 27.1718C34.2182 27.1949 34.0114 27.2964 33.8571 27.4581V28.9433V28.9469ZM33.8571 27.2827C34.1034 27.0378 34.4248 26.8828 34.7697 26.8425C34.9292 26.8493 35.0856 26.888 35.2298 26.9563C35.374 27.0247 35.503 27.1213 35.6091 27.2405C35.7153 27.3597 35.7964 27.4989 35.8477 27.65C35.899 27.8011 35.9195 27.961 35.9078 28.1202C35.9234 28.5261 35.7786 28.922 35.5047 29.222C35.2308 29.522 34.8498 29.7022 34.444 29.7235C34.1467 29.7238 33.8539 29.65 33.5923 29.5088L33.4097 29.6484L33.2737 29.5911C33.3292 29.2359 33.3579 28.877 33.3596 28.5174V25.869C33.3596 25.4718 33.2666 25.4574 33.0339 25.393V25.2928C33.2514 25.2234 33.4622 25.1348 33.6638 25.028C33.7064 25.0001 33.752 24.9773 33.7998 24.96C33.8356 24.96 33.8499 24.9958 33.8499 25.0459V27.2791L33.8571 27.2827Z" fill="#231F20"/>
<path d="M7.45874 33.1952H7.50527C7.62337 33.1952 7.75221 33.1952 7.75221 33.0055V31.2626C7.75221 31.0908 7.62695 31.0729 7.50527 31.0729H7.45874V30.9834C7.58758 30.9834 7.788 30.9834 7.95264 30.9834C8.11727 30.9834 8.31053 30.9834 8.47516 30.9834V31.0836H8.42864C8.31053 31.0836 8.18169 31.0836 8.18169 31.2733V33.0162C8.18169 33.188 8.30695 33.2059 8.42864 33.2059H8.47516V33.3061C8.31411 33.3061 8.11727 33.3061 7.94906 33.3061C7.78085 33.3061 7.59116 33.3061 7.45874 33.3061V33.1952Z" fill="#231F20"/>
<path d="M8.46088 33.2812V33.2097H8.42867C8.39768 33.2172 8.36538 33.2177 8.3342 33.211C8.30301 33.2043 8.27375 33.1906 8.24861 33.171C8.22346 33.1513 8.2031 33.1263 8.18903 33.0976C8.17497 33.069 8.16757 33.0376 8.1674 33.0057V31.2627C8.16686 31.2306 8.17379 31.1988 8.18764 31.1698C8.20148 31.1408 8.22188 31.1154 8.2472 31.0956C8.27253 31.0758 8.3021 31.0622 8.33359 31.0558C8.36508 31.0494 8.39763 31.0504 8.42867 31.0587H8.46088V30.9835C8.30698 30.9835 8.10298 30.9835 7.95267 30.9835C7.80235 30.9835 7.59477 30.9835 7.47309 30.9835V31.0551H7.5053C7.53634 31.0468 7.56889 31.0458 7.60037 31.0522C7.63186 31.0586 7.66144 31.0722 7.68676 31.092C7.71209 31.1118 7.73248 31.1372 7.74633 31.1662C7.76018 31.1952 7.7671 31.227 7.76656 31.2591V33.0021C7.7671 33.0342 7.76018 33.066 7.74633 33.095C7.73248 33.124 7.71209 33.1494 7.68676 33.1692C7.66144 33.189 7.63186 33.2026 7.60037 33.209C7.56889 33.2154 7.53634 33.2144 7.5053 33.2061H7.47667V33.2777C7.60551 33.2777 7.79519 33.2777 7.95267 33.2777C8.11014 33.2777 8.31056 33.2777 8.46446 33.2777M8.46446 33.3063C8.3034 33.3063 8.10656 33.3063 7.93835 33.3063C7.77014 33.3063 7.58046 33.3063 7.44804 33.3063V33.181H7.5053C7.62698 33.181 7.73435 33.181 7.73793 33.0057V31.2627C7.73793 31.0981 7.62698 31.0909 7.5053 31.0873H7.44446V30.9585C7.57688 30.9585 7.77372 30.9585 7.93835 30.9585C8.10298 30.9585 8.29625 30.9585 8.46088 30.9585V31.0873H8.42867C8.30698 31.0873 8.19604 31.0873 8.19604 31.2627V33.0057C8.19604 33.1667 8.30698 33.1774 8.42867 33.181H8.48951V33.3099L8.46446 33.3063Z" fill="#231F20"/>
<path d="M10.7621 32.6405V31.3842C10.7681 31.3437 10.7649 31.3023 10.7528 31.2631C10.7407 31.2239 10.72 31.1879 10.6922 31.1577C10.6645 31.1275 10.6303 31.1039 10.5922 31.0886C10.5542 31.0733 10.5132 31.0667 10.4723 31.0693H10.4007V30.9834C10.5581 30.9834 10.712 30.9834 10.8659 30.9834C11.0198 30.9834 11.1379 30.9834 11.2739 30.9834V31.0836H11.2346C11.095 31.0836 10.9375 31.1087 10.9375 31.5059V33.0198C10.9349 33.1323 10.9409 33.2447 10.9554 33.3562H10.8301L9.11583 31.4343V32.8087C9.11583 33.0986 9.17309 33.1988 9.4272 33.1988H9.48446V33.299C9.34131 33.299 9.19815 33.299 9.05499 33.299C8.91183 33.299 8.75078 33.299 8.60046 33.299V33.1952H8.65057C8.87962 33.1952 8.9512 33.0377 8.9512 32.7729V31.3735C8.95169 31.3336 8.94413 31.294 8.92897 31.257C8.91381 31.2201 8.89137 31.1866 8.86297 31.1586C8.83458 31.1305 8.80081 31.1084 8.76371 31.0937C8.7266 31.079 8.6869 31.0719 8.64699 31.0729H8.60046V30.9834C8.72573 30.9834 8.85815 30.9834 8.98341 30.9834C9.10867 30.9834 9.18025 30.9834 9.28046 30.9834L10.7621 32.6405Z" fill="#231F20"/>
<path d="M10.8194 33.3242H10.9411C10.9333 33.217 10.9333 33.1093 10.9411 33.0021V31.4953C10.9411 31.0945 11.1093 31.0587 11.2525 31.0587H11.2882V30.9835C11.1558 30.9835 11.027 30.9835 10.8946 30.9835C10.7621 30.9835 10.5939 30.9835 10.4436 30.9835V31.0551H10.5009C10.5437 31.0526 10.5865 31.0596 10.6263 31.0756C10.6661 31.0917 10.7018 31.1163 10.7309 31.1478C10.76 31.1793 10.7817 31.2168 10.7946 31.2578C10.8074 31.2987 10.811 31.3419 10.8051 31.3844V32.6442L9.29477 30.9835C9.19456 30.9835 9.09793 30.9835 8.99772 30.9835C8.89751 30.9835 8.75077 30.9835 8.63982 30.9835V31.0551H8.66845C8.71011 31.0547 8.75145 31.0625 8.79008 31.0781C8.8287 31.0937 8.86385 31.1168 8.89347 31.1461C8.9231 31.1754 8.94662 31.2103 8.96267 31.2487C8.97872 31.2872 8.98698 31.3284 8.98698 31.3701V32.773C8.98698 33.0379 8.91182 33.2097 8.67203 33.2097H8.61835V33.2812C8.76151 33.2812 8.91182 33.2812 9.05498 33.2812C9.19814 33.2812 9.33414 33.2812 9.47014 33.2812V33.2097H9.42719C9.16593 33.2097 9.10151 33.0951 9.10151 32.8052V31.3987L10.8194 33.3242ZM10.9447 33.3528H10.8194L9.13014 31.4703V32.8088C9.13014 33.0987 9.17666 33.1667 9.42719 33.1667H9.49877V33.3099C9.35561 33.3099 9.21245 33.3099 9.06929 33.3099C8.92614 33.3099 8.76866 33.3099 8.61477 33.3099V33.181H8.65056C8.86887 33.181 8.9333 33.0379 8.93687 32.773V31.3737C8.93688 31.3358 8.92935 31.2982 8.91474 31.2633C8.90013 31.2283 8.87872 31.1966 8.85175 31.1699C8.82479 31.1433 8.7928 31.1223 8.75765 31.1081C8.7225 31.0939 8.68488 31.0869 8.64698 31.0873H8.57898V30.9585C8.70782 30.9585 8.83666 30.9585 8.96193 30.9585C9.08719 30.9585 9.15877 30.9585 9.26972 30.9585L10.7335 32.6048V31.3844C10.7389 31.346 10.7357 31.3068 10.724 31.2698C10.7124 31.2328 10.6927 31.1988 10.6663 31.1704C10.6399 31.1419 10.6075 31.1197 10.5715 31.1053C10.5354 31.091 10.4966 31.0848 10.4579 31.0873H10.3935V30.9585C10.551 30.9585 10.7049 30.9585 10.8588 30.9585C11.0127 30.9585 11.1308 30.9585 11.2668 30.9585V31.0873H11.2346C11.0986 31.0873 10.9554 31.0873 10.9518 31.4953V33.0092C10.9506 33.1206 10.9578 33.2318 10.9733 33.3421L10.9447 33.3528Z" fill="#231F20"/>
<path d="M11.7821 31.1411C11.5315 31.1411 11.5208 31.202 11.4707 31.4454H11.3705C11.3705 31.3523 11.3991 31.2592 11.4099 31.1626C11.4275 31.0681 11.4383 30.9724 11.4421 30.8763H11.5208C11.5354 30.9151 11.5643 30.9468 11.6016 30.9648C11.639 30.9828 11.6818 30.9857 11.7212 30.9729H13.4391C13.5286 30.9729 13.6109 30.9729 13.6181 30.8691H13.6968C13.6968 30.9586 13.6717 31.0481 13.661 31.1376C13.6503 31.227 13.661 31.3165 13.661 31.406L13.5608 31.4418C13.5686 31.4043 13.5682 31.3655 13.5596 31.3282C13.5509 31.2908 13.5343 31.2558 13.5108 31.2255C13.4873 31.1952 13.4576 31.1704 13.4236 31.1528C13.3896 31.1351 13.3521 31.125 13.3139 31.1232H12.752V32.8948C12.7418 32.9334 12.7417 32.974 12.7518 33.0126C12.7618 33.0513 12.7816 33.0866 12.8093 33.1154C12.837 33.1442 12.8716 33.1653 12.9098 33.1768C12.948 33.1883 12.9886 33.1898 13.0275 33.1811H13.092V33.2814C12.9631 33.2814 12.7341 33.2814 12.548 33.2814C12.3619 33.2814 12.1149 33.2814 11.9861 33.2814V33.1955H12.0505C12.233 33.1955 12.3261 33.1955 12.3261 32.9163V31.1268H11.7821V31.1411Z" fill="#231F20"/>
<path d="M13.092 33.31C12.9596 33.31 12.7341 33.31 12.548 33.31C12.3619 33.31 12.1149 33.31 11.9861 33.31V33.1811H12.0505C12.233 33.1811 12.3082 33.1811 12.3118 32.9163V31.1555H11.7821V31.1233H12.344V32.9127C12.344 33.1811 12.2366 33.2062 12.0541 33.2062H12.0004V33.2778C12.1328 33.2778 12.3583 33.2778 12.548 33.2778C12.7377 33.2778 12.9453 33.2778 13.0741 33.2778V33.2062H13.0311C12.9905 33.2137 12.9486 33.211 12.9092 33.1983C12.8698 33.1857 12.8342 33.1635 12.8055 33.1337C12.7768 33.1039 12.7559 33.0675 12.7447 33.0277C12.7335 32.9879 12.7323 32.9459 12.7413 32.9056V31.1161H13.3031C13.3419 31.1171 13.3799 31.1264 13.4148 31.1434C13.4496 31.1603 13.4804 31.1845 13.5052 31.2143C13.5299 31.2442 13.548 31.2789 13.5582 31.3163C13.5684 31.3537 13.5705 31.3928 13.5644 31.431L13.636 31.406C13.636 31.3201 13.636 31.2306 13.636 31.1447C13.636 31.0588 13.6575 30.9729 13.6718 30.887H13.6217C13.6156 30.9063 13.6057 30.9242 13.5927 30.9397C13.5797 30.9551 13.5638 30.9679 13.5458 30.9772C13.5279 30.9865 13.5083 30.9922 13.4881 30.9939C13.468 30.9956 13.4477 30.9934 13.4284 30.9873H11.6962C11.6578 30.9964 11.6173 30.9917 11.582 30.9741C11.5467 30.9564 11.5187 30.9269 11.5029 30.8906H11.4421C11.4421 30.9804 11.4362 31.0701 11.4242 31.159C11.4242 31.2521 11.3991 31.338 11.3884 31.4275H11.46C11.5029 31.1948 11.5316 31.1197 11.7821 31.1233V31.1519C11.5351 31.1519 11.5423 31.1984 11.485 31.4454H11.3562C11.3562 31.3523 11.3848 31.2593 11.3956 31.1626C11.4097 31.0702 11.4169 30.9769 11.417 30.8835H11.5244C11.5459 30.9658 11.6067 30.9694 11.6926 30.9694H13.4284C13.5215 30.9694 13.5895 30.9694 13.593 30.8799H13.6861C13.6861 30.9694 13.661 31.0588 13.6503 31.1483C13.6396 31.2378 13.6503 31.3273 13.6503 31.4167L13.5322 31.4597C13.54 31.4239 13.54 31.3868 13.5321 31.351C13.5243 31.3152 13.5088 31.2815 13.4867 31.2523C13.4646 31.2231 13.4364 31.1989 13.4041 31.1816C13.3718 31.1643 13.3361 31.1541 13.2996 31.1519H12.7699V32.9091C12.7699 33.1597 12.8737 33.1776 13.0311 33.1811H13.1099V33.31H13.092Z" fill="#231F20"/>
<path d="M13.7935 33.1952H13.84C13.9581 33.1952 14.0869 33.1952 14.0869 33.0055V31.2626C14.0869 31.0908 13.9617 31.0729 13.84 31.0729H13.7935V30.9834C13.9975 30.9834 14.3446 30.9834 14.6238 30.9834C14.9029 30.9834 15.2501 30.9834 15.4756 30.9834C15.4756 31.1266 15.4756 31.3413 15.4756 31.4916L15.3789 31.5095C15.3843 31.4557 15.3774 31.4014 15.3587 31.3506C15.3401 31.2999 15.3102 31.254 15.2713 31.2164C15.2323 31.1789 15.1854 31.1507 15.134 31.1339C15.0826 31.117 15.0281 31.1121 14.9745 31.1194H14.5164V31.9927H14.9137C14.9514 31.9949 14.9891 31.9885 15.0241 31.974C15.059 31.9595 15.0902 31.9374 15.1153 31.9091C15.1404 31.8809 15.1589 31.8474 15.1692 31.811C15.1795 31.7746 15.1815 31.7364 15.1749 31.6992H15.2716C15.2716 31.8304 15.2716 31.9604 15.2716 32.0893C15.2716 32.2181 15.2716 32.3446 15.2716 32.4687L15.1714 32.4901C15.1499 32.2897 15.1427 32.1609 14.9101 32.1609H14.5164V32.9375C14.5164 33.1558 14.7097 33.1558 14.9208 33.1558C15.3217 33.1558 15.497 33.1308 15.5972 32.7514L15.6903 32.7729C15.6474 32.9482 15.608 33.1308 15.5758 33.3026C15.361 33.3026 14.9781 33.3026 14.681 33.3026C14.384 33.3026 13.9831 33.3026 13.7935 33.3026V33.1952Z" fill="#231F20"/>
<path d="M15.565 33.2812C15.5937 33.113 15.633 32.9448 15.6724 32.7766H15.608C15.5078 33.1345 15.3145 33.181 14.9208 33.181C14.7097 33.181 14.5021 33.181 14.4985 32.9484V32.1431H14.9137C15.1463 32.1431 15.1713 32.2791 15.1857 32.4688H15.2572C15.2572 32.3471 15.2572 32.2219 15.2572 32.1109C15.2572 32 15.2572 31.8604 15.2572 31.753H15.1857C15.1905 31.7912 15.1868 31.8299 15.1749 31.8665C15.163 31.9031 15.1432 31.9366 15.1169 31.9646C15.0906 31.9926 15.0584 32.0145 15.0227 32.0287C14.9869 32.0428 14.9485 32.0489 14.9101 32.0465H14.4985V31.1052H14.9745C15.0278 31.098 15.082 31.1029 15.1331 31.1195C15.1842 31.1361 15.2309 31.164 15.2697 31.2012C15.3086 31.2383 15.3386 31.2837 15.3575 31.334C15.3764 31.3843 15.3837 31.4382 15.3789 31.4918L15.4505 31.4739C15.4505 31.3808 15.4505 31.2591 15.4505 31.1482C15.4505 31.0909 15.4505 31.0372 15.4505 30.9907C15.225 30.9907 14.885 30.9907 14.613 30.9907C14.341 30.9907 14.001 30.9907 13.8006 30.9907V31.0623H13.8328C13.8639 31.054 13.8964 31.053 13.9279 31.0594C13.9594 31.0658 13.989 31.0794 14.0143 31.0992C14.0396 31.119 14.06 31.1443 14.0738 31.1733C14.0877 31.2023 14.0946 31.2342 14.0941 31.2663V33.0092C14.0939 33.0411 14.0865 33.0726 14.0725 33.1012C14.0584 33.1298 14.038 33.1549 14.0129 33.1745C13.9877 33.1942 13.9585 33.2078 13.9273 33.2146C13.8961 33.2213 13.8638 33.2208 13.8328 33.2132H13.8113V33.2848C14.0046 33.2848 14.3911 33.2848 14.681 33.2848C14.9709 33.2848 15.3503 33.2848 15.565 33.2848M15.565 33.3134C15.3503 33.3134 14.9673 33.3134 14.6703 33.3134C14.3732 33.3134 13.976 33.3134 13.7827 33.3134V33.181H13.8436C13.9652 33.181 14.0726 33.181 14.0762 33.0057V31.2627C14.0762 31.1017 13.9652 31.0909 13.8436 31.0873H13.7827V30.9585C13.9867 30.9585 14.3339 30.9585 14.613 30.9585C14.8922 30.9585 15.2393 30.9585 15.4648 30.9585C15.4648 31.0086 15.4648 31.0659 15.4648 31.1303C15.4648 31.1947 15.4648 31.3701 15.4648 31.4667L15.3789 31.5275C15.3875 31.475 15.3832 31.4211 15.3664 31.3706C15.3496 31.32 15.3208 31.2743 15.2824 31.2374C15.244 31.2004 15.1973 31.1733 15.1461 31.1584C15.095 31.1435 15.041 31.1412 14.9888 31.1518H14.5271V31.9964H14.9101C15.1033 31.9964 15.1356 31.8962 15.1606 31.7172H15.2895C15.2895 31.8461 15.2895 31.9785 15.2895 32.1073C15.2895 32.2362 15.2895 32.3579 15.2895 32.4867L15.1749 32.5082C15.1535 32.3042 15.1499 32.1932 14.928 32.1897H14.5271V32.952C14.5271 33.156 14.7025 33.1524 14.9208 33.156C15.3217 33.156 15.4827 33.1345 15.5829 32.7623L15.7046 32.773C15.6617 32.9484 15.6223 33.1309 15.5901 33.3027L15.565 33.3134Z" fill="#231F20"/>
<path d="M16.5636 32.0965H16.7247C16.7954 32.1095 16.8682 32.1051 16.9368 32.0835C17.0054 32.0619 17.0677 32.0239 17.1182 31.9727C17.1687 31.9215 17.2059 31.8587 17.2265 31.7898C17.2471 31.7209 17.2506 31.648 17.2365 31.5775C17.2413 31.5124 17.232 31.4469 17.2092 31.3857C17.1865 31.3245 17.1508 31.2689 17.1046 31.2227C17.0584 31.1765 17.0028 31.1408 16.9416 31.118C16.8803 31.0953 16.8149 31.086 16.7498 31.0908C16.6866 31.0871 16.6232 31.0871 16.5601 31.0908V32.0821L16.5636 32.0965ZM16.1378 31.3413C16.1459 31.3079 16.1457 31.273 16.137 31.2397C16.1284 31.2064 16.1116 31.1757 16.0882 31.1505C16.0648 31.1253 16.0354 31.1064 16.0029 31.0953C15.9703 31.0842 15.9355 31.0815 15.9015 31.0872H15.8407V30.9834C15.9481 30.9834 16.1521 30.9834 16.3561 30.9834C16.5601 30.9834 16.714 30.9834 16.8929 30.9834C17.3116 30.9834 17.6839 31.0979 17.6839 31.5703C17.6796 31.7046 17.6324 31.834 17.5494 31.9396C17.4663 32.0452 17.3517 32.1215 17.2222 32.1573L17.7912 33.0091C17.8207 33.0693 17.8666 33.12 17.9235 33.1555C17.9805 33.1909 18.0463 33.2096 18.1133 33.2095V33.3097C18.0024 33.3097 17.895 33.3097 17.7876 33.3097C17.6803 33.3097 17.5765 33.3097 17.4763 33.3097C17.2203 32.9683 16.9883 32.6096 16.782 32.236H16.5636V32.9518C16.5539 32.9891 16.5542 33.0284 16.5646 33.0656C16.5749 33.1027 16.5949 33.1365 16.6226 33.1634C16.6502 33.1903 16.6845 33.2094 16.7219 33.2188C16.7594 33.2281 16.7986 33.2274 16.8356 33.2167H16.8965V33.3169C16.7068 33.3169 16.5135 33.3169 16.3239 33.3169C16.1342 33.3169 16.0089 33.3169 15.8407 33.3169V33.1952H15.9015C15.929 33.2003 15.9571 33.1996 15.9843 33.1932C16.0114 33.1868 16.0369 33.1747 16.0592 33.1579C16.0814 33.141 16.0999 33.1197 16.1134 33.0954C16.1269 33.071 16.1352 33.044 16.1378 33.0162V31.3413Z" fill="#231F20"/>
<path d="M16.7282 32.0823C16.7969 32.0946 16.8675 32.09 16.934 32.0689C17.0006 32.0478 17.0609 32.0108 17.1099 31.9611C17.1589 31.9114 17.1951 31.8505 17.2152 31.7837C17.2354 31.7169 17.239 31.6462 17.2257 31.5777C17.2305 31.5144 17.2216 31.4508 17.1995 31.3913C17.1775 31.3318 17.1429 31.2778 17.098 31.2329C17.0531 31.188 16.9991 31.1534 16.9396 31.1313C16.8801 31.1093 16.8165 31.1004 16.7532 31.1052C16.6949 31.1013 16.6363 31.1013 16.5779 31.1052V32.068H16.7246L16.7282 32.0823ZM16.5671 32.1109V31.0909C16.6303 31.0871 16.6936 31.0871 16.7568 31.0909C16.8238 31.0861 16.8911 31.0958 16.9541 31.1193C17.017 31.1428 17.0742 31.1795 17.1217 31.227C17.1693 31.2746 17.206 31.3317 17.2295 31.3947C17.253 31.4577 17.2627 31.5249 17.2579 31.592C17.2709 31.6642 17.2664 31.7386 17.2447 31.8087C17.223 31.8789 17.1847 31.9428 17.1332 31.9951C17.0816 32.0474 17.0182 32.0865 16.9483 32.1091C16.8785 32.1318 16.8042 32.1373 16.7318 32.1252H16.5636L16.5671 32.1109ZM16.5671 32.204H16.7962C17.0005 32.5755 17.2276 32.9341 17.4762 33.2777C17.5764 33.2777 17.6838 33.2777 17.7876 33.2777C17.8913 33.2777 17.9951 33.2777 18.0989 33.2777V33.2061C18.0326 33.2029 17.9683 33.1824 17.9124 33.1466C17.8565 33.1108 17.811 33.061 17.7804 33.0021L17.2006 32.136C17.3279 32.1021 17.4409 32.0281 17.5228 31.925C17.6047 31.8218 17.6511 31.695 17.6551 31.5633C17.6551 31.1017 17.2972 30.9943 16.8785 30.9907C16.7031 30.9907 16.5421 30.9907 16.3417 30.9907C16.1412 30.9907 15.948 30.9907 15.8406 30.9907V31.0623H15.8871C15.9229 31.0567 15.9595 31.06 15.9937 31.0718C16.028 31.0836 16.0588 31.1037 16.0835 31.1301C16.1082 31.1566 16.1261 31.1887 16.1355 31.2237C16.1449 31.2587 16.1457 31.2954 16.1377 31.3307V33.0235C16.1346 33.053 16.1256 33.0815 16.1112 33.1073C16.0968 33.1332 16.0773 33.1558 16.0539 33.1739C16.0304 33.192 16.0036 33.2051 15.9749 33.2125C15.9462 33.2199 15.9164 33.2213 15.8871 33.2168H15.8549V33.2884C16.016 33.2884 16.1663 33.2884 16.3238 33.2884C16.4812 33.2884 16.6817 33.2884 16.8821 33.2884V33.2168H16.8356C16.7964 33.2264 16.7554 33.2258 16.7165 33.2151C16.6776 33.2043 16.6421 33.1838 16.6134 33.1555C16.5847 33.1271 16.5637 33.0919 16.5525 33.0531C16.5412 33.0144 16.5401 32.9734 16.5492 32.9341V32.2183L16.5671 32.204ZM18.1168 33.3099C18.0059 33.3099 17.8985 33.3099 17.7911 33.3099C17.6838 33.3099 17.5836 33.3099 17.469 33.3099C17.2145 32.9682 16.9837 32.6095 16.7783 32.2362H16.5779V32.9341C16.5779 33.1846 16.6817 33.181 16.8356 33.1846H16.9107V33.3099C16.721 33.3099 16.5278 33.3099 16.3381 33.3099C16.1484 33.3099 16.0231 33.3099 15.8549 33.3099V33.181H15.9301C15.9556 33.1856 15.9817 33.1849 16.0069 33.179C16.0321 33.1731 16.0558 33.1621 16.0766 33.1467C16.0974 33.1312 16.1148 33.1117 16.1278 33.0893C16.1407 33.0669 16.149 33.0421 16.152 33.0164V31.3414C16.152 31.1052 16.0339 31.1052 15.9301 31.1017H15.8263V30.9585C15.9337 30.9585 16.1412 30.9585 16.3417 30.9585C16.5421 30.9585 16.6996 30.9585 16.8785 30.9585C17.2972 30.9585 17.6838 31.0766 17.6873 31.5598C17.6839 31.6941 17.6381 31.8238 17.5565 31.9305C17.4748 32.0373 17.3616 32.1154 17.2328 32.1539L17.7911 32.9913C17.8208 33.0486 17.8654 33.0968 17.9202 33.1308C17.975 33.1649 18.038 33.1834 18.1025 33.1846V33.3099H18.1168Z" fill="#231F20"/>
<path d="M20.3895 32.6405V31.3842C20.3954 31.3437 20.3922 31.3023 20.3802 31.2631C20.3681 31.2239 20.3474 31.1879 20.3196 31.1577C20.2918 31.1275 20.2576 31.1039 20.2196 31.0886C20.1815 31.0733 20.1405 31.0667 20.0996 31.0693H20.0316V30.9834C20.1891 30.9834 20.3394 30.9834 20.4969 30.9834C20.6543 30.9834 20.7689 30.9834 20.9084 30.9834V31.0836H20.8476C20.708 31.0836 20.5506 31.1087 20.5506 31.5059V33.0198C20.5491 33.1323 20.5563 33.2448 20.572 33.3562H20.4432L18.7289 31.4451V32.8087C18.7289 33.0986 18.7861 33.1988 19.0402 33.1988H19.0975V33.299C18.9543 33.299 18.8112 33.299 18.668 33.299C18.5249 33.299 18.3638 33.299 18.2135 33.299V33.1952H18.26C18.4891 33.1952 18.5607 33.0377 18.5607 32.7729V31.3735C18.5613 31.3323 18.5533 31.2915 18.5373 31.2535C18.5212 31.2156 18.4975 31.1814 18.4675 31.1531C18.4376 31.1248 18.4021 31.1031 18.3633 31.0893C18.3245 31.0755 18.2832 31.0699 18.2421 31.0729H18.2171V30.9834C18.3423 30.9834 18.4748 30.9834 18.6 30.9834C18.7253 30.9834 18.7969 30.9834 18.8971 30.9834L20.3895 32.6405Z" fill="#231F20"/>
<path d="M20.4361 33.3242H20.5434C20.5359 33.2169 20.5359 33.1093 20.5434 33.0021V31.4953C20.5434 31.0945 20.7116 31.0587 20.8548 31.0587H20.8906V30.9835C20.7582 30.9835 20.6293 30.9835 20.4969 30.9835C20.3645 30.9835 20.1855 30.9835 20.0316 30.9835V31.0551H20.0889C20.1315 31.0532 20.1741 31.0607 20.2135 31.0769C20.253 31.0932 20.2885 31.1178 20.3174 31.1492C20.3464 31.1805 20.3682 31.2178 20.3812 31.2584C20.3943 31.299 20.3984 31.342 20.3931 31.3844V32.6442L18.8935 30.9835C18.7933 30.9835 18.6967 30.9835 18.5965 30.9835C18.4963 30.9835 18.3495 30.9835 18.2386 30.9835V31.0551H18.2422C18.2838 31.0547 18.3252 31.0625 18.3638 31.0781C18.4024 31.0937 18.4376 31.1168 18.4672 31.1461C18.4968 31.1754 18.5203 31.2103 18.5364 31.2487C18.5524 31.2872 18.5607 31.3284 18.5607 31.3701V32.773C18.5607 33.0414 18.4855 33.2097 18.2457 33.2097H18.2422V33.2812C18.3853 33.2812 18.5356 33.2812 18.6788 33.2812C18.822 33.2812 18.958 33.2812 19.094 33.2812V33.2097H19.0403C18.779 33.2097 18.7146 33.0951 18.711 32.8052V31.3987L20.4361 33.3242ZM20.5613 33.3528H20.4325L18.7432 31.4739V32.8088C18.7432 33.0987 18.7897 33.1667 19.0403 33.1667H19.1119V33.3099C18.9687 33.3099 18.8255 33.3099 18.6824 33.3099C18.5392 33.3099 18.3782 33.3099 18.2314 33.3099V33.181H18.2923C18.5106 33.181 18.575 33.0379 18.5786 32.773V31.3737C18.5791 31.3359 18.572 31.2985 18.5578 31.2635C18.5436 31.2286 18.5225 31.1968 18.4958 31.1701C18.4691 31.1434 18.4374 31.1224 18.4024 31.1082C18.3675 31.0939 18.33 31.0869 18.2923 31.0873H18.1992V30.9585C18.3281 30.9585 18.4569 30.9585 18.5822 30.9585C18.7074 30.9585 18.7754 30.9585 18.8864 30.9585L20.3502 32.6048V31.3844C20.3556 31.346 20.3523 31.3068 20.3407 31.2698C20.3291 31.2328 20.3094 31.1988 20.283 31.1704C20.2566 31.1419 20.2242 31.1197 20.1881 31.1053C20.1521 31.091 20.1133 31.0848 20.0746 31.0873H20.0066V30.9585C20.1641 30.9585 20.318 30.9585 20.4719 30.9585C20.6257 30.9585 20.7439 30.9585 20.8799 30.9585V31.0873H20.8476C20.7116 31.0873 20.5685 31.0873 20.5649 31.4953V33.0092C20.5632 33.1206 20.5704 33.2319 20.5864 33.3421L20.5613 33.3528Z" fill="#231F20"/>
<path d="M21.9177 31.3415L21.6099 32.2828H22.2326L21.9177 31.3415ZM21.4309 32.8161C21.3973 32.8992 21.3722 32.9856 21.3558 33.0737C21.3558 33.174 21.4953 33.1919 21.6063 33.1919H21.6421V33.2921C21.5097 33.2921 21.3737 33.2921 21.2377 33.2921C21.1017 33.2921 20.9979 33.2921 20.8798 33.2921V33.1954H20.9012C20.9667 33.1956 21.0305 33.1744 21.0828 33.135C21.1352 33.0955 21.1732 33.0401 21.1911 32.9771L21.7244 31.4489C21.7767 31.3151 21.8186 31.1775 21.8497 31.0373C21.9556 30.9998 22.0575 30.9519 22.1539 30.8942H22.1789C22.1826 30.8915 22.187 30.8901 22.1914 30.8901C22.1959 30.8901 22.2003 30.8915 22.204 30.8942L22.229 30.9836L22.841 32.7266C22.8804 32.8411 22.9198 32.9664 22.9627 33.0666C22.9798 33.1101 23.0109 33.1467 23.051 33.1707C23.0912 33.1947 23.1382 33.2046 23.1846 33.199H23.2061V33.2992C23.0558 33.2992 22.9054 33.2992 22.748 33.2992C22.5905 33.2992 22.4187 33.2992 22.2469 33.2992V33.1954H22.2827C22.3579 33.1954 22.4903 33.1954 22.4903 33.0988C22.477 33.0165 22.4542 32.936 22.4223 32.859L22.2934 32.4725H21.5383L21.4309 32.8161Z" fill="#231F20"/>
<path d="M21.6207 32.2717H22.204L21.9141 31.3805L21.6207 32.2717ZM21.5813 32.3003L21.8998 31.3412H21.9177L22.2327 32.3111H21.5813V32.3003ZM22.2613 33.281C22.4259 33.281 22.587 33.281 22.748 33.281C22.9091 33.281 23.0487 33.281 23.1918 33.281V33.213C23.1427 33.2178 23.0934 33.2065 23.0514 33.1806C23.0093 33.1548 22.977 33.1158 22.9592 33.0698C22.9162 32.9696 22.8769 32.8443 22.8375 32.7119L22.2183 30.9833L22.179 30.9081H22.1575C22.0648 30.9652 21.9649 31.0097 21.8604 31.0405C21.8297 31.182 21.7878 31.3208 21.7352 31.4557L21.2019 32.9839C21.182 33.0491 21.1417 33.1062 21.087 33.1468C21.0322 33.1873 20.9659 33.2093 20.8977 33.2094V33.2774C21.0122 33.2774 21.1268 33.2774 21.2556 33.2774C21.3844 33.2774 21.5169 33.2774 21.6421 33.2774V33.213H21.6063C21.499 33.213 21.3451 33.213 21.3415 33.0805C21.3572 32.9899 21.3824 32.9011 21.4167 32.8157L21.5276 32.4578H22.3042L22.4367 32.8515C22.4694 32.9295 22.4922 33.0112 22.5047 33.0949C22.5047 33.1986 22.3579 33.2058 22.2828 33.2058H22.2613V33.2738V33.281ZM23.2061 33.3096C23.0558 33.3096 22.9055 33.3096 22.748 33.3096C22.5905 33.3096 22.4188 33.3096 22.2505 33.3096V33.1808H22.3007C22.3794 33.1808 22.4939 33.1808 22.4939 33.0984C22.4815 33.0175 22.4599 32.9382 22.4295 32.8622L22.3042 32.4864H21.5491L21.4453 32.8229C21.4134 32.9051 21.3894 32.9902 21.3737 33.077C21.3737 33.1593 21.499 33.1772 21.6099 33.1772H21.66V33.306C21.5276 33.306 21.3916 33.306 21.2592 33.306C21.1268 33.306 21.0194 33.306 20.9013 33.306V33.1808H20.9371C20.9993 33.1808 21.0599 33.1606 21.1096 33.1231C21.1594 33.0857 21.1955 33.033 21.2127 32.9732L21.7459 31.445C21.798 31.3068 21.8422 31.1658 21.8783 31.0226C21.9842 30.985 22.0861 30.937 22.1825 30.8795H22.2148C22.2218 30.879 22.2288 30.8804 22.2351 30.8836C22.2414 30.8867 22.2467 30.8915 22.2505 30.8974L22.2434 30.9833L22.8554 32.7262C22.8948 32.8443 22.9341 32.966 22.9771 33.0626C22.9927 33.1037 23.0217 33.1383 23.0593 33.161C23.0969 33.1837 23.141 33.1932 23.1847 33.1879H23.2169V33.3168L23.2061 33.3096Z" fill="#231F20"/>
<path d="M23.3529 31.1411C23.1023 31.1411 23.0916 31.202 23.0415 31.4454H22.9413C22.9413 31.3523 22.9699 31.2593 22.9807 31.1626C22.9932 31.0689 22.9992 30.9744 22.9985 30.8799H23.0773C23.1095 30.9837 23.1918 30.9837 23.2813 30.9837H24.9992C25.0887 30.9837 25.171 30.9837 25.1781 30.8799H25.2569C25.2569 30.9694 25.2318 31.0588 25.2211 31.1483C25.2103 31.2378 25.2211 31.3273 25.2211 31.4167L25.1209 31.4525C25.1287 31.415 25.1282 31.3762 25.1196 31.3389C25.111 31.3016 25.0944 31.2666 25.0709 31.2363C25.0474 31.206 25.0176 31.1812 24.9836 31.1635C24.9496 31.1458 24.9122 31.1358 24.8739 31.134H24.3263V32.9056C24.3162 32.9442 24.3161 32.9847 24.3261 33.0234C24.3362 33.062 24.356 33.0974 24.3837 33.1261C24.4114 33.1549 24.446 33.1761 24.4842 33.1876C24.5224 33.1991 24.563 33.2006 24.6019 33.1919H24.6663V33.2921C24.5375 33.2921 24.3084 33.2921 24.1223 33.2921C23.9362 33.2921 23.6893 33.2921 23.5604 33.2921V33.1955H23.6105C23.7931 33.1955 23.8861 33.1955 23.8861 32.9163V31.1268H23.3529V31.1411Z" fill="#231F20"/>
<path d="M24.6627 33.3097C24.5303 33.3097 24.3048 33.3097 24.1187 33.3097C23.9326 33.3097 23.6856 33.3097 23.5568 33.3097V33.1808H23.6105C23.793 33.1808 23.8681 33.1808 23.8717 32.916V31.1551H23.3528V31.1229H23.9111V32.9124C23.9216 32.9527 23.9215 32.995 23.9108 33.0352C23.9 33.0754 23.879 33.1121 23.8497 33.1417C23.8205 33.1713 23.784 33.1928 23.744 33.2041C23.7039 33.2153 23.6616 33.2159 23.6212 33.2059H23.5711V33.2775C23.7035 33.2775 23.929 33.2775 24.1187 33.2775C24.3084 33.2775 24.5159 33.2775 24.6484 33.2775V33.2059H24.6018C24.5626 33.2106 24.5228 33.2059 24.4857 33.1923C24.4486 33.1787 24.4153 33.1565 24.3884 33.1275C24.3615 33.0985 24.3419 33.0636 24.3311 33.0256C24.3203 32.9876 24.3186 32.9476 24.3262 32.9088V31.1193H24.8881C24.9266 31.1209 24.9642 31.1306 24.9986 31.1477C25.0331 31.1649 25.0634 31.1891 25.0878 31.2189C25.1121 31.2487 25.1299 31.2832 25.1399 31.3204C25.1499 31.3575 25.1519 31.3963 25.1458 31.4343L25.2174 31.4092C25.2174 31.3234 25.2174 31.2339 25.2174 31.148C25.2174 31.0621 25.2389 30.9762 25.2496 30.8903H25.1995C25.1934 30.9096 25.1836 30.9275 25.1705 30.9429C25.1575 30.9584 25.1416 30.9711 25.1236 30.9804C25.1057 30.9897 25.0861 30.9954 25.0659 30.9972C25.0458 30.9989 25.0255 30.9966 25.0063 30.9905H23.2526C23.2141 30.9997 23.1737 30.995 23.1384 30.9773C23.103 30.9597 23.075 30.9301 23.0593 30.8939H23.0164C23.0155 30.9849 23.0084 31.0758 22.9949 31.1659C22.9949 31.2589 22.9698 31.3448 22.9555 31.4343H23.0271C23.07 31.2017 23.0987 31.1265 23.3492 31.1301V31.1587C23.1022 31.1587 23.1094 31.2052 23.0521 31.4522H22.9269C22.9269 31.3591 22.9555 31.2661 22.9662 31.1695C22.9802 31.077 22.9874 30.9837 22.9877 30.8903H23.0951C23.1166 30.9726 23.1774 30.9762 23.2633 30.9762H24.9991C25.0921 30.9762 25.1601 30.9762 25.1637 30.8867H25.2568C25.2568 30.9762 25.2317 31.0657 25.221 31.1551C25.2102 31.2446 25.221 31.3341 25.221 31.4236L25.1029 31.4665V31.4593C25.1107 31.4235 25.1107 31.3865 25.1028 31.3507C25.0949 31.3149 25.0794 31.2812 25.0573 31.252C25.0352 31.2227 25.0071 31.1986 24.9748 31.1813C24.9425 31.164 24.9068 31.1538 24.8702 31.1516H24.3262V32.9088C24.3262 33.1593 24.43 33.1772 24.5875 33.1808H24.6841V33.3097H24.6627Z" fill="#231F20"/>
<path d="M25.4 33.1952H25.4465C25.5682 33.1952 25.6934 33.1952 25.6934 33.0055V31.2626C25.6934 31.0908 25.5682 31.0729 25.4465 31.0729H25.4V30.9834C25.5288 30.9834 25.7292 30.9834 25.8939 30.9834C26.0585 30.9834 26.2518 30.9834 26.4164 30.9834V31.0836H26.352C26.2303 31.0836 26.105 31.0836 26.105 31.2733V33.0162C26.105 33.188 26.2303 33.2059 26.352 33.2059H26.3985V33.3061C26.2374 33.3061 26.0406 33.3061 25.8724 33.3061C25.7042 33.3061 25.5145 33.3061 25.3821 33.3061V33.1952H25.4Z" fill="#231F20"/>
<path d="M26.3842 33.2812V33.2097H26.352C26.321 33.218 26.2884 33.219 26.2569 33.2126C26.2254 33.2062 26.1959 33.1925 26.1705 33.1728C26.1452 33.153 26.1248 33.1276 26.111 33.0986C26.0971 33.0696 26.0902 33.0378 26.0907 33.0057V31.2627C26.0902 31.2306 26.0971 31.1988 26.111 31.1698C26.1248 31.1408 26.1452 31.1154 26.1705 31.0956C26.1959 31.0758 26.2254 31.0622 26.2569 31.0558C26.2884 31.0494 26.321 31.0504 26.352 31.0587H26.3842V30.9835C26.2303 30.9835 26.0263 30.9835 25.876 30.9835C25.7257 30.9835 25.5181 30.9835 25.4 30.9835V31.0551H25.4322C25.4633 31.0468 25.4958 31.0458 25.5273 31.0522C25.5588 31.0586 25.5884 31.0722 25.6137 31.092C25.639 31.1118 25.6594 31.1372 25.6732 31.1662C25.6871 31.1952 25.694 31.227 25.6935 31.2591V33.0021C25.694 33.0342 25.6871 33.066 25.6732 33.095C25.6594 33.124 25.639 33.1494 25.6137 33.1692C25.5884 33.189 25.5588 33.2026 25.5273 33.209C25.4958 33.2154 25.4633 33.2144 25.4322 33.2061H25.4V33.2777C25.5288 33.2777 25.715 33.2777 25.876 33.2777C26.0371 33.2777 26.2339 33.2777 26.3878 33.2777M26.3878 33.3063C26.2267 33.3063 26.0299 33.3063 25.8617 33.3063C25.6935 33.3063 25.5038 33.3063 25.3714 33.3063V33.181H25.4322C25.5539 33.181 25.6613 33.181 25.6648 33.0057V31.2627C25.6648 31.1017 25.5539 31.0909 25.4322 31.0873H25.3678V30.9585C25.4966 30.9585 25.6971 30.9585 25.8617 30.9585C26.0263 30.9585 26.2196 30.9585 26.3842 30.9585V31.0873H26.352C26.2303 31.0873 26.1194 31.0873 26.1194 31.2627V33.0057C26.1194 33.1667 26.2303 33.1774 26.352 33.181H26.4128V33.3099L26.3878 33.3063Z" fill="#231F20"/>
<path d="M27.7764 33.1989C28.4242 33.1989 28.5352 32.6298 28.5352 32.1431C28.5352 31.6563 28.2739 31.0694 27.7192 31.0694C27.1644 31.0694 26.964 31.5883 26.964 32.0357C26.964 32.6334 27.236 33.2024 27.7764 33.2024M27.7263 30.9227C27.8856 30.9079 28.0463 30.926 28.1983 30.976C28.3503 31.026 28.4904 31.1067 28.6099 31.2131C28.7294 31.3195 28.8257 31.4493 28.8929 31.5945C28.9601 31.7397 28.9967 31.8972 29.0004 32.0572C29.0079 32.2253 28.9806 32.3931 28.9201 32.5501C28.8596 32.7071 28.7674 32.85 28.649 32.9696C28.5307 33.0893 28.389 33.1832 28.2326 33.2454C28.0763 33.3076 27.9088 33.3369 27.7406 33.3313C27.5789 33.3407 27.4169 33.3166 27.2649 33.2605C27.1129 33.2044 26.974 33.1175 26.8571 33.0053C26.7402 32.8931 26.6477 32.758 26.5855 32.6084C26.5232 32.4588 26.4924 32.2979 26.4952 32.1359C26.4927 31.974 26.5229 31.8133 26.5837 31.6633C26.6445 31.5133 26.7349 31.377 26.8493 31.2625C26.9638 31.148 27.1001 31.0577 27.2501 30.9969C27.4002 30.936 27.5609 30.9059 27.7227 30.9083" fill="#231F20"/>
<path d="M26.9496 32.0355C26.9496 31.5881 27.125 31.0549 27.7191 31.0549C28.3132 31.0549 28.5494 31.6561 28.5494 32.1285C28.5494 32.601 28.4349 33.2022 27.7764 33.2022V33.1843C28.4099 33.1843 28.5208 32.6296 28.5208 32.1429C28.5208 31.6561 28.2595 31.0692 27.7191 31.0692C27.1787 31.0692 26.9783 31.5774 26.9783 32.0212C26.9783 32.6153 27.2503 33.17 27.7764 33.1736V33.2022C27.2252 33.2022 26.9496 32.6224 26.9496 32.0248M26.4844 32.1429C26.4825 31.9792 26.5133 31.8169 26.575 31.6653C26.6367 31.5138 26.7281 31.3761 26.8438 31.2604C26.9596 31.1447 27.0972 31.0533 27.2488 30.9916C27.4003 30.9299 27.5627 30.899 27.7263 30.901V30.9296C27.5664 30.9277 27.4078 30.9577 27.2597 31.018C27.1117 31.0783 26.9771 31.1676 26.8641 31.2807C26.751 31.3937 26.6618 31.5282 26.6015 31.6763C26.5412 31.8244 26.5111 31.983 26.513 32.1429C26.5103 32.303 26.5406 32.462 26.6022 32.6098C26.6638 32.7577 26.7552 32.8913 26.8708 33.0021C26.9864 33.113 27.1236 33.1988 27.2739 33.2542C27.4242 33.3096 27.5843 33.3333 27.7442 33.3239C27.9102 33.3281 28.0753 33.2979 28.2291 33.2353C28.383 33.1726 28.5222 33.0789 28.6381 32.96C28.754 32.841 28.8441 32.6994 28.9028 32.544C28.9614 32.3887 28.9873 32.2228 28.9789 32.057C28.9772 31.8973 28.9423 31.7398 28.8765 31.5944C28.8106 31.4489 28.7153 31.3187 28.5965 31.2121C28.4778 31.1054 28.3381 31.0246 28.1865 30.9747C28.0348 30.9249 27.8744 30.9071 27.7155 30.9224V30.9081C27.8775 30.8923 28.0409 30.9101 28.1957 30.9603C28.3505 31.0104 28.4933 31.092 28.6152 31.1997C28.7371 31.3075 28.8355 31.4393 28.9042 31.5868C28.9729 31.7342 29.0106 31.8943 29.0147 32.057C29.0217 32.2268 28.9936 32.3963 28.9322 32.5548C28.8708 32.7133 28.7774 32.8575 28.6579 32.9783C28.5384 33.0992 28.3953 33.1942 28.2375 33.2573C28.0796 33.3205 27.9105 33.3504 27.7406 33.3454C27.5776 33.3557 27.4142 33.3324 27.2606 33.2769C27.1069 33.2214 26.9664 33.1349 26.8475 33.0228C26.7287 32.9107 26.6342 32.7754 26.5699 32.6253C26.5056 32.4751 26.4728 32.3134 26.4736 32.15" fill="#231F20"/>
<path d="M31.2445 32.6405V31.3842C31.2504 31.3437 31.2472 31.3023 31.2351 31.2631C31.223 31.2239 31.2024 31.1879 31.1746 31.1577C31.1468 31.1275 31.1126 31.1039 31.0746 31.0886C31.0365 31.0733 30.9955 31.0667 30.9546 31.0693H30.883V30.9834C31.0405 30.9834 31.1908 30.9834 31.3483 30.9834C31.5058 30.9834 31.6203 30.9834 31.7599 30.9834V31.0836H31.7097C31.5702 31.0836 31.4127 31.1087 31.4127 31.5059V33.0198C31.411 33.1324 31.4182 33.2448 31.4342 33.3562H31.3089L29.5946 31.4451V32.8087C29.5946 33.0986 29.6519 33.1988 29.906 33.1988H29.9632V33.299C29.8201 33.299 29.6769 33.299 29.5338 33.299C29.3906 33.299 29.2295 33.299 29.0792 33.299V33.1952H29.1258C29.3548 33.1952 29.4264 33.0377 29.4264 32.7729V31.3735C29.4269 31.3336 29.4193 31.294 29.4042 31.257C29.389 31.2201 29.3665 31.1866 29.3382 31.1586C29.3098 31.1305 29.276 31.1084 29.2389 31.0937C29.2018 31.079 29.1621 31.0719 29.1222 31.0729H29.0792V30.9834C29.2045 30.9834 29.3369 30.9834 29.4622 30.9834C29.5874 30.9834 29.659 30.9834 29.7592 30.9834L31.2445 32.6405Z" fill="#231F20"/>
<path d="M31.3053 33.3242H31.4163C31.4089 33.2169 31.4089 33.1093 31.4163 33.0021V31.4953C31.4163 31.0945 31.5845 31.0587 31.7277 31.0587H31.7634V30.9835C31.631 30.9835 31.4986 30.9835 31.3662 30.9835C31.2338 30.9835 31.0655 30.9835 30.9152 30.9835V31.0551H30.9725C31.0151 31.0532 31.0577 31.0607 31.0971 31.0769C31.1366 31.0932 31.172 31.1178 31.201 31.1492C31.23 31.1805 31.2517 31.2178 31.2648 31.2584C31.2779 31.299 31.2819 31.342 31.2767 31.3844V32.6442L29.7628 30.9835C29.6626 30.9835 29.566 30.9835 29.4658 30.9835C29.3655 30.9835 29.2188 30.9835 29.1079 30.9835V31.0551H29.1365C29.1782 31.0547 29.2195 31.0625 29.2581 31.0781C29.2967 31.0937 29.3319 31.1168 29.3615 31.1461C29.3911 31.1754 29.4147 31.2103 29.4307 31.2487C29.4468 31.2872 29.455 31.3284 29.455 31.3701V32.773C29.455 33.0379 29.3799 33.2097 29.1401 33.2097H29.1079V33.2812C29.251 33.2812 29.4013 33.2812 29.5481 33.2812C29.6948 33.2812 29.8237 33.2812 29.9632 33.2812V33.2097H29.9095C29.6483 33.2097 29.5839 33.0951 29.5839 32.8052V31.3987L31.3053 33.3242ZM31.4306 33.3528H31.2946L29.6053 31.4703V32.8088C29.6053 33.0987 29.6519 33.1667 29.9024 33.1667H29.974V33.3099C29.8308 33.3099 29.6877 33.3099 29.5445 33.3099C29.4013 33.3099 29.2439 33.3099 29.09 33.3099V33.181H29.1508C29.3691 33.181 29.4335 33.0379 29.4371 32.773V31.3737C29.4376 31.3356 29.4304 31.2979 29.416 31.2627C29.4016 31.2275 29.3802 31.1956 29.3531 31.1688C29.326 31.1421 29.2938 31.1211 29.2585 31.1071C29.2231 31.0931 29.1853 31.0864 29.1472 31.0873H29.09V30.9585C29.2188 30.9585 29.3476 30.9585 29.4729 30.9585C29.5982 30.9585 29.6662 30.9585 29.7807 30.9585L31.2445 32.6048V31.3844C31.2499 31.346 31.2467 31.3068 31.235 31.2698C31.2234 31.2328 31.2037 31.1988 31.1773 31.1704C31.1509 31.1419 31.1185 31.1197 31.0825 31.1053C31.0464 31.091 31.0076 31.0848 30.9689 31.0873H30.8794V30.9585C31.0369 30.9585 31.1908 30.9585 31.3447 30.9585C31.4986 30.9585 31.6167 30.9585 31.7563 30.9585V31.0873H31.6919C31.5559 31.0873 31.4127 31.0873 31.4091 31.4953V33.0092C31.4067 33.1205 31.4126 33.2317 31.427 33.3421L31.4306 33.3528Z" fill="#231F20"/>
<path d="M32.787 31.3414L32.4756 32.2826H33.0984L32.787 31.3414ZM32.3003 32.8159C32.2682 32.8993 32.2443 32.9856 32.2287 33.0736C32.2287 33.1738 32.3683 33.1917 32.4792 33.1917H32.515V33.2919C32.3826 33.2919 32.2466 33.2919 32.1106 33.2919C31.9746 33.2919 31.8708 33.2919 31.7527 33.2919V33.1953H31.7706C31.8361 33.1954 31.8999 33.1742 31.9522 33.1348C32.0045 33.0954 32.0425 33.0399 32.0605 32.9769L32.5937 31.4487C32.6451 31.315 32.6858 31.1773 32.7154 31.0371C32.8213 30.9995 32.9232 30.9516 33.0196 30.894H33.0447C33.048 30.8921 33.0517 30.8911 33.0554 30.8911C33.0592 30.8911 33.0629 30.8921 33.0662 30.894L33.0984 30.9835L33.7104 32.7264C33.7497 32.8409 33.7891 32.9662 33.8321 33.0664C33.849 33.1093 33.8795 33.1454 33.9189 33.1694C33.9584 33.1933 34.0045 33.2036 34.0504 33.1988H34.0718V33.299C33.9215 33.299 33.7712 33.299 33.6102 33.299C33.4491 33.299 33.2809 33.299 33.1091 33.299V33.1953H33.1449C33.2201 33.1953 33.3525 33.1953 33.3525 33.0986C33.3392 33.0163 33.3164 32.9359 33.2845 32.8588L33.1556 32.4723H32.4005L32.3003 32.8159Z" fill="#231F20"/>
<path d="M32.4899 32.2647H33.0733L32.7834 31.3736L32.4899 32.2647ZM32.4505 32.2934L32.7691 31.3414L33.084 32.3113H32.4505V32.2934ZM33.1305 33.274C33.2952 33.274 33.4562 33.274 33.6173 33.274C33.7783 33.274 33.9179 33.274 34.0611 33.274V33.2132C34.0121 33.2175 33.963 33.2058 33.9211 33.1801C33.8792 33.1543 33.8467 33.1157 33.8284 33.07C33.7855 32.9698 33.7461 32.8445 33.7068 32.7121L33.084 30.9835L33.0554 30.9047H33.0268C32.9338 30.9614 32.834 31.0059 32.7297 31.0372C32.6985 31.1785 32.6566 31.3173 32.6044 31.4523L32.0712 32.9805C32.0518 33.046 32.0116 33.1034 31.9567 33.1441C31.9019 33.1848 31.8353 33.2065 31.767 33.206V33.274C31.8815 33.274 31.996 33.274 32.1249 33.274C32.2537 33.274 32.3861 33.274 32.515 33.274V33.2132H32.4935C32.3861 33.2132 32.2322 33.2132 32.2287 33.0807C32.2448 32.9902 32.27 32.9015 32.3038 32.8159L32.4148 32.458H33.1914L33.3238 32.8517C33.3563 32.9297 33.3791 33.0115 33.3918 33.0951C33.3918 33.1989 33.2487 33.206 33.1699 33.206H33.1305V33.2776V33.274ZM34.0754 33.3026C33.9251 33.3026 33.7748 33.3026 33.6173 33.3026C33.4598 33.3026 33.288 33.3026 33.1198 33.3026V33.181H33.1699C33.2487 33.181 33.3632 33.1631 33.3632 33.0986C33.35 33.0175 33.3272 32.9382 33.2952 32.8624L33.1699 32.4866H32.4148L32.311 32.8231C32.2792 32.9053 32.2552 32.9904 32.2394 33.0772C32.2394 33.1595 32.3647 33.181 32.4756 33.181H32.5257V33.3098C32.3933 33.3098 32.2573 33.3098 32.1249 33.3098C31.9924 33.3098 31.8851 33.3098 31.767 33.3098V33.181H31.7992C31.8613 33.1804 31.9216 33.16 31.9712 33.1226C32.0208 33.0853 32.0571 33.0329 32.0748 32.9734L32.608 31.4452C32.6596 31.3068 32.7038 31.1659 32.7404 31.0229C32.8461 30.9847 32.9479 30.9367 33.0447 30.8797H33.0769C33.0839 30.8788 33.0911 30.88 33.0975 30.8832C33.1039 30.8864 33.1091 30.8914 33.1127 30.8976V30.9835L33.7247 32.7264C33.764 32.8445 33.8034 32.9662 33.8463 33.0664C33.862 33.1075 33.8909 33.1421 33.9286 33.1648C33.9662 33.1875 34.0103 33.197 34.0539 33.1917H34.0897V33.3205L34.0754 33.3026Z" fill="#231F20"/>
<path d="M34.9129 32.9697C34.9128 32.9954 34.9181 33.0208 34.9283 33.0444C34.9385 33.068 34.9535 33.0892 34.9724 33.1066C34.9912 33.1241 35.0134 33.1375 35.0377 33.146C35.0619 33.1544 35.0877 33.1578 35.1133 33.1558C35.2597 33.1692 35.4071 33.1692 35.5535 33.1558C35.6158 33.1484 35.676 33.1288 35.7306 33.0981C35.7853 33.0674 35.8334 33.0262 35.872 32.9769C35.9203 32.9035 35.9554 32.8224 35.9758 32.7371H36.0725C36.0367 32.9268 35.9902 33.1129 35.9508 33.3026C35.6573 33.3026 35.3638 33.3026 35.0704 33.3026C34.7769 33.3026 34.4834 33.3026 34.1899 33.3026V33.1952H34.2365C34.2684 33.2029 34.3017 33.2028 34.3336 33.1948C34.3655 33.1869 34.395 33.1714 34.4196 33.1496C34.4442 33.1278 34.4632 33.1004 34.4749 33.0697C34.4867 33.039 34.4908 33.0059 34.487 32.9733V31.2626C34.487 31.0908 34.3582 31.0729 34.2365 31.0729H34.1899V30.9834C34.3653 30.9834 34.5478 30.9834 34.716 30.9834C34.8843 30.9834 35.0525 30.9834 35.2243 30.9834V31.0836H35.1419C35.0167 31.0836 34.9165 31.0836 34.9165 31.2626V32.9805L34.9129 32.9697Z" fill="#231F20"/>
<path d="M35.9364 33.2812C35.9757 33.0987 36.0187 32.9233 36.0545 32.7444H35.9865C35.9653 32.8273 35.9302 32.9059 35.8827 32.977C35.8427 33.0282 35.7931 33.0709 35.7366 33.1028C35.6801 33.1348 35.6179 33.1553 35.5534 33.1631C35.4675 33.1631 35.3781 33.1631 35.2993 33.1631H35.1132C35.086 33.1646 35.0588 33.1605 35.0332 33.1511C35.0077 33.1417 34.9843 33.1271 34.9645 33.1084C34.9447 33.0896 34.929 33.067 34.9183 33.042C34.9075 33.0169 34.902 32.99 34.9021 32.9627V31.2448C34.9021 31.0587 35.0202 31.0515 35.1419 31.0515H35.2099V30.9835C35.0452 30.9835 34.8842 30.9835 34.7195 30.9835C34.5549 30.9835 34.3616 30.9835 34.2077 30.9835V31.0551H34.24C34.2712 31.0469 34.3039 31.046 34.3355 31.0524C34.3672 31.0588 34.3969 31.0724 34.4225 31.0921C34.4481 31.1118 34.4688 31.1371 34.4831 31.166C34.4973 31.195 34.5048 31.2268 34.5048 31.2591V32.9699C34.5085 33.0044 34.5039 33.0392 34.4914 33.0716C34.4789 33.104 34.4589 33.1329 34.433 33.156C34.4071 33.1791 34.3761 33.1957 34.3426 33.2044C34.309 33.2131 34.2738 33.2137 34.24 33.2061H34.2042V33.2777C34.4905 33.2777 34.7804 33.2777 35.0703 33.2777C35.3602 33.2777 35.6501 33.2777 35.9364 33.2777M35.9364 33.3063C35.6429 33.3063 35.3494 33.3063 35.056 33.3063C34.7625 33.3063 34.469 33.3063 34.1755 33.3063V33.181H34.2364C34.2664 33.1889 34.2979 33.1893 34.3281 33.1821C34.3583 33.175 34.3863 33.1605 34.4097 33.14C34.433 33.1195 34.4509 33.0936 34.4619 33.0646C34.4729 33.0355 34.4765 33.0042 34.4726 32.9734V31.2627C34.4726 31.1017 34.3581 31.0909 34.2364 31.0873H34.1755V30.9585C34.3545 30.9585 34.5334 30.9585 34.7016 30.9585C34.8699 30.9585 35.0381 30.9585 35.2099 30.9585V31.0873H35.1132C34.9844 31.0873 34.9056 31.0873 34.9021 31.252V32.9699C34.902 32.9937 34.9069 33.0173 34.9164 33.0391C34.9259 33.0609 34.9398 33.0805 34.9573 33.0967C34.9748 33.1128 34.9955 33.1252 35.018 33.1329C35.0405 33.1407 35.0644 33.1436 35.0882 33.1417H35.2743C35.3577 33.146 35.4414 33.146 35.5248 33.1417C35.5857 33.1344 35.6446 33.1152 35.698 33.0851C35.7514 33.055 35.7984 33.0146 35.8362 32.9663C35.8829 32.8939 35.9168 32.814 35.9364 32.7301H36.0616C36.0223 32.9198 35.9793 33.1059 35.9364 33.2955V33.3063Z" fill="#231F20"/>
<path d="M35.9758 31.2306H36.0187C36.0296 31.2304 36.0402 31.2278 36.0498 31.2229C36.0595 31.218 36.0679 31.211 36.0744 31.2024C36.081 31.1938 36.0855 31.1838 36.0876 31.1732C36.0898 31.1626 36.0895 31.1516 36.0868 31.1411C36.0884 31.1315 36.0878 31.1217 36.0851 31.1123C36.0824 31.1029 36.0776 31.0943 36.071 31.087C36.0645 31.0798 36.0564 31.0741 36.0473 31.0705C36.0383 31.0668 36.0285 31.0653 36.0187 31.066H35.9794V31.2306H35.9758ZM35.8577 31.4167C35.9006 31.4167 35.9078 31.4167 35.9078 31.3845V31.1054C35.9078 31.0696 35.9078 31.0553 35.8577 31.0588V31.0409H36.0366C36.0506 31.0389 36.0647 31.0398 36.0783 31.0434C36.0919 31.0471 36.1046 31.0534 36.1156 31.0621C36.1267 31.0708 36.1359 31.0817 36.1426 31.0941C36.1493 31.1064 36.1534 31.12 36.1548 31.134C36.1548 31.1585 36.1467 31.1823 36.1319 31.2017C36.117 31.2211 36.0961 31.235 36.0724 31.2414L36.1369 31.3201C36.1585 31.3516 36.1851 31.3793 36.2156 31.4024H36.1369C36.0817 31.3607 36.0385 31.3051 36.0116 31.2414H35.9722V31.3559C35.9722 31.3774 35.9722 31.3774 36.0223 31.3845H35.8541L35.8577 31.4167ZM36.0331 31.5169C36.0901 31.5184 36.1463 31.5027 36.1944 31.4719C36.2425 31.4412 36.2803 31.3968 36.303 31.3444C36.3256 31.292 36.3321 31.234 36.3216 31.1779C36.3111 31.1218 36.284 31.0702 36.2439 31.0295C36.2038 30.9889 36.1525 30.9612 36.0965 30.95C36.0406 30.9388 35.9825 30.9445 35.9299 30.9665C35.8772 30.9885 35.8323 31.0257 35.8009 31.0734C35.7696 31.1211 35.7532 31.1771 35.7539 31.2342C35.7539 31.3086 35.7832 31.3799 35.8354 31.4329C35.8877 31.4858 35.9587 31.516 36.0331 31.5169ZM36.0331 30.8799C36.1039 30.8799 36.173 30.9009 36.2319 30.9402C36.2908 30.9795 36.3366 31.0354 36.3637 31.1008C36.3908 31.1662 36.3979 31.2382 36.3841 31.3076C36.3703 31.377 36.3362 31.4408 36.2861 31.4908C36.2361 31.5409 36.1723 31.575 36.1029 31.5888C36.0335 31.6026 35.9615 31.5955 35.8961 31.5684C35.8307 31.5413 35.7748 31.4955 35.7355 31.4366C35.6962 31.3778 35.6752 31.3086 35.6752 31.2378C35.6752 31.1429 35.7129 31.0518 35.78 30.9847C35.8471 30.9176 35.9381 30.8799 36.0331 30.8799Z" fill="#231F20"/>
<path d="M20.8763 24.8599C23.9914 24.8599 26.5167 22.3346 26.5167 19.2195C26.5167 16.1044 23.9914 13.5791 20.8763 13.5791C17.7611 13.5791 15.2358 16.1044 15.2358 19.2195C15.2358 22.3346 17.7611 24.8599 20.8763 24.8599Z" fill="white"/>
<path d="M20.8833 24.9564C19.3363 24.9669 17.8481 24.3644 16.7441 23.2806C15.6402 22.1967 15.0103 20.7198 14.9924 19.1729C14.9743 18.3941 15.1143 17.6198 15.4039 16.8967C15.6935 16.1736 16.1267 15.5167 16.6773 14.9658C17.2279 14.4148 17.8845 13.9812 18.6075 13.6912C19.3304 13.4012 20.1046 13.2607 20.8833 13.2783H22.3972C25.5897 13.2783 28.5065 15.687 28.5065 19.1693C28.5065 22.3545 25.5932 24.96 22.3972 24.96H20.8833V24.9564ZM20.8833 13.7579C19.8264 13.76 18.7939 14.0753 17.916 14.664C17.0382 15.2527 16.3546 16.0883 15.9514 17.0653C15.5483 18.0423 15.4437 19.1168 15.6509 20.1532C15.8582 21.1896 16.3679 22.1414 17.1158 22.8882C17.8636 23.6351 18.816 24.1436 19.8527 24.3494C20.8894 24.5553 21.9638 24.4492 22.9403 24.0448C23.9167 23.6403 24.7514 22.9555 25.3389 22.0769C25.9264 21.1984 26.2403 20.1654 26.241 19.1084C26.241 17.6903 25.6777 16.3303 24.6749 15.3276C23.6722 14.3248 22.3122 13.7615 20.8941 13.7615L20.8833 13.7579ZM19.6737 22.2686V15.9518C19.036 16.198 18.4877 16.6315 18.1011 17.1953C17.7144 17.759 17.5075 18.4266 17.5075 19.1102C17.5075 19.7938 17.7144 20.4614 18.1011 21.0252C18.4877 21.5889 19.036 22.0224 19.6737 22.2686ZM24.2762 19.1084C24.2746 18.4251 24.0667 17.7581 23.6798 17.1948C23.2928 16.6316 22.7447 16.1983 22.1073 15.9518V22.2722C22.7472 22.0264 23.2976 21.5925 23.686 21.0278C24.0744 20.463 24.2827 19.7939 24.2833 19.1084H24.2762Z" fill="#004A97"/>
</svg>
