<svg width="44" height="44" viewBox="0 0 44 44" fill="none" xmlns="http://www.w3.org/2000/svg">
<path d="M40.3613 10.1499H3.13501V33.8612H40.3613V10.1499Z" fill="white"/>
<path d="M40.365 10H3V34H40.5V10H40.365ZM40.23 10.27C40.23 10.5362 40.23 33.445 40.23 33.7113H3.27375C3.27375 33.445 3.27375 10.5362 3.27375 10.27H40.23Z" fill="#231F20"/>
<path d="M40.2263 23.3389C40.2263 23.3389 30.0563 30.5164 11.4263 33.7301H40.2263V23.3389Z" fill="#F58220"/>
<path d="M22.6386 16.1015C21.9182 16.0894 21.2224 16.3639 20.7042 16.8645C20.186 17.3651 19.8877 18.051 19.8749 18.7715C19.8562 19.3217 20.0023 19.8649 20.2944 20.3316C20.5865 20.7983 21.0113 21.167 21.5144 21.3907C22.0175 21.6143 22.5759 21.6826 23.118 21.5868C23.6602 21.491 24.1614 21.2354 24.5573 20.8529C24.9533 20.4704 25.2259 19.9783 25.3404 19.4398C25.4549 18.9013 25.4059 18.3409 25.1997 17.8304C24.9936 17.3199 24.6397 16.8826 24.1834 16.5745C23.7271 16.2665 23.1892 16.1018 22.6386 16.1015Z" fill="url(#paint0_radial_18_55)"/>
<path d="M6.92627 16.1987H5.42627V21.3887H6.90752C7.57806 21.4254 8.2383 21.2115 8.76002 20.7887C9.05227 20.5444 9.28783 20.2394 9.45037 19.8949C9.61291 19.5504 9.69853 19.1746 9.70127 18.7937C9.71252 17.2637 8.56502 16.1987 6.92627 16.1987ZM8.11127 20.095C7.72049 20.4086 7.22241 20.5567 6.72377 20.5075H6.45002V17.08H6.72377C6.97074 17.0549 7.22023 17.0791 7.45776 17.1512C7.6953 17.2233 7.91616 17.3419 8.10752 17.5C8.28508 17.6645 8.42646 17.8641 8.52265 18.0862C8.61885 18.3083 8.66776 18.548 8.66627 18.79C8.66854 19.0349 8.62006 19.2776 8.52389 19.5028C8.42773 19.7281 8.28596 19.931 8.10752 20.0987L8.11127 20.095Z" fill="#001722"/>
<path d="M11.1901 16.1987H10.1776V21.3887H11.1901V16.1987Z" fill="#001722"/>
<path d="M13.6649 18.1898C13.0574 17.9648 12.8774 17.8148 12.8774 17.5373C12.888 17.4498 12.9159 17.3653 12.9595 17.2888C13.0032 17.2122 13.0616 17.1451 13.1314 17.0913C13.2012 17.0376 13.281 16.9983 13.3662 16.9757C13.4513 16.9531 13.5401 16.9477 13.6274 16.9598C13.7865 16.9635 13.9428 17.0032 14.0844 17.0759C14.2259 17.1487 14.3492 17.2526 14.4449 17.3798L14.9737 16.6898C14.5551 16.3131 14.0105 16.107 13.4474 16.1123C13.2414 16.0996 13.035 16.1288 12.8406 16.1981C12.6463 16.2675 12.468 16.3755 12.3165 16.5157C12.1651 16.6559 12.0437 16.8254 11.9596 17.0139C11.8755 17.2024 11.8306 17.4059 11.8274 17.6123C11.8274 18.3285 12.1537 18.696 13.1024 19.0373C13.3453 19.1129 13.5801 19.2121 13.8037 19.3335C13.8965 19.3889 13.9733 19.4674 14.0266 19.5614C14.0798 19.6554 14.1077 19.7617 14.1074 19.8698C14.1075 19.9715 14.087 20.0722 14.047 20.1657C14.0069 20.2592 13.9483 20.3437 13.8746 20.4138C13.801 20.484 13.7138 20.5384 13.6184 20.5738C13.5231 20.6092 13.4215 20.6249 13.3199 20.6198C13.0881 20.6238 12.8602 20.5603 12.6638 20.4371C12.4674 20.314 12.311 20.1364 12.2137 19.926L11.5612 20.556C11.7447 20.8666 12.0082 21.1222 12.3241 21.2963C12.64 21.4704 12.9968 21.5567 13.3574 21.546C13.5894 21.5617 13.822 21.5289 14.0406 21.4498C14.2592 21.3707 14.459 21.247 14.6272 21.0865C14.7955 20.926 14.9285 20.7323 15.0178 20.5177C15.1071 20.3031 15.1508 20.0722 15.1462 19.8398C15.1574 18.9998 14.8162 18.6248 13.6649 18.1898Z" fill="#001722"/>
<path d="M15.4762 18.7975C15.4731 19.1569 15.5421 19.5133 15.6792 19.8456C15.8162 20.1779 16.0185 20.4794 16.2741 20.7321C16.5296 20.9849 16.8333 21.1839 17.1671 21.3173C17.5009 21.4506 17.858 21.5157 18.2174 21.5087C18.663 21.5112 19.1028 21.4071 19.4999 21.205V20.0125C19.3487 20.189 19.1613 20.331 18.9503 20.4287C18.7394 20.5264 18.5099 20.5776 18.2774 20.5787C18.0427 20.5858 17.809 20.5441 17.5912 20.4561C17.3734 20.3681 17.1763 20.2359 17.0123 20.0677C16.8484 19.8995 16.7212 19.6991 16.6388 19.4791C16.5564 19.2592 16.5206 19.0245 16.5337 18.79C16.5262 18.5609 16.5644 18.3327 16.6461 18.1186C16.7278 17.9045 16.8513 17.7089 17.0094 17.543C17.1676 17.3772 17.3572 17.2445 17.5672 17.1528C17.7771 17.0611 18.0033 17.0121 18.2324 17.0087C18.4731 17.0106 18.7106 17.0638 18.9292 17.1647C19.1477 17.2655 19.3423 17.4118 19.4999 17.5937V16.4012C19.1183 16.192 18.6901 16.0823 18.2549 16.0825C17.8936 16.076 17.5346 16.1414 17.1987 16.2747C16.8628 16.4081 16.5568 16.6068 16.2983 16.8594C16.0398 17.1119 15.834 17.4133 15.6929 17.746C15.5518 18.0787 15.4781 18.4361 15.4762 18.7975Z" fill="#001722"/>
<path d="M27.6901 19.6862L26.3026 16.1987H25.2001L27.4013 21.5237H27.9451L30.1876 16.1987H29.0926L27.6901 19.6862Z" fill="#001722"/>
<path d="M30.6488 21.3887H33.5213V20.5112H31.6613V19.1087H33.4501V18.2312H31.6613V17.08H33.5213V16.1987H30.6488V21.3887Z" fill="#001722"/>
<path d="M37.5263 17.7326C37.5263 16.7614 36.8588 16.2026 35.6888 16.2026H34.1888V21.3889H35.2013V19.3039H35.3326L36.7501 21.3889H37.9951L36.3601 19.2026C36.704 19.1498 37.0153 18.9689 37.2315 18.6964C37.4478 18.4238 37.5531 18.0796 37.5263 17.7326ZM35.4938 18.5914H35.1976V17.0164H35.5088C36.1388 17.0164 36.4838 17.2826 36.4838 17.7851C36.4838 18.2876 36.1426 18.5876 35.4976 18.5876L35.4938 18.5914Z" fill="#001722"/>
<path d="M14.5087 22.75L15.8624 24.1675V22.8287H16.0574V24.625L14.7037 23.2112V24.55H14.5087V22.75Z" fill="#231F20"/>
<path d="M14.4937 22.7502V24.5802H14.7224V23.2677L16.0762 24.6852V22.8102H15.8474V24.1265L14.4937 22.709V22.7502ZM14.5312 22.7952L15.8849 24.2127V22.8477H16.0424V24.599L14.6887 23.1815V24.5465H14.5274V22.799L14.5312 22.7952Z" fill="#231F20"/>
<path d="M16.995 22.8286H17.895V23.0086H17.19V23.5261H17.8762V23.7061H17.19V24.3886H17.895V24.5686H16.995V22.8286Z" fill="#231F20"/>
<path d="M17.8949 22.8101H16.9762V24.5838H17.9137V24.3663H17.2087V23.7213H17.8949V23.5001H17.2087V23.0276H17.9137V22.8101H17.8949ZM17.8949 22.8438V22.9863H17.1712V23.5376H17.8574V23.6801H17.1712V24.3963H17.8799V24.5388H17.0174V22.8476H17.8799L17.8949 22.8438Z" fill="#231F20"/>
<path d="M19.2638 24.5649H19.0688V23.0086H18.6488V22.8286H19.6876V23.0086H19.2638V24.5649Z" fill="#231F20"/>
<path d="M19.6875 22.8101H18.63V23.0276H19.05V24.5838H19.2788V23.0276H19.7025V22.8101H19.6875ZM19.6875 22.8438V22.9863H19.245V24.5426H19.0875V22.9901H18.6675V22.8476H19.6688L19.6875 22.8438Z" fill="#231F20"/>
<path d="M20.9813 24.13L21.5438 22.75L22.1063 24.1412L22.5638 22.84H22.7738L22.1063 24.6663L21.5438 23.2675L20.9813 24.6663L20.3175 22.84H20.5275L20.9813 24.13Z" fill="#231F20"/>
<path d="M21.5251 22.7502L20.9813 24.0965L20.5351 22.829H20.2876L20.9776 24.7265L21.5401 23.324L22.1026 24.7265L22.7926 22.829H22.5488L22.1026 24.0965L21.5401 22.709L21.5251 22.7502ZM21.0001 24.1377L21.5438 22.7877L22.1063 24.1827L22.5751 22.8477H22.7476L22.1063 24.6065L21.5438 23.2115L20.9813 24.6065L20.3401 22.8477H20.5126L20.9813 24.1827L21.0001 24.1377Z" fill="#231F20"/>
<path d="M25.2714 23.6989C25.2721 23.8781 25.2195 24.0535 25.1203 24.2027C25.0212 24.352 24.8798 24.4684 24.7143 24.5372C24.5488 24.6059 24.3666 24.6239 24.1908 24.5889C24.0151 24.5538 23.8537 24.4673 23.7272 24.3403C23.6008 24.2133 23.5149 24.0516 23.4806 23.8757C23.4463 23.6998 23.465 23.5176 23.5345 23.3524C23.6039 23.1872 23.7209 23.0463 23.8706 22.9478C24.0203 22.8492 24.1959 22.7974 24.3751 22.7989C24.6132 22.7999 24.8411 22.8951 25.0091 23.0638C25.1771 23.2325 25.2714 23.4608 25.2714 23.6989ZM23.6551 23.6989C23.6566 23.8391 23.6995 23.9758 23.7783 24.0919C23.8572 24.2079 23.9685 24.298 24.0984 24.351C24.2283 24.404 24.3709 24.4175 24.5084 24.3898C24.6459 24.362 24.7722 24.2943 24.8714 24.1951C24.9706 24.0959 25.0383 23.9697 25.066 23.8322C25.0937 23.6947 25.0803 23.552 25.0273 23.4221C24.9743 23.2923 24.8841 23.1809 24.7681 23.1021C24.6521 23.0232 24.5154 22.9803 24.3751 22.9789C24.1848 22.9789 24.0022 23.0542 23.8673 23.1884C23.7324 23.3226 23.6561 23.5048 23.6551 23.6951V23.6989Z" fill="#231F20"/>
<path d="M23.4413 23.6987C23.4406 23.8808 23.4938 24.0591 23.5942 24.211C23.6946 24.3629 23.8378 24.4818 24.0056 24.5525C24.1735 24.6232 24.3585 24.6426 24.5374 24.6084C24.7162 24.5741 24.881 24.4876 25.0108 24.3599C25.1406 24.2322 25.2297 24.0689 25.2669 23.8906C25.304 23.7123 25.2876 23.5269 25.2196 23.358C25.1516 23.189 25.0351 23.044 24.8848 22.9411C24.7345 22.8382 24.5572 22.7821 24.375 22.7799C24.2531 22.7779 24.132 22.8002 24.0188 22.8455C23.9056 22.8908 23.8026 22.9581 23.7157 23.0436C23.6288 23.1292 23.5597 23.2311 23.5126 23.3436C23.4655 23.456 23.4413 23.5767 23.4413 23.6987ZM23.475 23.6987C23.4728 23.5229 23.5228 23.3504 23.6186 23.2031C23.7144 23.0557 23.8517 22.94 24.0133 22.8707C24.1748 22.8014 24.3533 22.7816 24.5261 22.8137C24.6989 22.8458 24.8583 22.9284 24.9842 23.0511C25.11 23.1738 25.1967 23.3311 25.2331 23.5031C25.2696 23.675 25.2543 23.8539 25.1891 24.0171C25.1239 24.1804 25.0117 24.3206 24.8668 24.4201C24.7219 24.5196 24.5508 24.5739 24.375 24.5762C24.2585 24.5776 24.1428 24.5561 24.0346 24.5128C23.9265 24.4694 23.8279 24.4051 23.7446 24.3236C23.6613 24.2421 23.595 24.1449 23.5494 24.0376C23.5038 23.9304 23.4798 23.8152 23.4788 23.6987H23.475Z" fill="#231F20"/>
<path d="M23.625 23.6948C23.6287 23.8386 23.6747 23.9781 23.7572 24.0958C23.8398 24.2136 23.9553 24.3044 24.0892 24.3569C24.2231 24.4094 24.3695 24.4212 24.5101 24.3909C24.6506 24.3606 24.7792 24.2895 24.8796 24.1866C24.98 24.0836 25.0478 23.9533 25.0745 23.812C25.1012 23.6707 25.0857 23.5246 25.0299 23.3921C24.974 23.2595 24.8803 23.1464 24.7605 23.0669C24.6407 22.9873 24.5001 22.9449 24.3562 22.9448C24.1606 22.9497 23.9746 23.0309 23.838 23.171C23.7014 23.3111 23.6249 23.4991 23.625 23.6948ZM23.6625 23.6948C23.664 23.5588 23.7055 23.4261 23.7818 23.3135C23.8582 23.2008 23.9659 23.1131 24.0918 23.0612C24.2176 23.0093 24.3558 22.9956 24.4894 23.0217C24.6229 23.0479 24.7459 23.1127 24.8428 23.2081C24.9398 23.3036 25.0066 23.4255 25.0348 23.5586C25.0631 23.6917 25.0516 23.8302 25.0017 23.9568C24.9518 24.0834 24.8658 24.1926 24.7544 24.2707C24.643 24.3488 24.511 24.3924 24.375 24.3961C24.2828 24.3966 24.1914 24.3788 24.1061 24.3437C24.0208 24.3086 23.9432 24.257 23.878 24.1918C23.8128 24.1266 23.7612 24.0491 23.7261 23.9638C23.6911 23.8785 23.6733 23.7871 23.6737 23.6948H23.6625Z" fill="#231F20"/>
<path d="M26.3026 24.5649H26.1113V22.8286H26.3626C26.6926 22.8286 26.9963 22.9149 26.9963 23.3086C26.9999 23.3688 26.9914 23.4291 26.9713 23.486C26.9513 23.5429 26.9201 23.5952 26.8796 23.6399C26.8391 23.6846 26.7901 23.7208 26.7354 23.7463C26.6808 23.7718 26.6216 23.7862 26.5613 23.7886L27.1126 24.5686H26.8763L26.3513 23.8186H26.3026V24.5686V24.5649ZM26.3026 23.6311H26.3626C26.5801 23.6311 26.8013 23.5899 26.8013 23.3199C26.8013 23.0499 26.5913 23.0049 26.3588 23.0049H26.3026V23.6274V23.6311Z" fill="#231F20"/>
<path d="M26.1113 22.8101V24.5838H26.3401V23.8338H26.3701L26.8801 24.5838H27.1313H27.1688L26.6101 23.7963C26.7236 23.7771 26.8261 23.7168 26.898 23.6269C26.97 23.537 27.0063 23.4238 27.0001 23.3088C27.0001 22.9751 26.7863 22.8101 26.3476 22.8101H26.1113ZM26.3626 22.8438C26.7826 22.8438 26.9813 22.9901 26.9813 23.3051C26.9844 23.363 26.9759 23.421 26.9563 23.4756C26.9368 23.5302 26.9066 23.5804 26.8676 23.6233C26.8285 23.6662 26.7813 23.701 26.7288 23.7255C26.6762 23.75 26.6193 23.7639 26.5613 23.7663H26.5276L27.0788 24.5426H26.8763L26.3663 23.7926H26.3026V24.5426H26.1263V22.8476H26.3626V22.8438Z" fill="#231F20"/>
<path d="M26.3026 22.9902V23.6502H26.3626C26.5764 23.6502 26.8201 23.6127 26.8201 23.3202C26.8201 23.0277 26.5839 22.9902 26.3589 22.9902H26.3026ZM26.3589 23.0277C26.5801 23.0277 26.7826 23.0502 26.7826 23.3202C26.7826 23.5902 26.5689 23.6127 26.3626 23.6127H26.3214V23.0277H26.3626H26.3589Z" fill="#231F20"/>
<path d="M28.875 22.8286H29.1337L28.32 23.6386L29.1637 24.5649H28.875L28.1625 23.7699L28.1137 23.8186V24.5686H27.9187V22.8286H28.125V23.5786L28.875 22.8286Z" fill="#231F20"/>
<path d="M29.1262 22.8102H28.875L28.1625 23.5302V22.8102H27.9337V24.584H28.1625V23.834L28.1925 23.8115L28.875 24.5765H29.1562H29.1975L28.3387 23.6315L29.175 22.8027H29.1337L29.1262 22.8102ZM29.0812 22.844L28.2862 23.6352L29.115 24.5465H28.875L28.1775 23.7552L28.1137 23.819C28.1137 23.819 28.1137 24.5277 28.1137 24.569H27.9562V22.8477H28.125V23.6165L28.875 22.8477H29.085L29.0812 22.844Z" fill="#231F20"/>
<defs>
<radialGradient id="paint0_radial_18_55" cx="0" cy="0" r="1" gradientUnits="userSpaceOnUse" gradientTransform="translate(22.6349 18.8052) scale(2.73375)">
<stop offset="0.01" stop-color="#FFEEE0"/>
<stop offset="0.11" stop-color="#FEE9D7"/>
<stop offset="0.28" stop-color="#FDDBBF"/>
<stop offset="0.49" stop-color="#FBC597"/>
<stop offset="0.74" stop-color="#F8A560"/>
<stop offset="1" stop-color="#F48120"/>
</radialGradient>
</defs>
</svg>
