<svg width="44" height="44" viewBox="0 0 44 44" fill="none" xmlns="http://www.w3.org/2000/svg">
<path fill-rule="evenodd" clip-rule="evenodd" d="M10.1515 18.7533C10.5346 18.6285 10.9349 18.5653 11.3378 18.566C13.1483 18.566 14.6596 19.8253 15.0057 21.5003L17.5712 20.9875C16.9825 18.141 14.4161 16 11.3382 16C10.6327 16 9.95577 16.1124 9.32119 16.3202L10.1515 18.7533Z" fill="#FFCA05"/>
<path fill-rule="evenodd" clip-rule="evenodd" d="M7.17265 26.9999L8.92878 25.0587C8.14481 24.3795 7.65026 23.3887 7.65026 22.2849C7.65026 21.1812 8.14392 20.1908 8.92745 19.5125L7.17176 17.5713C5.84016 18.7245 5 20.4088 5 22.2849C5 24.1615 5.84016 25.8463 7.17265 26.9999Z" fill="#00A4DF"/>
<path fill-rule="evenodd" clip-rule="evenodd" d="M15.0061 23.0713C14.6587 24.7458 13.1492 26.0043 11.3404 26.0043C10.9369 26.0051 10.5359 25.9414 10.1524 25.8156L9.32119 28.2514C9.95533 28.4592 10.6341 28.5711 11.34 28.5711C14.4143 28.5711 16.9803 26.4319 17.5712 23.5872L15.0061 23.0713Z" fill="#EE4123"/>
<path fill-rule="evenodd" clip-rule="evenodd" d="M24.8339 24.3501L24.8321 24.3519L24.7594 24.3028C24.5498 24.6435 24.2243 24.92 23.8118 25.0993C23.0283 25.4413 22.3023 25.3535 21.7809 24.8942L21.7332 24.9673C21.7323 24.9664 21.7323 24.966 21.7314 24.966L20.8422 26.302C21.0634 26.4563 21.3003 26.5867 21.5491 26.6909C22.5315 27.1012 23.5362 27.082 24.5262 26.6494C25.2428 26.3377 25.8043 25.8623 26.1887 25.2598L24.8339 24.3501ZM22.0579 21.0532C21.2306 21.41 20.8039 22.19 20.8917 23.1041L24.3969 21.5888C23.7939 20.8771 23.01 20.6416 22.0579 21.0532ZM19.7309 25.1238C19.6316 24.9582 19.5428 24.7865 19.4651 24.6097C19.0607 23.6665 19.0415 22.6907 19.3826 21.7538C19.7581 20.7264 20.4752 19.9397 21.4023 19.5392C22.5676 19.0353 23.8559 19.1348 24.9726 19.8006C25.6821 20.2091 26.1851 20.8405 26.5668 21.7329C26.6159 21.847 26.6583 21.9692 26.7002 22.0731L19.7309 25.1238ZM29.1359 17.5713V25.0003L30.286 25.4685L29.6327 26.9999L28.3636 26.4692C28.0786 26.3448 27.8846 26.1553 27.7379 25.9412C27.5974 25.7227 27.4926 25.424 27.4926 25.0204V17.5713H29.1359ZM32.1148 23.1077C32.1143 23.4073 32.1776 23.7036 32.3006 23.9767C32.4237 24.2499 32.6036 24.4936 32.8284 24.6917L31.6502 26.0144C31.2397 25.6494 30.9114 25.2013 30.6871 24.6999C30.4628 24.1985 30.3475 23.6552 30.3489 23.1059C30.3484 22.5569 30.4645 22.0141 30.6896 21.5133C30.9146 21.0125 31.2434 20.5652 31.6542 20.201L32.8337 21.5224C32.6078 21.7201 32.4267 21.9638 32.3027 22.2372C32.1787 22.5107 32.1147 22.8075 32.1148 23.1077ZM34.2108 25.2161C35.224 25.217 36.0695 24.4959 36.2666 23.5367L37.9982 23.8917C37.637 25.6616 36.0771 26.9928 34.209 26.991C33.792 26.9909 33.3778 26.9229 32.9827 26.7899L33.5463 25.1073C33.755 25.1769 33.9789 25.2157 34.2108 25.2161ZM34.2161 19.228C36.0856 19.2293 37.6437 20.5658 38 22.338L36.2679 22.6903C36.173 22.2152 35.9166 21.7876 35.5423 21.48C35.168 21.1723 34.6989 21.0036 34.2144 21.0024C33.9884 21.0024 33.7639 21.0389 33.5495 21.1103L32.9911 19.426C33.3861 19.2941 33.7998 19.2272 34.2161 19.228Z" fill="black"/>
</svg>
