<svg width="60" height="23" viewBox="0 0 60 23" fill="none" xmlns="http://www.w3.org/2000/svg">
<g clip-path="url(#clip0_27_761)">
<path d="M19.4227 9.56981C19.4237 8.93192 19.3666 8.29514 19.2519 7.6665H9.90759V11.2695H15.2584C15.1488 11.8446 14.9171 12.3928 14.5772 12.881C14.2372 13.3692 13.7961 13.7873 13.2804 14.1102V16.455H16.4745C18.3447 14.8268 19.4227 12.4179 19.4227 9.56981Z" fill="#4285F4"/>
<path d="M9.90753 18.7143C12.579 18.7143 14.8337 17.8845 16.4744 16.4547L13.2803 14.1144C12.3906 14.6863 11.2472 15.0095 9.90753 15.0095C7.3239 15.0095 5.12969 13.3647 4.3454 11.1479H1.0556V13.5591C1.87993 15.1089 3.14429 16.4117 4.70745 17.322C6.27061 18.2324 8.071 18.7144 9.90753 18.7143Z" fill="#34A853"/>
<path d="M4.34544 11.1483C3.93068 9.98666 3.93068 8.72865 4.34544 7.56701V5.15527H1.05564C0.361038 6.45943 -0.000732422 7.89898 -0.000732422 9.3588C-0.000732422 10.8186 0.361038 12.2582 1.05564 13.5623L4.34544 11.1483Z" fill="#FBBC04"/>
<path d="M28.3776 10.9939V17.5869H26.161V1.2995H32.0356C32.7371 1.28526 33.4346 1.40253 34.0877 1.64451C34.7409 1.88649 35.3368 2.24838 35.8408 2.70925C36.342 3.15008 36.7417 3.68364 37.015 4.27671C37.2883 4.86978 37.4294 5.50964 37.4294 6.15642C37.4294 6.80321 37.2883 7.44307 37.015 8.03614C36.7417 8.6292 36.342 9.16277 35.8408 9.6036C34.8129 10.5293 33.5445 10.9914 32.0356 10.9899H28.3764L28.3776 10.9939ZM28.3776 3.30689V8.99337H32.0926C32.682 9.00361 33.2616 8.8497 33.759 8.55084C34.2564 8.25198 34.6496 7.82142 34.8895 7.31287C35.1294 6.80433 35.2054 6.24033 35.108 5.69125C35.0107 5.14218 34.7442 4.63235 34.3419 4.22538C34.3219 4.20593 34.3043 4.18706 34.2813 4.16819C34.0018 3.8858 33.6619 3.66277 33.2841 3.51389C32.9063 3.365 32.4993 3.29367 32.0901 3.30461L28.3776 3.30689ZM42.5379 6.08122C44.1764 6.08122 45.4684 6.49413 46.414 7.31997C47.3596 8.1458 47.833 9.27876 47.8342 10.7188V17.5869H45.7145V16.0427H45.6194C44.7016 17.3169 43.4809 17.9536 41.9571 17.9529C40.6578 17.9529 39.5705 17.589 38.6952 16.8611C38.2754 16.5269 37.9398 16.1085 37.7128 15.6364C37.4857 15.1643 37.373 14.6504 37.3828 14.132C37.3828 12.9782 37.8445 12.0613 38.7679 11.3811C39.6912 10.7009 40.9227 10.36 42.4622 10.3585C43.777 10.3585 44.8629 10.5873 45.712 11.0397V10.5604C45.7146 10.2071 45.6339 9.85765 45.4757 9.53744C45.3175 9.21724 45.0859 8.9343 44.7975 8.70914C44.2115 8.20998 43.4476 7.93795 42.6584 7.94735C41.4217 7.94735 40.4424 8.44015 39.7205 9.42574L37.7734 8.26248C38.8438 6.80754 40.4313 6.08045 42.5361 6.08122H42.5379ZM39.6702 14.1766C39.6691 14.4425 39.735 14.7048 39.8626 14.9419C39.9901 15.179 40.1756 15.384 40.4037 15.54C40.8939 15.9038 41.5021 16.0967 42.1255 16.0862C43.0599 16.0837 43.9555 15.7326 44.6171 15.1094C45.3511 14.4566 45.7179 13.6908 45.7175 12.812C45.0263 12.2923 44.0629 12.0321 42.8274 12.0313C41.9274 12.0313 41.1769 12.2361 40.5757 12.6456C39.97 13.0636 39.6672 13.5692 39.6672 14.1766H39.6702ZM60.0001 6.44667L52.6035 22.5001H50.3167L53.0608 16.8823L48.1951 6.44667H50.6031L54.1158 14.4534H54.1636L57.5842 6.44667H60.0001Z" fill="white"/>
<path d="M9.90753 3.7054C11.32 3.68357 12.6848 4.18727 13.7073 5.10771L16.5374 2.43805C14.7436 0.847698 12.3679 -0.0257419 9.90753 0.00057801C8.07118 0.000932594 6.27106 0.483103 4.70801 1.39329C3.14496 2.30348 1.88046 3.60588 1.0556 5.15518L4.3454 7.56692C5.12969 5.3502 7.3239 3.7054 9.90753 3.7054Z" fill="#EA4335"/>
</g>
<defs>
<clipPath id="clip0_27_761">
<rect width="60" height="22.5" fill="white"/>
</clipPath>
</defs>
</svg>
