<svg width="44" height="44" viewBox="0 0 44 44" fill="none" xmlns="http://www.w3.org/2000/svg">
<path d="M14.0951 14H10.2839C8.59985 14.0796 7.22331 14.7576 6.82585 16.1556C6.6186 16.8848 6.50454 17.6855 6.34248 18.4414C5.51861 22.2845 4.78807 26.2336 4 30H33.6718C35.9657 30 37.5408 29.5155 37.9663 27.6956C38.1641 26.8502 38.3535 25.8928 38.5427 24.964C39.2801 21.3427 40.0183 17.7216 40.7737 14H14.0951Z" fill="#822124"/>
<path d="M13.7976 19.6865C13.957 19.5768 14.1623 19.077 13.9277 18.8689C13.8534 18.803 13.7292 18.7839 13.5559 18.8132C13.3951 18.8403 13.3026 18.8949 13.2398 18.9804C13.1389 19.1179 13.0463 19.5326 13.2027 19.6866C13.355 19.8366 13.6961 19.7563 13.7976 19.6865ZM11.5294 18.8689C11.4152 19.6096 11.2866 20.3358 11.1576 21.0617C10.3294 21.0704 9.48379 21.1025 8.68496 21.0431C8.83584 20.3329 8.94404 19.58 9.09398 18.8689H8.2016C7.88217 20.6804 7.59154 22.5209 7.23486 24.2952H8.14587C8.28873 23.3851 8.42242 22.4656 8.61061 21.6006C9.38735 21.5815 10.3183 21.5481 11.0647 21.6192C10.9108 22.5185 10.7248 23.3855 10.5813 24.2952H11.4923C11.7851 22.4569 12.0934 20.6343 12.4591 18.8689H11.5294ZM24.4132 20.4299C23.7044 20.1437 23.1471 20.6273 22.8888 21.0803C22.9474 20.8788 22.9715 20.6427 23.019 20.4299H22.3125C22.1398 21.7687 21.8852 23.0257 21.6433 24.2952H22.4427C22.5548 23.5417 22.6031 22.5259 22.8517 21.805C23.0503 21.229 23.5702 20.7383 24.3204 21.006C24.3308 20.7935 24.3916 20.6313 24.4132 20.4299ZM24.8593 23.3846C24.7856 23.1943 24.7667 22.8801 24.7851 22.6412C24.8264 22.1043 25.0221 21.4506 25.3242 21.1546C25.7411 20.7461 26.5641 20.8137 27.2206 21.0431C27.2409 20.822 27.2853 20.6247 27.3136 20.4113C26.237 20.2356 25.2154 20.345 24.6737 20.9131C24.1433 21.4693 23.7958 22.7476 24.0415 23.5519C24.3291 24.4931 25.6188 24.5442 26.6629 24.1838C26.7091 23.9946 26.7335 23.7837 26.7744 23.5891C26.2038 23.8853 25.1129 24.0393 24.8593 23.3846ZM33.839 20.4484C33.1325 20.0953 32.5442 20.6878 32.3146 21.0431C32.38 20.8608 32.3837 20.6167 32.4447 20.4298H31.7382C31.5477 21.757 31.3182 23.0452 31.0504 24.2951H31.8685C31.8736 23.7828 31.9743 23.4038 32.0543 22.9015C32.2252 21.8287 32.4763 20.6523 33.7276 21.0059C33.769 20.8245 33.7863 20.6187 33.839 20.4484ZM12.9795 20.4299C12.9579 20.433 12.9593 20.4593 12.9609 20.4856C12.7848 21.8023 12.5463 23.057 12.2917 24.2951H13.0911C13.2832 22.9695 13.5032 21.6719 13.7789 20.4298L12.9795 20.4299ZM20.0071 20.3556C19.4294 20.4001 18.9411 20.5662 18.5941 20.9317C18.1685 21.3798 17.8239 22.3707 17.9249 23.2732C18.069 24.5606 19.6726 24.5143 20.9552 24.2023C20.9771 23.9763 21.0318 23.7832 21.0668 23.5704C20.5384 23.7681 19.621 24.0439 19.0774 23.7006C18.6671 23.4412 18.6647 22.7847 18.7986 22.2139C19.6606 22.1865 20.5566 22.1917 21.4199 22.2139C21.4746 21.8094 21.6313 21.3684 21.4943 20.9689C21.3135 20.4414 20.666 20.3048 20.0071 20.3556ZM20.7693 21.7679H18.8915C18.9509 21.3364 19.3393 20.8621 19.9513 20.8387C20.5272 20.8167 20.9395 21.0501 20.7693 21.7679ZM16.9767 20.4299C16.3001 20.1758 15.4755 20.4791 15.1179 20.7676C15.1192 20.7803 15.1094 20.782 15.0989 20.7829C15.1049 20.7778 15.1116 20.7727 15.1179 20.7676C15.1179 20.7665 15.1178 20.7654 15.1176 20.7644C15.1236 20.6404 15.1672 20.5539 15.1733 20.4299H14.4854C14.1988 22.3362 13.8589 24.1891 13.5002 26.0234H14.2996C14.4153 25.309 14.4916 24.5554 14.6528 23.8863C14.8354 24.59 16.0275 24.4556 16.5306 24.1837C17.5684 23.6226 18.369 20.9526 16.9767 20.4299ZM16.3446 23.5704C15.9169 24.0232 14.8654 24.0164 14.7829 23.2545C14.747 22.923 14.8706 22.5754 14.9318 22.2325C14.9935 21.8853 15.038 21.5523 15.099 21.2475C15.5202 20.7334 16.7582 20.6712 16.8838 21.5263C16.9927 22.2686 16.6988 23.1955 16.3446 23.5704ZM36.8136 18.7574C36.7451 19.3579 36.6535 19.9353 36.5348 20.4856C34.5738 19.8651 33.3713 21.3073 33.3929 23.0873C33.3972 23.4315 33.4564 23.7729 33.6717 24.0164C34.043 24.4359 35.1058 24.5365 35.6425 24.1836C35.7463 24.1154 35.8525 23.9911 35.9213 23.905C35.973 23.8401 36.0551 23.6702 36.07 23.7191C36.0418 23.9076 35.9996 24.0824 35.9958 24.2951H36.7208C36.8606 22.2915 37.2926 20.5802 37.6132 18.7573H36.8137L36.8136 18.7574ZM35.0289 23.8677C34.4907 23.8793 34.2231 23.5463 34.2108 22.9944C34.1894 22.0276 34.6136 20.9536 35.4751 20.8573C35.8762 20.8125 36.1666 20.9057 36.4604 21.006C36.1906 22.0919 36.288 23.8407 35.0289 23.8677ZM28.1315 20.4299C28.0921 20.6507 28.0317 20.8505 27.9828 21.0617C28.4545 20.9434 29.9234 20.5809 30.065 21.2103C30.112 21.4194 30.0309 21.6416 29.972 21.805C28.6438 21.6793 27.5611 21.8998 27.2763 22.8456C27.0855 23.4792 27.2976 24.1026 27.7039 24.2766C28.4863 24.6117 29.438 24.2278 29.7675 23.7006C29.7333 23.8831 29.7009 24.0676 29.7119 24.2952H30.3997C30.407 23.6367 30.5029 23.1037 30.6042 22.5111C30.6905 22.0065 30.853 21.507 30.8273 21.0617C30.7681 20.0418 29.0777 20.4025 28.1315 20.4299ZM29.4328 23.5518C29.0209 23.955 27.8644 24.0695 27.9828 23.1058C28.0809 22.3055 28.9528 22.1354 29.8975 22.2509C29.8274 22.6888 29.7468 23.2447 29.4328 23.5518Z" fill="white"/>
</svg>
