<svg width="44" height="44" viewBox="0 0 44 44" fill="none" xmlns="http://www.w3.org/2000/svg">
<path d="M38.7658 29.7586C38.7639 31.1482 38.2111 32.4802 37.2285 33.4628C36.246 34.4453 34.9139 34.9981 33.5244 35H5V14.2521C4.99905 12.8607 5.55062 11.5259 6.53347 10.541C7.51631 9.55618 8.84999 9.00189 10.2414 9H38.7658V29.7586Z" fill="white"/>
<mask id="mask0_18_83" style="mask-type:luminance" maskUnits="userSpaceOnUse" x="27" y="10" width="10" height="24">
<path d="M29.4954 24.4354H31.6348C31.6954 24.4354 31.8416 24.414 31.9022 24.414C32.1225 24.3667 32.3194 24.2439 32.4587 24.0668C32.598 23.8897 32.6711 23.6695 32.6652 23.4442C32.6645 23.2206 32.589 23.0036 32.4507 22.8279C32.3125 22.6521 32.1194 22.5277 31.9022 22.4744C31.8143 22.4563 31.7245 22.4491 31.6348 22.453H29.4954V24.4354ZM31.4137 10.7544C30.9195 10.7525 30.4297 10.8483 29.9725 11.0361C29.5154 11.224 29.0998 11.5002 28.7496 11.849C28.3995 12.1979 28.1217 12.6124 27.9321 13.0689C27.7425 13.5253 27.6449 14.0147 27.6449 14.5089V18.4097H32.9469C33.0661 18.4068 33.1854 18.414 33.3035 18.4311C34.5015 18.4917 35.3893 19.1121 35.3893 20.1853C35.3893 21.0303 34.7903 21.7541 33.6778 21.8968V21.9396C34.8937 22.0216 35.8172 22.7026 35.8172 23.7544C35.8172 24.8883 34.7867 25.6335 33.4247 25.6335H27.6235V33.2673H33.1323C33.6254 33.2673 34.1136 33.1702 34.5691 32.9815C35.0246 32.7928 35.4385 32.5163 35.7872 32.1676C36.1358 31.819 36.4124 31.4051 36.601 30.9496C36.7897 30.4941 36.8868 30.0058 36.8868 29.5128V10.7544H31.3995H31.4137ZM32.4263 20.4313C32.4301 20.211 32.3507 19.9973 32.204 19.8327C32.0574 19.6682 31.8541 19.565 31.6348 19.5435C31.592 19.5435 31.4886 19.5221 31.428 19.5221H29.4954V21.337H31.4565C31.5262 21.3425 31.5962 21.3352 31.6633 21.3156C31.8775 21.2875 32.0738 21.1814 32.2146 21.0176C32.3554 20.8538 32.4308 20.6437 32.4263 20.4278V20.4313Z" fill="white"/>
</mask>
<g mask="url(#mask0_18_83)">
<path d="M37.8708 2.31836H25.4663V43.4149H37.8708V2.31836Z" fill="#329947"/>
<path d="M35.3605 19.7398L39.3825 42.841C39.3825 42.841 27.199 41.7071 26.9993 41.7321C26.7997 41.7571 26.8032 37.9811 26.8032 37.9811L27.5876 20.46L30.2404 18.6772L35.3605 19.7398Z" fill="#146643"/>
<path d="M33.7881 3.63428L26.9601 7.87015L27.0956 14.9763L36.8652 10.7404L33.7881 3.63428Z" fill="#1BCC38"/>
</g>
<mask id="mask1_18_83" style="mask-type:luminance" maskUnits="userSpaceOnUse" x="6" y="10" width="11" height="24">
<path d="M10.6407 10.7544C9.6449 10.7544 8.68992 11.15 7.98581 11.8541C7.2817 12.5582 6.88614 13.5132 6.88614 14.5089V23.7794C7.88806 24.3041 8.99661 24.5932 10.1272 24.6244C11.4287 24.6244 12.1275 23.84 12.1275 22.7667V18.3882H15.3365V22.7418C15.3365 24.4354 14.2668 25.8153 10.7013 25.8153C9.40787 25.8144 8.11944 25.6552 6.86475 25.3411V33.2459H12.3807C13.3758 33.2449 14.3299 32.849 15.0332 32.145C15.7365 31.441 16.1316 30.4865 16.1316 29.4914V10.7544H10.6407Z" fill="white"/>
</mask>
<g mask="url(#mask1_18_83)">
<path d="M17.9929 -0.67334H4.24417V42.0669H17.9929V-0.67334Z" fill="#0F549D"/>
<path d="M15.3472 18.3882L19.3692 41.4894C19.3692 41.4894 7.18569 40.3413 6.99315 40.3769C6.80061 40.4126 6.79704 36.626 6.79704 36.626L6.31926 24.9488L12.4877 25.234L15.3472 18.3882Z" fill="#02375E"/>
<path d="M13.0511 3.63379L6.22304 7.86966L6.35853 14.9758L16.1317 10.7399L13.0511 3.63379Z" fill="#1174CE"/>
</g>
<mask id="mask2_18_83" style="mask-type:luminance" maskUnits="userSpaceOnUse" x="17" y="10" width="10" height="24">
<path d="M21.0199 10.7544C20.0241 10.7544 19.0692 11.15 18.3651 11.8541C17.6609 12.5582 17.2654 13.5132 17.2654 14.5089V19.4187C18.2138 18.6129 19.8647 18.0994 22.5281 18.2207C23.5237 18.2834 24.5118 18.435 25.4804 18.6735V20.2637C24.5979 19.7921 23.626 19.5115 22.628 19.4401C20.6063 19.2939 19.3869 20.2851 19.3869 22.018C19.3869 23.7508 20.6027 24.7634 22.628 24.5959C23.6242 24.5145 24.5941 24.2344 25.4804 23.7722V25.3625C24.5122 25.6032 23.524 25.7548 22.5281 25.8153C19.8647 25.9401 18.2138 25.4231 17.2654 24.6173V33.2851H22.7742C23.7699 33.2851 24.7249 32.8895 25.429 32.1854C26.1331 31.4813 26.5287 30.5263 26.5287 29.5306V10.7544H21.0199Z" fill="white"/>
</mask>
<g mask="url(#mask2_18_83)">
<path d="M30.9964 -0.969238H15.0049V44.463H30.9964V-0.969238Z" fill="#B41F36"/>
<path d="M25.4734 18.6948L29.4954 41.796C29.4954 41.796 17.3119 40.6372 17.1193 40.6836C16.9268 40.7299 16.9232 36.9326 16.9232 36.9326L16.5667 20.8876L18.6097 18.7483L25.4734 18.6948Z" fill="#720A1E"/>
<path d="M23.4375 3.63379L16.6094 7.86966L16.7449 14.9758L26.5145 10.7399L23.4375 3.63379Z" fill="#E20E37"/>
</g>
</svg>
