<svg width="13" height="16" viewBox="0 0 13 16" fill="none" xmlns="http://www.w3.org/2000/svg">
<path d="M11.6071 7.0625H10.9107V4.95312C10.9107 2.49805 8.9317 0.5 6.5 0.5C4.0683 0.5 2.08929 2.49805 2.08929 4.95312V7.0625H1.39286C0.623884 7.0625 0 7.69238 0 8.46875V14.0938C0 14.8701 0.623884 15.5 1.39286 15.5H11.6071C12.3761 15.5 13 14.8701 13 14.0938V8.46875C13 7.69238 12.3761 7.0625 11.6071 7.0625ZM8.58929 7.0625H4.41071V4.95312C4.41071 3.79004 5.34799 2.84375 6.5 2.84375C7.65201 2.84375 8.58929 3.79004 8.58929 4.95312V7.0625Z" fill="#929DA9"/>
</svg>
