<svg width="44" height="44" viewBox="0 0 44 44" fill="none" xmlns="http://www.w3.org/2000/svg">
<path d="M26.4697 27.7872H17.7598V12.1304H26.4697V27.7872Z" fill="#6C6BBD"/>
<path d="M18.3136 19.9606C18.3117 18.4526 18.653 16.964 19.3115 15.6074C19.9701 14.2508 20.9286 13.0618 22.1146 12.1304C20.6456 10.9753 18.8812 10.2567 17.0231 10.057C15.165 9.85732 13.2881 10.1845 11.6072 11.0011C9.92623 11.8177 8.50896 13.0908 7.5174 14.6748C6.52584 16.2589 6 18.09 6 19.9588C6 21.8276 6.52584 23.6587 7.5174 25.2428C8.50896 26.8269 9.92623 28.1 11.6072 28.9166C13.2881 29.7332 15.165 30.0603 17.0231 29.8606C18.8812 29.6609 20.6456 28.9424 22.1146 27.7872C20.9291 26.8562 19.9708 25.6678 19.3123 24.3119C18.6538 22.9559 18.3123 21.468 18.3136 19.9606Z" fill="#D32011"/>
<path d="M38.2238 19.9608C38.2241 21.8291 37.6986 23.6598 36.7075 25.2435C35.7163 26.8272 34.2995 28.1001 32.619 28.9166C30.9385 29.733 29.0622 30.0601 27.2046 29.8604C25.347 29.6607 23.5831 28.9423 22.1145 27.7874C23.2996 26.8555 24.2577 25.6667 24.9164 24.3106C25.5752 22.9545 25.9175 21.4666 25.9175 19.959C25.9175 18.4513 25.5752 16.9634 24.9164 15.6073C24.2577 14.2513 23.2996 13.0625 22.1145 12.1306C23.5833 10.9754 25.3476 10.257 27.2055 10.0574C29.0634 9.85787 30.94 10.1853 32.6206 11.0022C34.3013 11.819 35.718 13.0924 36.7089 14.6767C37.6998 16.261 38.2248 18.0921 38.2238 19.9608Z" fill="#0099DF"/>
<path d="M29.42 32.2109C29.5594 32.2117 29.6978 32.2361 29.829 32.2834L29.6516 32.8083C29.5365 32.7627 29.4134 32.7405 29.2896 32.7431C28.9276 32.7431 28.7249 32.9856 28.7249 33.4237V34.9079H28.1493V32.2652H28.7177V32.5874C28.7885 32.466 28.8908 32.366 29.0138 32.2978C29.1368 32.2296 29.2758 32.1959 29.4163 32.2001L29.42 32.2109ZM27.2914 32.8083H26.3501V34.0029C26.3375 34.0582 26.338 34.1156 26.3517 34.1706C26.3653 34.2257 26.3917 34.2767 26.4287 34.3197C26.4656 34.3627 26.5122 34.3963 26.5646 34.418C26.617 34.4397 26.6737 34.4488 26.7302 34.4445C26.909 34.4386 27.0833 34.3875 27.2371 34.2961L27.4036 34.7884C27.1867 34.9245 26.9356 34.996 26.6796 34.9948C25.999 34.9948 25.7601 34.6328 25.7601 34.0137V32.8083H25.2352V32.2761H25.7709V31.4761H26.3501V32.2797H27.2914V32.8083ZM19.9318 33.3658C19.942 33.1884 20.0213 33.0221 20.1525 32.9024C20.2837 32.7827 20.4565 32.719 20.634 32.725C20.7201 32.7231 20.8057 32.7381 20.8859 32.7693C20.9662 32.8005 21.0395 32.8471 21.1017 32.9066C21.1638 32.9661 21.2137 33.0373 21.2484 33.1161C21.2831 33.1949 21.3019 33.2797 21.3038 33.3658H19.9318ZM21.9011 33.5974C21.9011 32.7721 21.387 32.2109 20.6449 32.2109C20.299 32.2462 19.9789 32.4099 19.7476 32.6696C19.5164 32.9293 19.391 33.2662 19.396 33.6139C19.401 33.9615 19.5361 34.2947 19.7747 34.5477C20.0132 34.8006 20.3379 34.955 20.6847 34.9803C21.0789 34.997 21.4654 34.8682 21.7707 34.6183L21.4884 34.1911C21.2703 34.3656 21.0002 34.4624 20.7209 34.4663C20.5305 34.4844 20.3405 34.4265 20.1927 34.3051C20.0448 34.1837 19.951 34.0086 19.9318 33.8183H21.8938C21.8938 33.7459 21.8938 33.6735 21.8938 33.5974H21.9011ZM24.4351 32.9494C24.1841 32.804 23.8999 32.7255 23.6097 32.7214C23.2948 32.7214 23.1066 32.8372 23.1066 33.0327C23.1066 33.2282 23.3057 33.2608 23.5554 33.2933L23.8269 33.3332C24.4025 33.4164 24.7501 33.659 24.7501 34.126C24.7501 34.593 24.3012 34.9803 23.5373 34.9803C23.129 34.9911 22.7281 34.8705 22.3934 34.6364L22.6577 34.1947C22.9117 34.3825 23.2216 34.4794 23.5373 34.4699C23.9283 34.4699 24.1383 34.354 24.1383 34.1477C24.1383 33.9993 23.9899 33.916 23.6749 33.8726L23.4034 33.8327C22.8097 33.7495 22.4911 33.4707 22.4911 33.0544C22.4911 32.5295 22.9219 32.2073 23.5772 32.2073C23.9581 32.1924 24.3353 32.2879 24.6632 32.4825L24.4279 32.9531L24.4351 32.9494ZM31.5268 32.754C31.4141 32.753 31.3022 32.7739 31.1974 32.8155C31.0985 32.8551 31.0087 32.9142 30.9331 32.9893C30.858 33.0662 30.799 33.1572 30.7594 33.2571C30.6745 33.4798 30.6745 33.7259 30.7594 33.9486C30.799 34.0485 30.858 34.1396 30.9331 34.2165C31.0087 34.2915 31.0985 34.3506 31.1974 34.3902C31.4093 34.4727 31.6444 34.4727 31.8563 34.3902C31.9552 34.3507 32.0451 34.2916 32.1205 34.2165C32.1971 34.14 32.2574 34.0489 32.2979 33.9486C32.3828 33.7259 32.3828 33.4798 32.2979 33.2571C32.2574 33.1568 32.1971 33.0657 32.1205 32.9893C32.0451 32.9141 31.9552 32.855 31.8563 32.8155C31.7515 32.7738 31.6396 32.7529 31.5268 32.754ZM31.5268 32.2073C31.7216 32.206 31.9147 32.2429 32.0952 32.3159C32.2638 32.383 32.4176 32.4827 32.5477 32.6092C32.6764 32.7348 32.7786 32.885 32.8482 33.0508C32.9923 33.406 32.9923 33.8034 32.8482 34.1585C32.7785 34.3244 32.6763 34.4745 32.5477 34.6002C32.4174 34.7265 32.2637 34.8261 32.0952 34.8934C31.7284 35.0355 31.3217 35.0355 30.9549 34.8934C30.7862 34.8264 30.6324 34.7268 30.5024 34.6002C30.3754 34.4739 30.2745 34.3238 30.2055 34.1585C30.0614 33.8034 30.0614 33.406 30.2055 33.0508C30.2761 32.8864 30.3787 32.7377 30.5073 32.6134C30.636 32.4891 30.7881 32.3916 30.9549 32.3268C31.1354 32.2537 31.3285 32.2168 31.5232 32.2182L31.5268 32.2073ZM16.5759 33.5938C16.5851 33.4381 16.6396 33.2884 16.7328 33.1633C16.8259 33.0381 16.9536 32.9429 17.1002 32.8894C17.2467 32.8359 17.4057 32.8264 17.5576 32.8621C17.7095 32.8978 17.8476 32.9771 17.955 33.0903C18.0624 33.2034 18.1343 33.3455 18.162 33.4991C18.1896 33.6526 18.1718 33.8109 18.1106 33.9544C18.0495 34.098 17.9477 34.2205 17.8178 34.3069C17.6879 34.3934 17.5356 34.4399 17.3796 34.4409C17.2698 34.4427 17.1609 34.4216 17.0597 34.3791C16.9585 34.3366 16.8673 34.2735 16.7917 34.1939C16.7162 34.1142 16.658 34.0198 16.6208 33.9165C16.5837 33.8132 16.5684 33.7033 16.5759 33.5938ZM18.7154 33.5938V32.2761H18.1362V32.5983C18.0379 32.4716 17.9107 32.3703 17.7652 32.3029C17.6197 32.2355 17.4602 32.2039 17.3 32.2109C16.944 32.2291 16.6087 32.3833 16.3632 32.6417C16.1177 32.9001 15.9808 33.2428 15.9808 33.5992C15.9808 33.9556 16.1177 34.2984 16.3632 34.5568C16.6087 34.8152 16.944 34.9694 17.3 34.9875C17.4602 34.9945 17.6197 34.963 17.7652 34.8956C17.9107 34.8282 18.0379 34.7269 18.1362 34.6002V34.9224H18.7118V33.5974L18.7154 33.5938ZM15.4573 34.9151V33.2608C15.4668 33.1214 15.4465 32.9816 15.3978 32.8507C15.3491 32.7197 15.2731 32.6006 15.1748 32.5014C15.0766 32.4021 14.9583 32.3248 14.8279 32.2747C14.6974 32.2247 14.5579 32.2029 14.4184 32.2109C14.2354 32.1989 14.0525 32.2363 13.8889 32.3191C13.7252 32.4018 13.5868 32.527 13.488 32.6816C13.3983 32.5319 13.27 32.4092 13.1165 32.3264C12.9629 32.2436 12.7899 32.2037 12.6156 32.2109C12.4636 32.2032 12.3123 32.2352 12.1764 32.3038C12.0406 32.3723 11.925 32.4751 11.8409 32.6019V32.2761H11.2798V34.9188H11.859V33.4707C11.8438 33.3779 11.85 33.2828 11.8771 33.1926C11.9042 33.1025 11.9514 33.0198 12.0153 32.9507C12.0792 32.8816 12.158 32.8279 12.2457 32.7939C12.3334 32.7598 12.4277 32.7461 12.5215 32.754C12.9016 32.754 13.0971 33.0037 13.0971 33.4526V34.9224H13.6763V33.4744C13.6645 33.384 13.6727 33.2921 13.7003 33.2053C13.728 33.1184 13.7743 33.0387 13.8361 32.9717C13.8979 32.9047 13.9736 32.8522 14.058 32.8177C14.1423 32.7832 14.2332 32.7676 14.3243 32.7721C14.7189 32.7721 14.9071 33.0218 14.9071 33.4707V34.9405H15.4863L15.4573 34.9151Z" fill="#110F0D"/>
</svg>
