<svg width="44" height="44" viewBox="0 0 44 44" fill="none" xmlns="http://www.w3.org/2000/svg">
<path d="M11.8792 34.9291V33.2718C11.8906 33.1311 11.8713 32.9895 11.8226 32.857C11.7739 32.7244 11.6969 32.6041 11.5971 32.5042C11.4972 32.4044 11.3769 32.3274 11.2443 32.2787C11.1118 32.23 10.9703 32.2107 10.8295 32.2221C10.646 32.2142 10.4634 32.2533 10.2992 32.3357C10.135 32.4181 9.99457 32.5411 9.89124 32.693C9.8009 32.5412 9.67071 32.4171 9.51481 32.3341C9.35891 32.2511 9.18325 32.2123 9.00689 32.2221C8.8557 32.2159 8.70542 32.2483 8.5702 32.3162C8.43499 32.3841 8.31928 32.4853 8.23399 32.6103V32.2904H7.65161V34.9434H8.23039V33.4659C8.21666 33.3768 8.22319 33.2857 8.24949 33.1994C8.2758 33.1131 8.3212 33.0339 8.38234 32.9676C8.44347 32.9013 8.51876 32.8496 8.60261 32.8164C8.68647 32.7831 8.77673 32.7692 8.86669 32.7757C9.25494 32.7757 9.44547 33.0237 9.44547 33.4659V34.9291H10.0243V33.4659C10.0126 33.3771 10.0205 33.2868 10.0476 33.2015C10.0746 33.1161 10.1201 33.0377 10.1808 32.9718C10.2415 32.906 10.316 32.8543 10.3989 32.8204C10.4818 32.7865 10.5711 32.7712 10.6606 32.7757C11.0488 32.7757 11.2393 33.0237 11.2393 33.4659V34.9291H11.8792ZM20.4747 32.2904H19.5328V31.4743H18.9612V32.2904H18.4292V32.8152H18.9612V34.0303C18.9612 34.6379 19.2093 34.9974 19.8743 34.9974C20.1262 34.9922 20.373 34.9256 20.5933 34.8032L20.4279 34.3071C20.2792 34.3995 20.1069 34.4469 19.9318 34.4437C19.8744 34.45 19.8164 34.4423 19.7626 34.4214C19.7088 34.4005 19.6609 34.3669 19.6228 34.3236C19.5847 34.2802 19.5576 34.2283 19.5438 34.1722C19.5301 34.1162 19.53 34.0577 19.5436 34.0016V32.8009H20.4818V32.2904H20.4747ZM25.3925 32.2365C25.2568 32.2338 25.1228 32.2665 25.0036 32.3314C24.8845 32.3964 24.7843 32.4913 24.7131 32.6067V32.2904H24.1199V34.9434H24.7131V33.4372C24.7131 32.995 24.9072 32.7469 25.2667 32.7469C25.3882 32.7514 25.5087 32.7694 25.6262 32.8009L25.7915 32.2508C25.6635 32.2275 25.5334 32.2178 25.4033 32.2221L25.3925 32.2365ZM17.9582 32.5133C17.6345 32.3153 17.2588 32.2188 16.8797 32.2365C16.2147 32.2365 15.7725 32.5672 15.7725 33.0921C15.7725 33.5342 16.1032 33.7823 16.6856 33.865L16.9624 33.8937C17.268 33.9476 17.4334 34.0303 17.4334 34.1705C17.4334 34.3647 17.2105 34.5013 16.8258 34.5013C16.5095 34.503 16.2004 34.4063 15.9415 34.2244L15.6647 34.6666C16.0024 34.8884 16.4005 35.0002 16.8043 34.9866C17.5772 34.9866 18.0193 34.6271 18.0193 34.131C18.0193 33.6349 17.6598 33.412 17.1062 33.3293L16.8294 33.3006C16.5814 33.2718 16.3872 33.2179 16.3872 33.0525C16.3872 32.8871 16.5814 32.7469 16.8833 32.7469C17.1731 32.7599 17.4565 32.836 17.7138 32.9698L17.9618 32.4989L17.9582 32.5133ZM33.3804 32.2365C33.2412 32.2337 33.1037 32.2682 32.9823 32.3365C32.861 32.4048 32.7601 32.5043 32.6902 32.6247V32.2904H32.1114V34.9434H32.6902V33.4372C32.6902 32.995 32.8843 32.7469 33.2438 32.7469C33.3653 32.7514 33.4859 32.7694 33.6033 32.8009L33.7686 32.2472C33.6406 32.2239 33.5105 32.2142 33.3804 32.2185V32.2365ZM25.9713 33.6025C25.9633 33.7884 25.9946 33.9739 26.063 34.1469C26.1314 34.3199 26.2354 34.4765 26.3683 34.6067C26.5012 34.7369 26.66 34.8377 26.8344 34.9025C27.0088 34.9673 27.1948 34.9947 27.3805 34.983C27.7203 35.0005 28.0545 34.8917 28.3188 34.6774L28.0419 34.2065C27.8463 34.3644 27.6031 34.4518 27.3517 34.4545C27.241 34.4575 27.1308 34.437 27.0286 34.3944C26.9263 34.3517 26.8343 34.2878 26.7585 34.207C26.6828 34.1261 26.625 34.0301 26.5891 33.9253C26.5532 33.8205 26.5399 33.7093 26.5501 33.5989C26.5447 33.4897 26.5614 33.3805 26.5992 33.2778C26.6369 33.1752 26.6949 33.0811 26.7696 33.0013C26.8444 32.9215 26.9345 32.8575 27.0345 32.8132C27.1345 32.7689 27.2424 32.7451 27.3517 32.7433C27.6031 32.7461 27.8463 32.8334 28.0419 32.9914L28.308 32.5241C28.0437 32.3098 27.7095 32.2009 27.3697 32.2185C27.184 32.2067 26.998 32.2341 26.8236 32.299C26.6492 32.3638 26.4904 32.4646 26.3575 32.5947C26.2246 32.7249 26.1206 32.8816 26.0522 33.0546C25.9838 33.2276 25.9526 33.4131 25.9605 33.5989L25.9713 33.6025ZM31.3313 33.6025V32.2904H30.7525V32.6211C30.6551 32.4948 30.5289 32.3937 30.3844 32.3262C30.24 32.2586 30.0814 32.2266 29.9221 32.2329C29.5677 32.2509 29.2338 32.4045 28.9893 32.6617C28.7449 32.9189 28.6086 33.2602 28.6086 33.6151C28.6086 33.97 28.7449 34.3113 28.9893 34.5685C29.2338 34.8258 29.5677 34.9793 29.9221 34.9974C30.0822 35.0098 30.2429 34.9805 30.3884 34.9125C30.5339 34.8445 30.6593 34.74 30.7525 34.6091V34.9398H31.3313V33.6025ZM29.2031 33.6025C29.2031 33.4973 29.2238 33.393 29.2641 33.2957C29.3044 33.1985 29.3635 33.1101 29.4379 33.0357C29.5123 32.9612 29.6007 32.9022 29.698 32.8619C29.7952 32.8216 29.8995 32.8009 30.0048 32.8009C30.11 32.8009 30.2143 32.8216 30.3116 32.8619C30.4088 32.9022 30.4972 32.9612 30.5716 33.0357C30.6461 33.1101 30.7051 33.1985 30.7454 33.2957C30.7857 33.393 30.8064 33.4973 30.8064 33.6025C30.8064 33.7078 30.7857 33.8121 30.7454 33.9093C30.7051 34.0066 30.6461 34.095 30.5716 34.1694C30.4972 34.2438 30.4088 34.3029 30.3116 34.3432C30.2143 34.3835 30.11 34.4042 30.0048 34.4042C29.8995 34.4042 29.7952 34.3835 29.698 34.3432C29.6007 34.3029 29.5123 34.2438 29.4379 34.1694C29.3635 34.095 29.3044 34.0066 29.2641 33.9093C29.2238 33.8121 29.2031 33.7078 29.2031 33.6025ZM22.2685 32.2221C21.914 32.2435 21.5814 32.4003 21.3393 32.6601C21.0972 32.92 20.9643 33.2629 20.968 33.618C20.9717 33.9731 21.1117 34.3132 21.3591 34.5679C21.6066 34.8227 21.9424 34.9725 22.2973 34.9866C22.6875 34.9949 23.0686 34.8679 23.3758 34.6271L23.0989 34.2137C22.8773 34.3858 22.6066 34.4828 22.326 34.4905C22.1364 34.5071 21.9476 34.4504 21.7984 34.332C21.6493 34.2137 21.5512 34.0427 21.5244 33.8542H23.4872V33.6313C23.516 32.7757 23.0163 32.2221 22.2721 32.2221H22.2685ZM22.2685 32.7182C22.3538 32.7182 22.4382 32.735 22.517 32.7678C22.5957 32.8005 22.6672 32.8485 22.7274 32.909C22.7875 32.9694 22.8351 33.0412 22.8674 33.1201C22.8997 33.1991 22.9161 33.2836 22.9156 33.3689H21.5495C21.5699 33.1928 21.6546 33.0305 21.7873 32.9131C21.9199 32.7957 22.0913 32.7314 22.2685 32.7326V32.7182ZM36.6661 33.6025V31.2119H36.0874V32.5924C35.99 32.4661 35.8638 32.3649 35.7193 32.2974C35.5748 32.2299 35.4163 32.1979 35.2569 32.2041C34.9025 32.2222 34.5686 32.3757 34.3242 32.6329C34.0797 32.8902 33.9434 33.2315 33.9434 33.5864C33.9434 33.9412 34.0797 34.2825 34.3242 34.5398C34.5686 34.797 34.9025 34.9505 35.2569 34.9686C35.4171 34.981 35.5777 34.9518 35.7232 34.8837C35.8687 34.8157 35.9942 34.7112 36.0874 34.5803V34.9111H36.6661V33.6025ZM34.538 33.6025C34.538 33.3899 34.6224 33.186 34.7728 33.0357C34.9231 32.8853 35.127 32.8009 35.3396 32.8009C35.5522 32.8009 35.7561 32.8853 35.9065 33.0357C36.0568 33.186 36.1413 33.3899 36.1413 33.6025C36.1413 33.8151 36.0568 34.0191 35.9065 34.1694C35.7561 34.3197 35.5522 34.4042 35.3396 34.4042C35.127 34.4042 34.9231 34.3197 34.7728 34.1694C34.6224 34.0191 34.538 33.8151 34.538 33.6025ZM15.1254 33.6025V32.2904H14.5574V32.6211C14.46 32.4948 14.3338 32.3937 14.1894 32.3262C14.0449 32.2586 13.8864 32.2266 13.727 32.2329C13.3726 32.2509 13.0387 32.4045 12.7942 32.6617C12.5498 32.9189 12.4135 33.2602 12.4135 33.6151C12.4135 33.97 12.5498 34.3113 12.7942 34.5685C13.0387 34.8258 13.3726 34.9793 13.727 34.9974C13.8872 35.0098 14.0478 34.9805 14.1933 34.9125C14.3388 34.8445 14.4643 34.74 14.5574 34.6091V34.9398H15.1362V33.6025H15.1254ZM12.9685 33.6025C12.9685 33.3899 13.0529 33.186 13.2033 33.0357C13.3536 32.8853 13.5575 32.8009 13.7702 32.8009C13.9828 32.8009 14.1867 32.8853 14.337 33.0357C14.4874 33.186 14.5718 33.3899 14.5718 33.6025C14.5871 33.7158 14.578 33.8311 14.545 33.9406C14.5121 34.05 14.4561 34.1512 14.3809 34.2373C14.3056 34.3234 14.2129 34.3923 14.1088 34.4396C14.0047 34.4869 13.8917 34.5113 13.7773 34.5113C13.663 34.5113 13.55 34.4869 13.4459 34.4396C13.3418 34.3923 13.249 34.3234 13.1738 34.2373C13.0985 34.1512 13.0426 34.05 13.0096 33.9406C12.9767 33.8311 12.9676 33.7158 12.9829 33.6025H12.9685Z" fill="black"/>
<path d="M26.4708 12.1299H17.7639V27.7713H26.4708V12.1299Z" fill="#FF5F00"/>
<path d="M18.3177 19.9525C18.3178 18.4475 18.6583 16.9621 19.3139 15.6074C19.9695 14.2527 20.923 13.0639 22.1032 12.13C20.6355 10.9753 18.8724 10.257 17.0157 10.0572C15.1589 9.85729 13.2834 10.184 11.6036 10.9998C9.92374 11.8156 8.50738 13.0877 7.51644 14.6706C6.52551 16.2535 6 18.0832 6 19.9507C6 21.8182 6.52551 23.648 7.51644 25.2309C8.50738 26.8137 9.92374 28.0858 11.6036 28.9016C13.2834 29.7175 15.1589 30.0441 17.0157 29.8443C18.8724 29.6444 20.6355 28.9261 22.1032 27.7714C20.9211 26.8401 19.9661 25.6523 19.3104 24.2978C18.6546 22.9432 18.3152 21.4574 18.3177 19.9525Z" fill="#EB001B"/>
<path d="M38.2157 19.9525C38.2167 21.8181 37.6925 23.6464 36.7033 25.2281C35.714 26.8099 34.2996 28.0813 32.6217 28.897C30.9438 29.7127 29.0702 30.0397 27.2152 29.8407C25.3602 29.6416 23.5987 28.9245 22.1321 27.7714C23.3121 26.8378 24.2656 25.6493 24.9211 24.2949C25.5766 22.9405 25.9171 21.4553 25.9171 19.9507C25.9171 18.446 25.5766 16.9608 24.9211 15.6064C24.2656 14.252 23.3121 13.0635 22.1321 12.1299C23.5989 10.9766 25.3608 10.2595 27.2161 10.0606C29.0714 9.86163 30.9453 10.189 32.6233 11.0051C34.3013 11.8212 35.7157 13.0932 36.7047 14.6755C37.6937 16.2578 38.2173 18.0865 38.2157 19.9525Z" fill="#F79E1B"/>
</svg>
