<svg width="44" height="44" viewBox="0 0 44 44" fill="none" xmlns="http://www.w3.org/2000/svg">
<path d="M28.9337 21.6611V26.8105H32.0728V23.9108H35.232C36.8821 23.9108 38.2906 22.9751 38.8339 21.6611H28.9337Z" fill="#006644"/>
<path d="M28.7888 17C28.8029 17.2626 28.8401 17.5192 28.8985 17.7667C28.9126 17.822 28.9246 17.8773 28.9407 17.9317C28.9478 17.9538 28.9528 17.9759 28.9599 17.9991C29.5203 19.7769 31.1814 21.0667 33.1453 21.0667H38.9426C38.9778 20.8685 39 20.6653 39 20.456C39 19.4469 38.5643 18.5424 37.8761 17.9105C37.2604 17.3471 36.4434 17 35.5439 17H28.7888Z" fill="url(#paint0_linear_18_105)"/>
<path d="M23.3698 18.0363L21.1725 22.7983H20.9491V17H17.8271V26.8127H20.4762C21.1725 26.8127 21.8043 26.4083 22.0961 25.7764L24.2935 21.0154H24.5168V26.8137H27.6388V17H24.9887C24.2935 17 23.6606 17.4045 23.3698 18.0363Z" fill="#006644"/>
<path d="M8.8314 18.2898L10.1323 22.7983H10.3547L11.6556 18.2898C11.8759 17.5262 12.5752 17 13.37 17H16.488V26.8127H13.366V21.0144H13.1426L11.3588 26.8127H9.12921L7.34536 21.0144H7.122V26.8127H4V17H7.11798C7.91181 17 8.61106 17.5262 8.8314 18.2898Z" fill="#006644"/>
<defs>
<linearGradient id="paint0_linear_18_105" x1="28.7885" y1="19.0334" x2="38.9993" y2="19.0334" gradientUnits="userSpaceOnUse">
<stop stop-color="#50A9DF"/>
<stop offset="1" stop-color="#2D3E91"/>
</linearGradient>
</defs>
</svg>
