<svg class="svg-icon" style="width: 1em; height: 1em;vertical-align: middle;fill: currentColor;overflow: hidden;" viewBox="0 0 1024 1024" version="1.1" xmlns="http://www.w3.org/2000/svg"><path d="M451.84 326.826667s25.6-11.52 41.813333 6.826666c16.213333 18.773333 57.6 90.453333 57.6 162.133334 0 71.68-17.92 148.053333-37.12 173.226666-18.346667 25.6-36.693333 25.6-50.773333 16.213334-13.653333-8.96-228.693333-173.226667-240.213333-177.92-11.946667-4.693333-16.213333 6.826667-4.693334 68.693333 11.52 64-7.253333 81.493333-23.466666 84.053333-15.786667 1.28-64.426667-11.52-66.986667-141.226666-2.133333-129.28 32.426667-150.186667 48.64-150.186667 30.293333 0 261.546667 207.36 277.333333 205.653333 14.08-2.133333 20.906667-90.026667-5.973333-159.573333-30.72-75.093333 3.84-87.893333 3.84-87.893333m371.626667-129.28C901.12 351.573333 896 497.493333 896 512c0 14.506667 5.12 160.426667-72.533333 314.453333 0 0-20.053333 23.466667-50.346667 9.386667-29.866667-14.08-19.626667-50.773333-19.626667-50.773333s63.146667-121.6 61.44-270.933334V512c1.706667-149.333333-61.44-273.066667-61.44-273.066667s-10.24-36.693333 19.626667-50.773333c30.293333-14.08 50.346667 9.386667 50.346667 9.386667m-150.613334 69.12c63.573333 115.626667 59.306667 230.826667 58.453334 245.333333 0.853333 14.506667 5.12 124.586667-58.453334 249.6 0 0-20.053333 23.466667-50.346666 9.386667-29.866667-14.08-19.626667-50.773333-19.626667-50.773334s40.96-58.88 47.36-206.08V512c-4.266667-148.053333-47.36-203.52-47.36-203.52s-10.24-37.12 19.626667-50.773333c30.293333-14.08 50.346667 8.96 50.346666 8.96z" fill="" /></svg>