<svg width="44" height="44" viewBox="0 0 44 44" fill="none" xmlns="http://www.w3.org/2000/svg">
<path d="M5.28645 22.2541H5.76495C6.006 22.2541 6.3148 22.2541 6.58485 22.0516C6.81636 21.8682 6.93205 21.5789 6.93205 21.2993C6.93205 20.9424 6.75852 20.7012 6.57529 20.5661C6.3148 20.3829 5.9869 20.3637 5.68778 20.3637H5.28645V22.2541ZM5.8711 19.2834C6.5945 19.2834 7.09607 19.3605 7.56878 19.7753C8.0895 20.2382 8.22466 20.8651 8.22466 21.3281C8.22466 21.5789 8.18603 22.2733 7.69399 22.7653C7.33723 23.1222 6.8066 23.3343 6.0641 23.3343H5.28645V25.7168H4V19.2834H5.8711Z" fill="#1A468E"/>
<path d="M10.7974 22.2444H11.1216C11.3627 22.2444 12.356 22.2154 12.356 21.2703C12.356 20.3154 11.3722 20.3057 11.1409 20.3057H10.7974V22.2444ZM11.3722 19.2834C12.2596 19.2834 12.7129 19.5148 13.012 19.7655C13.5039 20.1802 13.6486 20.7301 13.6486 21.2124C13.6486 21.8394 13.3978 22.3891 12.8963 22.7265C12.7323 22.8425 12.5008 22.9485 12.1921 23.0064L14.1983 25.7168H12.6357L10.9188 23.1435H10.7973V25.7168H9.51093V19.2834H11.3722Z" fill="#1A468E"/>
<path d="M26.0957 20.7494C25.7195 20.2479 25.2758 20.1995 25.0444 20.1995C24.3695 20.1995 24.157 20.6239 24.157 20.9519C24.157 21.1062 24.2052 21.2509 24.3596 21.3861C24.514 21.5305 24.7263 21.6077 25.1314 21.7525C25.6329 21.926 26.1055 22.0996 26.4334 22.3986C26.7227 22.6591 26.9833 23.0932 26.9833 23.749C26.9833 25.0029 26.0766 25.8613 24.7454 25.8613C23.5591 25.8613 22.8646 25.138 22.5271 24.646L23.347 23.8646C23.6556 24.4917 24.2438 24.7232 24.6974 24.7232C25.2662 24.7232 25.6906 24.376 25.6906 23.8356C25.6906 23.6044 25.6137 23.4211 25.4401 23.2569C25.1988 23.0352 24.813 22.91 24.4465 22.7846C24.1089 22.6687 23.7038 22.5143 23.3757 22.225C23.1638 22.0419 22.8646 21.685 22.8646 21.0291C22.8646 20.0838 23.5012 19.1385 24.9288 19.1385C25.3337 19.1385 26.0957 19.2157 26.7517 19.891L26.0957 20.7494Z" fill="#1A468E"/>
<path d="M30.9651 20.4154V25.7168H29.6786V20.4095H28.2537V19.2834H32.401V20.4154H30.9651Z" fill="#1A468E"/>
<path d="M33.6714 25.7168H34.9576V19.2834H33.6714V25.7168Z" fill="#1A468E"/>
<path d="M37.5144 22.2444H37.8387C38.0798 22.2444 39.0732 22.2154 39.0732 21.2703C39.0732 20.3154 38.0894 20.3057 37.8578 20.3057H37.5144V22.2444ZM38.0893 19.2834C38.9767 19.2834 39.4296 19.5148 39.729 19.7655C40.221 20.1802 40.3657 20.7301 40.3657 21.2124C40.3657 21.8394 40.1144 22.3891 39.6134 22.7265C39.4496 22.8425 39.2178 22.9485 38.9092 23.0064L40.9154 25.7168H39.3531L37.6361 23.1317H37.5144V25.7168H36.228V19.2834H38.0893Z" fill="#1A468E"/>
<path d="M17.7917 22.5081C17.7916 22.5053 17.7912 22.5027 17.7912 22.5C17.7912 22.1408 18.0824 21.8497 18.4416 21.8497C18.8008 21.8497 19.092 22.1408 19.092 22.5C19.092 22.8579 18.803 23.1478 18.4458 23.1502V24.0283C19.288 24.0261 19.9701 23.3428 19.9701 22.5C19.9701 21.6557 19.2857 20.9716 18.4416 20.9716C17.5975 20.9716 16.9131 21.6557 16.9131 22.5C16.9131 22.5027 16.9135 22.5053 16.9135 22.5081H17.7917Z" fill="#FBC709"/>
<path d="M20.6941 21.3952C20.8577 21.7285 20.9499 22.1035 20.9499 22.5C20.9499 23.8874 19.8251 25.0124 18.4376 25.0124C17.0502 25.0124 15.9255 23.8874 15.9255 22.5C15.9255 21.1626 16.9708 20.0695 18.2891 19.9926L18.9154 19.0334C18.7591 19.012 18.5998 19 18.4376 19C16.5047 19 14.9375 20.567 14.9375 22.5C14.9375 24.433 16.5047 26 18.4376 26C20.3707 26 21.9377 24.433 21.9377 22.5C21.9377 21.7463 21.6986 21.0486 21.2933 20.4776L20.6941 21.3952Z" fill="#1A468E"/>
</svg>
