<svg width="44" height="44" viewBox="0 0 44 44" fill="none" xmlns="http://www.w3.org/2000/svg">
<path d="M38.9095 17.7351L41.0565 21.9984L36.543 26.2637L38.9095 17.7351Z" fill="#008C44"/>
<path d="M37.4227 17.7351L39.5666 21.9984L35.0561 26.2637L37.4227 17.7351Z" fill="#F47920"/>
<path d="M3 24.7124L5.14069 17H8.56311C9.63271 17 10.3472 17.1693 10.7107 17.5183C11.0716 17.8644 11.1411 18.4294 10.9236 19.2235C10.792 19.6913 10.592 20.0839 10.3173 20.3942C10.0448 20.705 9.68542 20.9508 9.24285 21.1315C9.61832 21.2218 9.85717 21.401 9.96427 21.6698C10.0708 21.9385 10.0585 22.3304 9.92913 22.8442L9.66878 23.9215L9.66804 23.9506C9.59291 24.2523 9.61515 24.4137 9.73756 24.4268L9.65869 24.7124H7.34344C7.35129 24.5309 7.36568 24.3687 7.381 24.2325C7.39782 24.093 7.41857 23.985 7.43913 23.9108L7.65499 23.1406C7.76376 22.7401 7.77049 22.4607 7.66957 22.2998C7.56771 22.1346 7.3397 22.0533 6.97974 22.0533H6.00677L5.26479 24.7124H3ZM6.48821 20.3153H7.53033C7.89553 20.3153 8.16503 20.2632 8.33118 20.1553C8.49808 20.0466 8.62199 19.8629 8.69469 19.5971C8.77001 19.3268 8.7515 19.1384 8.64348 19.0314C8.53564 18.9226 8.27754 18.8697 7.87179 18.8697H6.88947L6.48821 20.3153Z" fill="#1B3281"/>
<path d="M17.2777 19.0213L15.6996 24.7124H13.7818L14.0175 23.8787C13.68 24.2103 13.3346 24.462 12.9864 24.6229C12.641 24.7866 12.2766 24.8672 11.8929 24.8672C11.5757 24.8672 11.3034 24.8096 11.0842 24.6954C10.8623 24.5816 10.6971 24.4085 10.5859 24.1803C10.4872 23.9806 10.4443 23.7339 10.4611 23.4391C10.4788 23.1491 10.5813 22.6598 10.7711 21.9746L11.589 19.0213H13.6867L12.8705 21.9608C12.7513 22.391 12.7229 22.6934 12.781 22.8581C12.8416 23.0242 13.0032 23.11 13.2656 23.11C13.5299 23.11 13.7521 23.0143 13.9356 22.819C14.1218 22.6254 14.2655 22.3366 14.3735 21.9524L15.183 19.0213H17.2777Z" fill="#1B3281"/>
<path d="M16.5166 24.7124L18.6551 17H21.5968C22.2459 17 22.7482 17.0383 23.1065 17.1224C23.464 17.203 23.7444 17.3338 23.9528 17.5183C24.2139 17.7595 24.3739 18.0582 24.4396 18.4165C24.5015 18.7748 24.4649 19.1921 24.3294 19.6821C24.0898 20.5443 23.6698 21.2049 23.0714 21.6666C22.4711 22.1222 21.7284 22.3512 20.8419 22.3512H19.4652L18.8113 24.7124H16.5166ZM19.9865 20.4676H20.7262C21.2045 20.4676 21.5407 20.4086 21.7377 20.2946C21.9283 20.1791 22.0638 19.9739 22.1464 19.6821C22.229 19.3865 22.2077 19.1798 22.0829 19.0643C21.9627 18.9493 21.6557 18.8912 21.1643 18.8912H20.4261L19.9865 20.4676Z" fill="#1B3281"/>
<path d="M26.7971 24.7125L26.8184 24.172C26.4802 24.4252 26.1376 24.6166 25.7931 24.7362C25.4502 24.8581 25.085 24.9199 24.6938 24.9199C24.0997 24.9199 23.6853 24.7584 23.4457 24.446C23.2091 24.1329 23.1703 23.6834 23.3317 23.11C23.4863 22.5441 23.7612 22.1275 24.1578 21.8612C24.5522 21.5917 25.2108 21.3988 26.1348 21.2755C26.252 21.2564 26.409 21.2411 26.6056 21.2173C27.2887 21.1383 27.6722 20.9563 27.7548 20.6593C27.7978 20.4967 27.7716 20.3767 27.6707 20.3031C27.5733 20.2266 27.3913 20.1891 27.1285 20.1891C26.9104 20.1891 26.7349 20.2343 26.591 20.3283C26.4473 20.4232 26.34 20.5619 26.2673 20.757H24.2221C24.4067 20.1163 24.7841 19.6323 25.3506 19.3086C25.915 18.9793 26.6592 18.8208 27.581 18.8208C28.0144 18.8208 28.4026 18.8613 28.7457 18.9494C29.0894 19.0337 29.3406 19.1538 29.5036 19.2992C29.7041 19.4807 29.8228 19.6876 29.8566 19.9164C29.8957 20.1446 29.8529 20.4716 29.7333 20.8996L28.8535 24.0725C28.8253 24.1765 28.8199 24.2692 28.8352 24.3534C28.8535 24.4338 28.8887 24.5026 28.9507 24.5517L28.9034 24.7125H26.7971ZM27.307 22.1713C27.0842 22.2608 26.7947 22.3466 26.4349 22.4408C25.8699 22.5923 25.552 22.7946 25.4833 23.0448C25.4356 23.2057 25.4549 23.3296 25.5335 23.4238C25.6111 23.5134 25.7459 23.5586 25.9357 23.5586C26.2839 23.5586 26.5635 23.4706 26.7719 23.2967C26.9809 23.1207 27.1371 22.8443 27.2464 22.463C27.2655 22.3819 27.2823 22.3236 27.2932 22.28L27.307 22.1713Z" fill="#1B3281"/>
<path d="M28.9195 26.955L29.385 25.2705H29.9854C30.1859 25.2705 30.3436 25.2309 30.4554 25.1587C30.5688 25.0838 30.646 24.9574 30.6905 24.7874C30.7128 24.7124 30.7264 24.6335 30.7357 24.544C30.7417 24.4491 30.7417 24.3487 30.7357 24.2325L30.4154 19.0213H32.5387L32.5058 22.4743L34.3594 19.0213H36.334L33.057 24.6849C32.6851 25.3179 32.4148 25.7529 32.2432 25.9902C32.0739 26.2246 31.9132 26.4068 31.7571 26.5301C31.5549 26.7008 31.3291 26.8217 31.0854 26.8922C30.8411 26.9641 30.4692 27 29.9693 27C29.8254 27 29.6598 26.9972 29.4807 26.9879C29.303 26.9809 29.1133 26.9703 28.9195 26.955Z" fill="#1B3281"/>
</svg>
