<svg width="123" height="18" viewBox="0 0 123 18" fill="none" xmlns="http://www.w3.org/2000/svg">
<path d="M80.5465 17.9496V0.405834H83.3533V1.71657C83.8044 1.11162 84.4059 0.6579 85.1076 0.405834C85.709 0.204182 86.3105 0.103353 86.9621 0.103353C88.6663 0.103353 90.3203 0.809138 91.5232 2.01905C94.0293 4.64053 94.0293 8.7744 91.5733 11.4463C90.9719 12.0513 90.2702 12.5554 89.5183 12.9083C88.7665 13.2612 87.9144 13.4124 87.1125 13.4124C86.4609 13.4124 85.7592 13.3116 85.1577 13.1099C84.456 12.9083 83.8545 12.4546 83.3533 11.9V18L80.5465 17.9496ZM86.8619 2.5736C85.8594 2.52318 84.9071 2.92649 84.2054 3.63227C83.5037 4.48929 83.1027 5.54797 83.1528 6.65705C83.1027 7.81656 83.4536 8.92564 84.1553 9.83308C85.6589 11.2951 88.0147 11.2446 89.4682 9.78267C90.2201 8.97606 90.621 7.91738 90.5709 6.8083C90.621 5.64879 90.2201 4.53971 89.4682 3.68269C88.8166 2.9769 87.8643 2.52318 86.8619 2.5736ZM109.617 0.355418H112.575L116.434 9.37936L120.043 0.355418H123L115.632 17.8992H112.675L115.031 12.3537L109.617 0.355418ZM105.106 13.1603V11.8496C104.655 12.4546 104.054 12.8579 103.302 13.0595C102.65 13.2612 101.999 13.362 101.347 13.362C100.495 13.362 99.6932 13.2108 98.9413 12.8579C98.1394 12.505 97.4377 12.0008 96.8863 11.3959C96.2848 10.7909 95.8337 10.0347 95.533 9.22812C95.2323 8.42152 95.0318 7.56449 95.0318 6.70747C94.9817 4.94301 95.6834 3.22897 96.9364 1.91823C98.1394 0.6579 99.7934 -0.0478849 101.498 0.00252817C102.149 0.00252817 102.751 0.103354 103.352 0.305006C104.054 0.557071 104.655 0.960375 105.106 1.61575V0.305006H107.913V13.1099L105.106 13.1603ZM98.9413 3.68269C98.1895 4.53971 97.7885 5.64879 97.8386 6.8083C97.7885 7.91738 98.1895 8.97606 98.9413 9.78267C99.643 10.4885 100.545 10.8918 101.548 10.8918C102.55 10.9422 103.553 10.5389 104.254 9.83308C105.006 9.02647 105.257 7.91738 105.257 6.65705C105.307 5.54797 104.956 4.43888 104.204 3.63227C103.502 2.92649 102.55 2.52318 101.548 2.5736C100.595 2.52318 99.643 2.92649 98.9413 3.68269ZM64.9083 2.17029V12.8579H61.0489L58.3924 4.03558H58.3423L58.4927 12.8579H55.8362V2.17029H59.846L62.3521 10.6397H62.4022L62.2518 2.17029H64.9083ZM9.57335 12.9587L11.5782 2.11988H16.3399L18.3447 12.9587H15.4377L13.9841 3.12814H13.934L12.4303 12.9587H9.57335ZM32.2286 2.17029L32.4792 13.0091H29.7726L29.7225 3.27938H29.6724L27.868 13.0091H25.1112L23.3068 3.27938H23.2567L23.2066 13.0091H20.4499L20.7005 2.17029H25.1112L26.4144 10.438H26.4646L27.8178 2.17029H32.2286ZM49.0697 11.3455C49.5709 11.3959 50.022 11.043 50.1222 10.5389C50.1724 10.3876 50.1724 10.2364 50.1724 10.0851V2.11988H52.9291V9.88349C52.9291 10.0851 52.879 10.4885 52.879 10.5893C52.6785 12.6058 51.0746 13.2612 49.1198 13.2612C47.165 13.2612 45.5611 12.6058 45.3606 10.5893C45.3606 10.4885 45.3105 10.0851 45.3105 9.88349V2.11988H48.0672V10.1356C48.0672 10.2868 48.0672 10.438 48.1174 10.5893C48.1675 11.0934 48.6186 11.3959 49.0697 11.3455ZM5.01223 9.88349C5.11247 10.1356 5.11247 10.3876 5.06235 10.6901C4.86186 11.2446 4.21027 11.5471 3.6088 11.3455C3.20783 11.1942 2.95721 10.8413 2.90709 10.438V9.37936H0V10.186C0 12.6058 1.90465 13.362 3.90954 13.362C5.8643 13.362 7.46822 12.6562 7.71883 10.8918C7.81908 10.2868 7.81908 9.68184 7.71883 9.07688C7.26773 6.8083 3.1577 6.15292 2.85697 4.84218C2.80685 4.64053 2.80685 4.43888 2.85697 4.28764C2.95722 3.83392 3.40832 3.48103 3.85942 3.58186C4.36064 3.53144 4.81174 3.88433 4.86186 4.38847C4.86186 4.43888 4.86186 4.48929 4.86186 4.53971V5.24549H7.51834V4.48929C7.51834 2.11988 5.4132 1.76699 3.90954 1.76699C2.00489 1.76699 0.40098 2.42236 0.150368 4.18682C0.0501238 4.69095 0.100245 5.19508 0.20049 5.64879C0.601468 7.91738 4.46088 8.52234 5.01223 9.88349ZM39.9976 9.88349C40.0978 10.1356 40.0978 10.3876 40.0477 10.6901C39.9976 11.043 39.7469 11.3959 38.9951 11.3959C38.4939 11.4463 37.9927 11.0934 37.9425 10.5893C37.9425 10.5389 37.9425 10.4884 37.9425 10.438V9.37936H35.0856V10.186C35.0856 12.6058 36.9902 13.3116 38.945 13.3116C40.8496 13.3116 42.4535 12.6562 42.7042 10.8918C42.8044 10.2868 42.8044 9.73225 42.7042 9.1273C42.2531 6.85871 38.1932 6.20334 37.9425 4.99342C37.8924 4.79177 37.8924 4.59012 37.9425 4.43888C38.0428 3.98516 38.4438 3.68268 38.8949 3.7331C39.3961 3.68268 39.8472 4.03558 39.8973 4.53971C39.8973 4.59012 39.8973 4.64053 39.8973 4.69095V5.34632H42.5538V4.59012C42.5538 2.27112 40.4487 1.91823 38.945 1.91823C37.0403 1.91823 35.4865 2.52318 35.1858 4.28764C35.0856 4.74136 35.0856 5.24549 35.2359 5.69921C35.687 7.91739 39.4963 8.52234 39.9976 9.88349ZM71.5244 11.2446C72.0257 11.2951 72.5269 10.9422 72.6271 10.438C72.6773 10.2868 72.6773 10.186 72.6773 10.0347V8.47193H71.5746V6.90912H75.3839V9.83308C75.3839 10.0851 75.3839 10.2868 75.3337 10.5389C75.1333 12.505 73.4291 13.2108 71.5244 13.2108C69.6198 13.2108 67.9156 12.505 67.7653 10.5389C67.7152 10.2868 67.7152 10.0851 67.7152 9.83308V5.2959C67.7152 5.09425 67.7653 4.74136 67.7653 4.59012C68.0159 2.52318 69.6198 1.91823 71.5244 1.91823C73.4291 1.91823 75.1332 2.5736 75.2836 4.59012C75.3337 4.8926 75.3337 5.2959 75.3337 5.2959V5.64879H72.6271V5.04384C72.6271 4.8926 72.6271 4.74136 72.577 4.59012C72.4768 4.08599 72.0257 3.7331 71.5244 3.78351C71.0232 3.7331 70.5721 4.08599 70.4719 4.59012C70.4218 4.74136 70.4218 4.94301 70.4218 5.09425V10.0347C70.4218 10.186 70.4218 10.2868 70.4719 10.438C70.4719 10.7405 70.7225 11.2446 71.5244 11.2446Z" fill="white"/>
</svg>
