<svg width="44" height="44" viewBox="0 0 44 44" fill="none" xmlns="http://www.w3.org/2000/svg">
<path fill-rule="evenodd" clip-rule="evenodd" d="M10.85 8H10.8177H10.8177C9.95253 7.99999 9.25756 7.99999 8.6954 8.04592C8.11749 8.09314 7.6142 8.1926 7.14992 8.42916C6.40903 8.80667 5.80667 9.40903 5.42916 10.1499C5.1926 10.6142 5.09314 11.1175 5.04592 11.6954C4.99999 12.2576 4.99999 12.9525 5 13.8177V13.8177V13.85V15.1384C5 15.5526 5.33579 15.8884 5.75 15.8884C6.16421 15.8884 6.5 15.5526 6.5 15.1384V13.85C6.5 12.9451 6.50058 12.3114 6.54094 11.8175C6.58057 11.3324 6.65481 11.0485 6.76567 10.8309C6.99937 10.3723 7.37226 9.99937 7.83091 9.76567C8.04848 9.65481 8.3324 9.58057 8.81754 9.54094C9.31144 9.50058 9.94506 9.5 10.85 9.5H13.6594C14.0736 9.5 14.4094 9.16421 14.4094 8.75C14.4094 8.33579 14.0736 8 13.6594 8H10.85ZM32.2877 9.5C33.1927 9.5 33.8263 9.50058 34.3202 9.54094C34.8053 9.58057 35.0893 9.65481 35.3068 9.76567C35.7655 9.99937 36.1384 10.3723 36.3721 10.8309C36.4829 11.0485 36.5572 11.3324 36.5968 11.8175C36.6371 12.3114 36.6377 12.9451 36.6377 13.85V15.1384C36.6377 15.5526 36.9735 15.8884 37.3877 15.8884C37.8019 15.8884 38.1377 15.5526 38.1377 15.1384V13.85V13.8177C38.1377 12.9525 38.1377 12.2576 38.0918 11.6954C38.0446 11.1175 37.9451 10.6142 37.7086 10.1499C37.3311 9.40903 36.7287 8.80667 35.9878 8.42916C35.5235 8.1926 35.0202 8.09314 34.4423 8.04592C33.8802 7.99999 33.1852 7.99999 32.32 8H32.2877H29.4783C29.0641 8 28.7283 8.33579 28.7283 8.75C28.7283 9.16421 29.0641 9.5 29.4783 9.5H32.2877ZM6.5 27.9152C6.5 27.5009 6.16421 27.1652 5.75 27.1652C5.33579 27.1652 5 27.5009 5 27.9152V29.2035V29.2358C4.99999 30.101 4.99999 30.796 5.04592 31.3582C5.09314 31.9361 5.1926 32.4394 5.42916 32.9036C5.80667 33.6445 6.40903 34.2469 7.14992 34.6244C7.6142 34.8609 8.11749 34.9604 8.6954 35.0076C9.25756 35.0536 9.95252 35.0536 10.8177 35.0536H10.85H13.6594C14.0736 35.0536 14.4094 34.7178 14.4094 34.3036C14.4094 33.8893 14.0736 33.5536 13.6594 33.5536H10.85C9.94506 33.5536 9.31144 33.553 8.81754 33.5126C8.3324 33.473 8.04848 33.3987 7.83091 33.2879C7.37226 33.0542 6.99937 32.6813 6.76567 32.2226C6.65481 32.0051 6.58057 31.7212 6.54094 31.236C6.50058 30.7421 6.5 30.1085 6.5 29.2035V27.9152ZM38.1377 27.9152C38.1377 27.5009 37.8019 27.1652 37.3877 27.1652C36.9735 27.1652 36.6377 27.5009 36.6377 27.9152V29.2035C36.6377 30.1085 36.6371 30.7421 36.5968 31.236C36.5572 31.7211 36.4829 32.0051 36.3721 32.2226C36.1384 32.6813 35.7655 33.0542 35.3068 33.2879C35.0893 33.3987 34.8053 33.473 34.3202 33.5126C33.8263 33.553 33.1927 33.5536 32.2877 33.5536H29.4783C29.0641 33.5536 28.7283 33.8893 28.7283 34.3036C28.7283 34.7178 29.0641 35.0536 29.4783 35.0536H32.2877H32.32C33.1852 35.0536 33.8802 35.0536 34.4423 35.0076C35.0202 34.9604 35.5235 34.8609 35.9878 34.6244C36.7287 34.2469 37.3311 33.6445 37.7086 32.9036C37.9451 32.4394 38.0446 31.9361 38.0918 31.3582C38.1377 30.796 38.1377 30.101 38.1377 29.2359V29.2035V27.9152ZM32.516 16.9637H10.6216C10.6338 16.2487 10.6809 15.8107 10.8625 15.4543C11.0782 15.0309 11.4224 14.6867 11.8458 14.471C12.3271 14.2258 12.9572 14.2258 14.2173 14.2258H28.9203C30.1804 14.2258 30.8105 14.2258 31.2918 14.471C31.7152 14.6867 32.0594 15.0309 32.2751 15.4543C32.4567 15.8107 32.5038 16.2487 32.516 16.9637ZM32.5203 19.7015V17.6921L32.5203 17.8258V25.2278C32.5203 26.4879 32.5203 27.118 32.2751 27.5993C32.0594 28.0227 31.7152 28.3669 31.2918 28.5826C30.8105 28.8278 30.1804 28.8278 28.9203 28.8278H14.2173C12.9572 28.8278 12.3271 28.8278 11.8458 28.5826C11.4224 28.3669 11.0782 28.0227 10.8625 27.5993C10.6173 27.118 10.6173 26.4879 10.6173 25.2278V19.7015H32.5203ZM17.9183 25.1774H12.4425V27.0026H17.9183V25.1774Z" fill="#929DA9"/>
</svg>
