<svg width="44" height="44" viewBox="0 0 44 44" fill="none" xmlns="http://www.w3.org/2000/svg">
<path fill-rule="evenodd" clip-rule="evenodd" d="M33.954 4C34.7053 4.1371 36 5.02034 36 5.77182V38.2442C36 38.9958 34.9795 40.016 34.2282 40.016H8.77182C7.9519 40.016 7 39.0749 7 38.2442V6.04602C7 5.29454 8.15765 4.1371 8.90892 4H33.954Z" fill="#AD338E"/>
<path fill-rule="evenodd" clip-rule="evenodd" d="M24.8711 17.3369C26.8107 20.3154 25.9685 24.3023 22.9902 26.2419C20.0116 28.1816 16.0249 27.3393 14.0852 24.3607L15.9341 23.1184C17.1936 25.0525 19.7825 25.5991 21.7164 24.34C23.6505 23.0805 24.1971 20.4914 22.938 18.5575L24.8711 17.3369Z" fill="white"/>
<path fill-rule="evenodd" clip-rule="evenodd" d="M29.1745 14.6034C27.231 11.6276 23.2429 10.7906 20.2671 12.734C17.2911 14.6773 16.4541 18.6655 18.3977 21.6413L20.2804 20.4502C19.0184 18.5179 19.5619 15.9282 21.4944 14.6661C23.4267 13.4041 26.0164 13.9476 27.2783 15.8801L29.1745 14.6034Z" fill="black"/>
<path fill-rule="evenodd" clip-rule="evenodd" d="M9.27783 19.2302C9.27783 12.4803 14.7501 7.00781 21.5 7.00781C28.25 7.00781 33.7225 12.48 33.7225 19.2302C33.7225 25.9802 28.2502 31.4524 21.5 31.4524C14.7501 31.4524 9.27783 25.9802 9.27783 19.2302ZM21.5 30.5967C27.7774 30.5967 32.8667 25.5078 32.8667 19.2302C32.8667 12.9528 27.7774 7.8636 21.5 7.8636C15.2226 7.8636 10.1336 12.9528 10.1336 19.2302C10.1336 25.5078 15.2226 30.5967 21.5 30.5967ZM22.9046 34.0524H23.6868L23.0428 36.9478H25.1453L24.998 37.5999H22.1134L22.9046 34.0524ZM14.0976 36.5189C14.2535 36.8187 14.8941 37.1874 15.5235 37.1673C16.1895 37.1464 16.4276 36.9577 16.4729 36.639C16.4909 36.513 16.542 36.2248 15.9885 36.1578L15.0913 36.0601C14.1379 35.9328 13.9845 35.5473 14.0062 35.0711C14.0357 34.4198 14.8515 33.9159 15.7274 33.9036C16.4993 33.8932 17.1537 34.0653 17.4597 34.4793L16.918 34.8067C16.4696 34.4522 16.0647 34.4254 15.585 34.4553C15.2497 34.4762 14.7976 34.6106 14.7288 34.9344C14.68 35.1637 14.6921 35.3078 15.1724 35.3652L16.3079 35.5141C16.8315 35.5738 17.2693 36.0668 17.2275 36.4859C17.1662 37.1015 16.6295 37.8296 15.3452 37.7667C14.3613 37.7188 13.7855 37.3349 13.5215 36.855L14.0976 36.5189ZM17.888 35.8092C18.0404 34.7397 19.0311 33.8729 20.1006 33.8729C21.1701 33.8729 21.9132 34.7397 21.7607 35.8092C21.6082 36.8788 20.6176 37.7456 19.5483 37.7456C18.4788 37.7456 17.7353 36.8786 17.888 35.8092ZM19.645 37.0675C20.3401 37.0675 20.984 36.504 21.0832 35.809C21.1824 35.1137 20.6992 34.5502 20.0041 34.5502C19.3089 34.5502 18.6648 35.1137 18.5657 35.809C18.4667 36.504 18.9497 37.0675 19.645 37.0675ZM25.6056 35.8092C25.7581 34.7397 26.7487 33.8729 27.8182 33.8729C28.8878 33.8729 29.631 34.7397 29.4786 35.8092C29.3261 36.8788 28.3355 37.7456 27.2659 37.7456C26.1964 37.7456 25.4531 36.8786 25.6056 35.8092ZM27.3623 37.0675C28.0576 37.0675 28.7015 36.504 28.8009 35.809C28.8996 35.1137 28.4166 34.5502 27.7213 34.5502C27.0264 34.5502 26.3825 35.1137 26.2831 35.809C26.1839 36.504 26.6671 37.0675 27.3623 37.0675Z" fill="white"/>
</svg>
