<svg width="44" height="44" viewBox="0 0 44 44" fill="none" xmlns="http://www.w3.org/2000/svg">
<path d="M13.5167 30.9653L17.3472 14.0302C17.5984 12.9232 19.0026 12.0248 20.1167 12H12.6997C11.5784 12 10.1424 12.909 9.87007 14.0302L6.04659 30.9653C6.02512 31.0655 6.01093 31.1672 6.00415 31.2695V31.5843C6.03404 31.9786 6.21531 32.3461 6.51 32.6098C6.8047 32.8735 7.18997 33.013 7.58518 32.9991H15.0553C14.806 33.0059 14.5586 32.9531 14.3338 32.8451C14.1089 32.7371 13.9131 32.577 13.7626 32.3781C13.6122 32.1792 13.5113 31.9472 13.4686 31.7015C13.4258 31.4558 13.4423 31.2034 13.5167 30.9653Z" fill="#E21836"/>
<path d="M22.5566 30.9652L26.3836 14.0301C26.6347 12.9301 28.0212 12.0388 29.1318 12.0034H20.1267C19.0125 12.0246 17.6083 12.923 17.3572 14.0336L13.5161 30.9652C13.4423 31.203 13.4263 31.455 13.4695 31.7003C13.5126 31.9455 13.6135 32.177 13.7639 32.3755C13.9143 32.5739 14.1098 32.7337 14.3343 32.8415C14.5588 32.9493 14.8057 33.0021 15.0546 32.9954H24.0952C23.8462 33.0021 23.5993 32.9493 23.3748 32.8415C23.1504 32.7337 22.9548 32.5739 22.8044 32.3755C22.654 32.177 22.5531 31.9455 22.51 31.7003C22.4669 31.455 22.4828 31.203 22.5566 30.9652Z" fill="#00447C"/>
<path d="M37.2457 12.0073H29.1318C28.0212 12.0426 26.6347 12.934 26.3836 14.034L22.5566 30.9655C22.4829 31.2033 22.4669 31.4553 22.51 31.7006C22.5531 31.9459 22.654 32.1773 22.8044 32.3758C22.9548 32.5742 23.1504 32.734 23.3748 32.8418C23.5993 32.9496 23.8462 33.0024 24.0952 32.9957H32.5839C33.1425 32.9504 33.6732 32.7328 34.1027 32.3729C34.5323 32.013 34.8395 31.5287 34.982 30.9867L38.809 14.0516C38.8855 13.8109 38.9027 13.5553 38.8593 13.3065C38.8159 13.0577 38.7132 12.823 38.5597 12.6223C38.4063 12.4217 38.2067 12.261 37.978 12.1539C37.7492 12.0469 37.498 11.9966 37.2457 12.0073Z" fill="#007B84"/>
<path d="M20.2716 24.3443H20.4131C20.4643 24.3512 20.5165 24.3425 20.5626 24.3191C20.6087 24.2957 20.6467 24.2588 20.6713 24.2134L21.025 23.6652H22.0048L21.7996 24.0189H22.9739L22.8253 24.5706H21.4388C21.3824 24.6797 21.2965 24.7708 21.1908 24.8333C21.0851 24.8959 20.9639 24.9274 20.8411 24.9243H20.1266L20.2858 24.3478M20.1266 25.133H22.6945L22.5318 25.7308H21.4848L21.3257 26.3073H22.3302L22.1675 26.905H21.163L20.9295 27.7574C20.8706 27.9013 20.946 27.9649 21.1559 27.9484H21.9765L21.8244 28.5108H20.2504C19.9533 28.5108 19.8507 28.3399 19.9427 27.998L20.2398 26.9086H19.5996L19.7729 26.3073H20.4167L20.5758 25.7308H19.9498L20.1266 25.133ZM24.2295 23.6652L24.1906 24.0189C24.4614 23.8209 24.7801 23.6988 25.1138 23.6652H26.7408L26.1041 25.9005C26.0522 26.1576 25.8282 26.2861 25.4321 26.2861H23.5964L23.1649 27.8671C23.1401 27.952 23.1649 27.9944 23.2675 27.9944H23.6212L23.4868 28.4861H22.5742C22.2205 28.4861 22.0731 28.3788 22.1321 28.1642L23.3523 23.6616H24.2154L24.2295 23.6652ZM25.6054 24.3018H24.1552L23.9819 24.9102C24.1762 24.7899 24.4007 24.7274 24.6292 24.7298C25.0324 24.7298 25.4922 24.7298 25.4922 24.7298L25.6054 24.3018ZM25.0784 25.7166C25.0984 25.7235 25.1197 25.7254 25.1406 25.7222C25.1615 25.719 25.1813 25.7108 25.1984 25.6983C25.2154 25.6858 25.2291 25.6693 25.2384 25.6503C25.2477 25.6314 25.2523 25.6104 25.2517 25.5893L25.3401 25.2674H23.8758L23.7556 25.7166H25.0784ZM24.0986 26.4452H24.9369V26.7989H25.1597C25.2729 26.7989 25.3295 26.7636 25.3295 26.6928L25.3967 26.4594H26.1041L26.0122 26.8131C25.9769 26.9494 25.8949 27.069 25.7805 27.1511C25.6661 27.2332 25.5265 27.2725 25.3861 27.2623H24.8945V27.8812C24.8945 27.9803 24.9758 28.0298 25.1597 28.0298H25.5806L25.4321 28.5108H24.4382C24.3813 28.5228 24.3224 28.5206 24.2666 28.5045C24.2108 28.4883 24.1598 28.4586 24.1182 28.418C24.0766 28.3775 24.0456 28.3273 24.028 28.2719C24.0104 28.2165 24.0067 28.1577 24.0173 28.1005L24.0986 26.4452Z" fill="white"/>
<path d="M27.6464 24.3686L27.8409 23.686H28.8242L28.7818 23.9371C29.0517 23.8015 29.3442 23.7164 29.6448 23.686H30.8615L30.667 24.3686H30.476L29.5599 27.5944H29.7509L29.5705 28.2346H29.3795L29.3017 28.514H28.3467L28.4245 28.2346H26.5464L26.7303 27.5944H26.9178L27.8338 24.3686H27.6464ZM28.7075 24.3686L28.4564 25.2423C28.7138 25.1449 28.9804 25.0738 29.2522 25.0301C29.3335 24.7259 29.4396 24.3686 29.4396 24.3686H28.7039H28.7075ZM28.3538 25.6526L28.0885 26.5651C28.3403 26.4396 28.6099 26.3537 28.8879 26.3104C28.9834 25.9567 29.0753 25.649 29.0753 25.649H28.3396L28.3538 25.6526ZM28.5377 27.5979L28.7252 26.9329H27.9789L27.7914 27.5979H28.5271H28.5377ZM30.9146 23.6436H31.8377L31.8766 23.9973C31.8766 24.0857 31.9226 24.1246 32.0322 24.1246H32.1949L32.0287 24.7011H31.339C31.292 24.7147 31.2425 24.7173 31.1943 24.7087C31.1462 24.7 31.1007 24.6804 31.0613 24.6513C31.022 24.6222 30.9899 24.5845 30.9675 24.541C30.9451 24.4975 30.933 24.4494 30.9322 24.4005L30.9146 23.6436ZM30.6422 24.8815H33.6345L33.4576 25.5005H32.5062L32.3435 26.077H33.2949L33.1181 26.696H32.057L31.8165 27.0497H32.3364L32.4567 27.7747C32.4689 27.8127 32.495 27.8447 32.5297 27.8643C32.5645 27.884 32.6053 27.8899 32.6441 27.8809H32.8068L32.6371 28.4786H32.0676C31.7705 28.4786 31.6184 28.3937 31.6078 28.1815L31.4451 27.5272L30.9712 28.2346C30.9246 28.3281 30.8505 28.4051 30.7587 28.4551C30.667 28.5051 30.5621 28.5256 30.4583 28.514H29.5882L29.758 27.9162H30.0303C30.0864 27.916 30.1417 27.9024 30.1915 27.8765C30.2413 27.8507 30.2843 27.8134 30.3168 27.7677L31.056 26.7066H30.1046L30.2814 26.0876H31.3142L31.4769 25.5111H30.4547L30.6422 24.8815Z" fill="white"/>
<path d="M13.9265 20.662C13.838 21.1754 13.5572 21.6358 13.1412 21.9494C12.6814 22.2649 12.1315 22.4225 11.5744 22.3986C11.3334 22.4198 11.0906 22.3898 10.862 22.3106C10.6334 22.2313 10.4242 22.1046 10.248 21.9388C10.0482 21.7091 9.9432 21.4119 9.95443 21.1076C9.95562 20.9566 9.97221 20.8061 10.0039 20.6584L10.6866 17.3726H11.7158L11.0438 20.623C11.0247 20.7042 11.0152 20.7873 11.0155 20.8706C11.0078 21.0176 11.0516 21.1627 11.1393 21.2809C11.2128 21.3643 11.3049 21.4292 11.4081 21.4704C11.5113 21.5116 11.6228 21.5279 11.7335 21.5179C12.0129 21.5304 12.2884 21.4481 12.5152 21.2845C12.7242 21.1208 12.8643 20.8849 12.9078 20.623L13.5834 17.3726H14.6091L13.9265 20.6584" fill="white"/>
<path d="M14.8779 19.3674H15.6065L15.5287 19.7918L15.6348 19.6715C15.7427 19.5506 15.8752 19.4542 16.0235 19.389C16.1717 19.3237 16.3323 19.291 16.4943 19.2931C16.6185 19.2821 16.7435 19.3008 16.8591 19.3475C16.9747 19.3943 17.0776 19.4677 17.1593 19.5619C17.2305 19.6703 17.2772 19.7929 17.2961 19.9212C17.3151 20.0495 17.3058 20.1803 17.2689 20.3047L16.8692 22.3031H16.1123L16.466 20.4921C16.5081 20.3539 16.4967 20.205 16.4342 20.0748C16.3967 20.0264 16.3474 19.9887 16.291 19.9651C16.2346 19.9416 16.173 19.933 16.1123 19.9403C15.9338 19.9372 15.7607 20.0016 15.6277 20.1207C15.4887 20.2542 15.3968 20.4292 15.366 20.6194L15.0335 22.3066H14.2908L14.8779 19.3709" fill="white"/>
<path d="M23.2146 19.3676H23.9432L23.8618 19.7921L23.9609 19.6683C24.0687 19.5473 24.2012 19.451 24.3495 19.3857C24.4978 19.3204 24.6584 19.2877 24.8204 19.2898C24.9446 19.2786 25.0697 19.2971 25.1853 19.3439C25.301 19.3906 25.4038 19.4642 25.4853 19.5586C25.5568 19.6669 25.6036 19.7895 25.6225 19.9178C25.6415 20.0462 25.6321 20.1771 25.595 20.3014L25.1953 22.2998H24.4454L24.7991 20.4888C24.8416 20.351 24.8315 20.2023 24.7709 20.0715C24.7334 20.0232 24.684 19.9854 24.6276 19.9618C24.5712 19.9383 24.5097 19.9298 24.449 19.9371C24.2693 19.933 24.0948 19.9975 23.9609 20.1175C23.8212 20.2504 23.7292 20.4257 23.6991 20.6162L23.3631 22.3033H22.6274L23.2146 19.3676Z" fill="white"/>
<path d="M18.2521 19.3712H19.0656L18.4325 22.3033H17.6226L18.2521 19.3712ZM18.5068 18.3101H19.3203L19.1682 19.0175H18.3583L18.5068 18.3101Z" fill="white"/>
<path d="M19.7731 22.0802C19.6659 21.9738 19.5823 21.8461 19.5274 21.7054C19.4726 21.5647 19.4478 21.414 19.4547 21.2632C19.4513 21.1972 19.4513 21.1311 19.4547 21.0651C19.4547 20.9908 19.4547 20.9166 19.4866 20.8529C19.5587 20.4169 19.774 20.0175 20.0985 19.7175C20.4085 19.4385 20.8132 19.288 21.2303 19.2966C21.3865 19.2883 21.5429 19.3108 21.6904 19.363C21.8379 19.4152 21.9736 19.496 22.0898 19.6008C22.1969 19.7093 22.2802 19.8389 22.3344 19.9814C22.3886 20.1239 22.4125 20.2762 22.4046 20.4285C22.408 20.4968 22.408 20.5653 22.4046 20.6336C22.4046 20.7079 22.3833 20.7822 22.3692 20.8529C22.2973 21.2839 22.0816 21.6778 21.7573 21.9706C21.4465 22.2453 21.0437 22.393 20.629 22.3844C20.3148 22.3992 20.0074 22.29 19.7731 22.0802ZM21.3081 21.5002C21.473 21.297 21.5782 21.0522 21.6123 20.7928C21.6123 20.7432 21.6123 20.6937 21.6335 20.6442C21.6359 20.5983 21.6359 20.5522 21.6335 20.5063C21.6435 20.3534 21.5941 20.2027 21.4956 20.0854C21.4446 20.0339 21.3831 19.9941 21.3154 19.9684C21.2477 19.9428 21.1752 19.932 21.103 19.9368C20.9998 19.9339 20.8973 19.9537 20.8026 19.9946C20.7079 20.0355 20.6233 20.0967 20.5547 20.1738C20.3901 20.3778 20.2827 20.622 20.2435 20.8812C20.2435 20.9307 20.2435 20.9767 20.2223 21.0262C20.2194 21.071 20.2194 21.1159 20.2223 21.1606C20.2121 21.3124 20.2616 21.4622 20.3602 21.578C20.4113 21.6292 20.4728 21.669 20.5405 21.6946C20.6082 21.7202 20.6806 21.7311 20.7528 21.7265C20.8557 21.7298 20.958 21.7107 21.0527 21.6703C21.1474 21.63 21.2321 21.5695 21.301 21.4931" fill="white"/>
<path d="M26.8081 17.5459H28.9303C29.2652 17.5226 29.5974 17.6191 29.8676 17.8182C29.9774 17.9168 30.0634 18.039 30.1191 18.1756C30.1749 18.3123 30.1989 18.4597 30.1895 18.607C30.1895 18.6706 30.1895 18.7449 30.1895 18.8263C30.1895 18.9076 30.1647 18.9854 30.147 19.0668C30.0674 19.4954 29.8395 19.8823 29.5033 20.1597C29.1691 20.4347 28.7476 20.5815 28.3149 20.5735H27.1654L26.8117 22.2925H25.8354L26.8081 17.5459ZM27.3351 19.753H28.2618C28.4689 19.7642 28.6736 19.7043 28.8419 19.5832C28.9949 19.447 29.0961 19.262 29.1284 19.0597C29.1284 19.0173 29.1284 18.9784 29.1496 18.9395C29.1708 18.9006 29.1496 18.8723 29.1496 18.8369C29.1526 18.7674 29.1376 18.6983 29.106 18.6363C29.0743 18.5743 29.0272 18.5216 28.9692 18.4832C28.7936 18.3933 28.5964 18.3541 28.3998 18.37H27.6252L27.3351 19.753Z" fill="white"/>
<path d="M34.5718 22.869C34.3784 23.3154 34.1158 23.7284 33.7936 24.0928C33.6302 24.287 33.4224 24.4388 33.1878 24.5355C32.9532 24.6321 32.6988 24.6708 32.446 24.6482L32.5168 24.1459C33.2242 23.9301 33.5779 22.961 33.8078 22.533L33.5531 19.3745H34.0943H34.547L34.5965 21.3552L35.4454 19.3745H36.3049L34.5788 22.8761" fill="white"/>
<path d="M32.1525 19.6082L31.7988 19.8416C31.6306 19.6714 31.4097 19.563 31.1722 19.5341C30.9346 19.5052 30.6942 19.5575 30.4901 19.6824C29.6342 20.0786 28.9197 23.1239 31.2753 22.1194L31.4451 22.2786L32.3718 22.3033L32.9801 19.5374L32.1772 19.6082M31.6502 21.1185C31.5017 21.557 31.1692 21.8471 30.9075 21.7657C30.6457 21.6844 30.5538 21.2599 30.7059 20.8214C30.858 20.3828 31.1904 20.0927 31.4486 20.1741C31.7068 20.2554 31.8023 20.6799 31.6502 21.1185Z" fill="white"/>
</svg>
