<svg width="44" height="44" viewBox="0 0 44 44" fill="none" xmlns="http://www.w3.org/2000/svg">
<path d="M17.5286 17.1879L13.2093 27.498H10.4046L8.26466 19.269C8.13564 18.7613 8.02346 18.5762 7.6308 18.3631C6.79368 17.9631 5.90992 17.6691 5 17.488L5.0617 17.1879H9.59969C9.89629 17.1877 10.1832 17.2937 10.4085 17.4866C10.6338 17.6795 10.7826 17.9466 10.8281 18.2397L11.95 24.2053L14.7267 17.1935H17.5314L17.5286 17.1879ZM28.5734 24.1295C28.5734 21.409 24.8123 21.2603 24.8376 20.0431C24.8376 19.6729 25.1966 19.2802 25.9595 19.1792C26.8609 19.0941 27.7686 19.253 28.5875 19.6392L29.0558 17.4544C28.261 17.1569 27.4196 17.003 26.5709 17C23.9345 17 22.0834 18.4023 22.0665 20.4077C22.0497 21.8914 23.3904 22.7188 24.4001 23.2124C25.4097 23.706 25.7856 24.0538 25.7828 24.4941C25.7828 25.1869 24.9414 25.4898 24.1869 25.5038C23.2338 25.5244 22.2914 25.3004 21.4495 24.8531L20.9671 27.0969C21.9113 27.4685 22.917 27.6588 23.9317 27.6578C26.7364 27.6578 28.565 26.2751 28.5734 24.1295ZM35.5347 27.4952H38L35.8516 17.1879H33.5742C33.3332 17.1886 33.0978 17.2609 32.898 17.3958C32.6982 17.5306 32.5431 17.7219 32.4523 17.9452L28.436 27.498H31.2407L31.8016 25.9582H35.2234L35.5347 27.4952ZM32.5589 23.8491L33.9612 19.9786L34.769 23.8491H32.5561H32.5589ZM21.3401 17.1935L19.1356 27.498H16.4684L18.6757 17.1907H21.3429L21.3401 17.1935Z" fill="url(#paint0_linear_18_177)"/>
<defs>
<linearGradient id="paint0_linear_18_177" x1="5" y1="22.3289" x2="38" y2="22.3289" gradientUnits="userSpaceOnUse">
<stop stop-color="#241F5D"/>
<stop offset="1" stop-color="#034EA1"/>
</linearGradient>
</defs>
</svg>
